<svg id="Layer_1" xmlns="http://www.w3.org/2000/svg" viewBox="0 0 200 80"><style>.st0{fill:#fff}</style><path class="st0" d="M38.8 46.1c-3.2-1.5-6.3-3.6-9.8-5.6 3.4-2.2 6.6-3.9 9.7-5.7 3.2-1.8 6.3-3.8 9.5-5.3.3.3.3.6.1.7-.5 1.8-8.5 15-9.5 15.9zM7.5 29.5c1.4.1 17.7 10 19.1 10.9 0 .4-.1.6-.4.7-2.4 1.1-4.5 2.9-7 3.9-.4.1-.7.4-1.1.7-.8.6-1 .4-1.5-.3-1.7-2.8-3.2-5.6-4.9-8.4-1.3-2.2-2.5-4.5-3.9-6.7-.3-.3-.4-.6-.3-.8zm21.3 34.6c-.4-.7-.3-1.1-.3-1.5V42.5c0-.4 0-.7.4-.8s.7 0 1 .3c2.4 1.5 4.8 2.9 7.3 4.2.6.3 1 .6 1.5 1-3.3 5.5-6.3 11.1-9.9 16.9zM27 39.3c-6.3-3.6-12.6-7.2-18.8-10.9.3-.6.7-.4 1-.4h17c1.1 0 1.3.3 1.3 1.3v9.3c-.1 0-.1.3-.5.7zm20.9-10.8c-6.4 3.6-12.8 7.3-18.9 10.9-.6-.4-.4-.7-.4-1.1v-9c0-1.3.1-1.4 1.4-1.4h16.7c.4 0 .8-.1 1.2.6zM27.3 63.9c-.8-.7-1.4-1.5-1.7-2.2-1.1-2.4-2.5-4.6-3.8-6.9-1.3-2.1-2.5-4.3-3.8-6.4-.7-1.1-.7-1.4.4-2 2.7-1.5 5.3-3.1 7.9-4.5.3-.1.4-.3.8-.1.4.1.3.6.3 1v20.6s0 .1-.1.5zm2.7.3c3.1-5.5 6.3-10.9 9.5-16.7 3.4 1.8 6.6 3.6 9.7 5.6-.1.6-.4.8-.7 1-6.2 3.4-12.1 7-18.2 10.4-.2 0-.3-.1-.3-.3zM6.7 53.3c3.2-1.8 6.4-3.8 9.8-5.6 3.2 5.6 6.4 11.1 9.5 16.5-.4.6-.7.3-1 .1-5.8-3.3-11.6-6.7-17.5-10-.1-.3-.5-.4-.8-1zm43.2-1.1c-.6.1-1-.3-1.3-.4-2.5-1.4-5-2.9-7.6-4.3-.8-.6-1-.7-.6-1.4 2.4-4.1 4.6-8.1 7-12.2.7-1.3 1.1-2.5 2.2-3.5.6.9.6 20.4.3 21.8zM6.3 29.9C9.5 35.5 12.7 41 16 46.6c-3.1 2.1-6.4 3.8-9.5 5.6-.6-.3-.4-.7-.4-1V30.7c-.1-.3-.1-.4.2-.8zm1.9-3.2c6.2-3.9 12.6-7.4 18.9-11.2.4 1.3.1 2.5.3 3.8v3.8c0 1.3.1 2.5-.1 3.6-1 .2-16.3.4-19.1 0zm39.7-.2c-.6.4-1 .3-1.4.3H30.1c-1.7 0-1.7 0-1.7-1.7V17c0-.4-.1-.8.1-1.4.6 0 1 .1 1.5.4 5.6 3.2 11.4 6.6 17 10 .5.2.6.4.9.5zm116.1 21c1.1-2 0-3.8 1.3-5.2.7-.3 1.3-.1 1.5.6.6 2 .4 4.1.1 6-.1 1-1 1.1-1.8 1.1-5 0-10.1.1-15.1 0-2.2 0-3.8-1.7-3.8-4.1-.1-2.7-.1-5.2 0-7.9.1-2.4 1.4-3.8 3.9-3.9 4.9-.1 10-.1 14.9 0 .8 0 2 0 2 1.3s-1.1 1.3-2.1 1.3c-4.2-.1-8.3-.1-12.5-.1-3.4 0-3.5.3-3.6 3.6v4.6c0 1.4.7 2.5 2.2 2.5 4.2.4 8.7.2 13 .2zm-26.9-1.6c.6-3.8-.4-7.7.6-11.4 1.5 0 2 .7 2 1.5.1 4.3.3 8.7-.1 13 0 .3-.3.4-.6.8-1.7.1-2.8-.8-4.1-1.8-4.3-3.4-8.8-6.6-13.6-10.1-1.1 4.2.6 8.3-1.1 11.9-1.8-.3-1.7-1.4-1.7-2.2V36.5c0-.7 0-1.7.7-2.1 1-.6 1.7.1 2.4.7 4.3 3.2 8.7 6.4 13 9.7.8.5 1.4 1.2 2.5 1.1zm37.2-11.7c3.4 1.1 5.7 3.8 8.6 5.6 2.9 2 5.6 4.1 8.3 6.2 1.1-.6.8-1.4.8-2.1v-7c0-.8-.3-2 1-2.5 1.3 1.5 1.5 11.8.4 15.3-1.5.3-2.7-.6-3.8-1.5-4.3-3.4-8.8-6.6-13.5-10.1-1 4.1.4 8.1-1 11.8-1.4.1-1.8-.4-1.8-1.3 0-4.5-.3-9 .1-13.3.1-.4.6-.5.9-1.1zm-89.5 1c-.3 1.5-1.5 1.4-2.7 1.4H70.5c-3.4 0-3.9.6-4.1 3.9-.1 8.3.6 7.2 6.9 7.2h8.4c.7 0 1.4 0 2 .1s1.1.4 1.1 1.1c0 .7-.6 1-1.1 1.1-.4.1-1 .1-1.4.1H69.5c-3.5 0-4.9-1.4-4.9-4.9v-6.7c.1-2.5 1.3-4.1 3.6-4.1 5.2-.1 10.2-.1 15.4 0 .4-.2.9.1 1.2.8zm5.7.1c1.1-1.4 2-1.1 2.9-.4 2.9 2.7 6 5.2 8.8 8.1 1.7 1.7.6 3.5.7 5.2.1.8-.3 1.8-1.4 1.8-1.4-.7-.8-2-1-3.1-.1-1.7-.6-2.9-2-4.2-2.8-2.2-5.3-4.8-8-7.4zm22.8-.1c-2.2 2.2-3.8 4.9-6.4 6.6-.8.6-1.8 1-2.5 0s.1-1.7.8-2.2c1.7-1.5 3.4-2.9 5-4.5.7-.7 1.5-1.3 3.1.1z"/></svg>