<svg id="Layer_1" xmlns="http://www.w3.org/2000/svg" viewBox="0 0 200 80"><style>.st0{fill:#fff}</style><path class="st0" d="M200 50c-1.2.2-2-.3-2.4-1.5-.1-.2-.2-.4-.3-.5-.7-3.3-2.9-4.1-5.9-3.7-1.9.2-3.9.1-5.8 0-1 0-1.6.3-2 1.3-.5 1.2-1 2.3-1.5 3.4-.4.8-.9 1.3-1.9.8-.3-.6 0-1 .2-1.4 2.7-5.7 5.3-11.5 8-17.2.3-.7.6-1.5 1.6-1.5s1.1.9 1.4 1.5c2.6 5.5 5.1 11 7.7 16.5.2.5.5.9.8 1.4.1.3.1.6.1.9zm-5.2-7.6c-1.6-3.4-3.1-6.9-4.8-10.6-1.7 3.8-3.3 7.2-4.8 10.7 1.4.4 8.2.4 9.6-.1zm-125.3-.8c2.1 2.7 4.1 5.4 6.2 8.1-1.1.6-1.9.4-2.6-.5-1.6-2-3.2-4.1-4.7-6.2-.7-1-1.5-1.5-2.7-1.4-.9.1-1.8 0-2.7 0-2 0-2 0-2 2v4.9c0 .6 0 1.3-.9 1.3-.8 0-1-.6-1-1.3V30.8c0-.9.4-1.4 1.4-1.4 3.1.1 6.2-.2 9.3.3 3.3.6 5.4 2.9 5.3 5.9-.1 2.1-.9 3.7-2.8 4.6-.8.7-1.7.9-2.8 1.4zM66 31.5h-3.8c-.8 0-1.2.4-1.2 1.2V39c0 .5.1 1.1.7 1.1 2.9 0 5.9.6 8.7-.5 1.9-.7 2.7-1.9 2.7-3.8s-.8-3-2.7-3.8c-1.5-.8-3.2-.5-4.4-.5zm35.7 8.3v-8.5c0-1.2.5-1.6 1.6-1.6h11.5c.6 0 1.4 0 1.4.9s-.8.9-1.4.9c-3.2 0-6.4.1-9.6 0-1.3 0-1.8.4-1.7 1.7.1 1.3.1 2.6 0 3.9-.1 1.5.5 1.9 1.9 1.9 2.6-.1 5.3 0 7.9 0 .5 0 1-.1 1.4.4.5.7-.1 1.4-1.3 1.4-2.7 0-5.4.1-8.1 0-1.4 0-2 .5-1.9 1.9.1 1.3.1 2.7 0 4 0 1.2.5 1.6 1.6 1.6h9c.4 0 .9 0 1.3.1.6.1.9.4.9 1-.1.6-.5.7-1 .7H111c-2.5 0-5.1-.1-7.6 0-1.5 0-1.9-.5-1.9-1.9.2-2.9.2-5.7.2-8.4zm-74.4 0c0-5.9 4.4-10.2 10.3-10.2 5.7 0 10.4 4.7 10.4 10.2 0 5.6-4.8 10.5-10.4 10.4-6 0-10.7-5.1-10.3-10.4zm10.3-8.7c-5 0-8.6 3.6-8.8 8.7-.1 4.6 3.5 8.8 8.8 8.9 4.7.1 8.9-4.2 8.9-9-.1-4.7-4-8.6-8.9-8.6zm85.3-1.1c1.5-.7 2.2.1 2.9.9 1.5 2 3 4 4.6 5.9.4.5.6 1 1.4 1.4 1.4-1.8 2.9-3.7 4.4-5.6.6-.7 1.2-1.5 1.7-2.3.6-.8 1.4-.8 2.3-.5-.3 1-1 1.6-1.6 2.3-1.7 2.2-3.3 4.3-5.1 6.5-.6.8-.6 1.3 0 2.1 2 2.5 4 5.1 6 7.7.3.4.8.8.8 1.5-1.1.5-1.9 0-2.5-.9-1.6-2.1-3.3-4.3-4.9-6.4-.4-.5-.7-1-1.4-1.3-1.7 1.8-3 3.9-4.6 5.8-.6.7-1.2 1.5-1.7 2.3-.6.8-1.3.9-2.5.4 1.6-2.1 3.1-4.1 4.6-6 3.3-4.1 3.3-4 0-8.1-1.4-1.9-2.8-3.7-4.4-5.7zm35.8 11.2c.1 2.2 1.4 5.1 4.8 6.7 3.2 1.5 6.2 1 9-1.1.2-.2.5-.4.7-.6.4-.4.8-.5 1.3 0 .5.6.3 1-.2 1.4-2.5 2.2-5.4 3.2-8.7 2.8-4.4-.6-7.7-3.8-8.5-8.2-.9-4.5 1.2-9.2 4.9-11.3 3.9-2.2 8.9-1.7 12.1 1.3.4.4.8.8.3 1.4-.6.6-1.1.4-1.7-.1-2.4-2.2-5.2-2.6-8.2-1.8-3.7.9-5.9 4.1-5.8 9.5zM0 39.9c.1-4.3 1.8-7.6 5.8-9.5 4-1.8 7.8-1.2 11.2 1.5.5.4 1.1.7.5 1.4-.5.6-1.1.6-1.7 0-1.6-1.5-3.5-2.2-5.7-2.2-4.1 0-7.2 2.4-8.1 6.4-1.2 5.4 1.8 10.2 7 11.1 2.6.4 4.9-.6 6.9-2.2.5-.4 1-1 1.6-.2s0 1.2-.5 1.6C11 52.9 2.3 50.3.2 42.9c-.2-1-.2-2-.2-3zm87.2.7c0-2.5-.1-5 0-7.5 0-1.3-.5-1.8-1.8-1.7-1.4.1-2.8 0-4.2 0-.6 0-1.1-.1-1.1-.9 0-.7.5-.9 1.1-.9h13.5c.6 0 1.1.2 1.1.9 0 .8-.6.9-1.1.9-1.3 0-2.7.1-4 0-1.2-.1-1.7.5-1.6 1.7v15c-.1.7.2 1.8-.9 1.9-1.3 0-.9-1.1-.9-1.8-.1-2.6-.1-5.1-.1-7.6z"/><path class="st0" d="M28.5 32.3c-1.8 2.5-2.5 5.3-2.7 8.4-.2 3-.5 5.9-.5 8.9-.7.1-.8-.4-1-.7-2.4-3.5-3.2-7.3-2.6-11.5.1-.6.3-1.3.8-1.7 1.5-1.3 3-2.4 4.8-3.3.3-.2.6-.3 1.2-.1z"/><path class="st0" d="M22.6 34.1c1-3.1 2.8-5.4 5.3-7.1 4.7-3.2 4.9-3.2 9.9-.5.7.4 1.4.7 2 1.5-6.5-.2-11.6 3.4-17.2 6.1zm29.9 11.6c-.8 2.4-2.2 4.4-3.9 6-1.4 1.3-3.1 2.3-4.9 3.1-.5.2-1 .4-1.4.3-2.5-.4-4.7-1.7-6.6-3.4 6.2.3 11.2-3.4 16.8-6zm-26.2-1.8c3 5.8 8.6 8.2 13.5 11.7-1.9.9-3.8.3-5.7 0-1.2-.2-2.4-.7-3.5-1.2-4.1-1.9-5.5-4.8-4.7-9.3.1-.4.3-.7.4-1.2zm23.8-14c.8.7 1.3 1.5 1.7 2.3 1.6 3.1 2.3 6.4 1.7 9.8-.1.9-.5 1.7-1.2 2.3-1.7 1.4-3.5 2.6-5.9 3.5 3.8-5.5 3.2-11.7 3.7-17.9z"/><path class="st0" d="M48.6 35.6c-1.2-2.9-3.3-4.8-5.8-6.4-2.4-1.6-4.5-3.7-7.3-4.9 2.8-.6 5.5-.3 8.1.8 4.9 2.1 6.1 4.3 5.5 9.6 0 .3-.2.6-.2.8 0 0-.2.1-.3.1zM149.7 40v8.4c0 .7.2 1.6-.9 1.6-1.2 0-1-.9-1-1.6V31.3c0-.5-.1-1 .4-1.4.3-.2.7-.2 1-.1.5.3.5.7.5 1.2v9z"/></svg>