<svg id="Layer_1" xmlns="http://www.w3.org/2000/svg" viewBox="0 0 200 80"><style>.st0{fill:#fff}</style><path class="st0" d="M0 12.1h32.9c.2.3.1.5.1.8v55H0V12.1zm31.2 28.1V14.3c0-.5-.2-.7-.6-.6H2.3c-.9 0-.9 0-.9.9v51.3c0 .5.2.7.7.7h28.4c.6 0 .7-.2.7-.8V40.2zm112.1-4.4c.2-4.2 2.3-8.1 6.9-10.5 2.2-1.1 4.5-1.5 6.9-1.3 2.3.1 4.4.7 6.3 2 2.8 1.8 4.4 4.5 5 7.7s.2 6.3-1.4 9.2c-2.1 3.7-5.4 5.7-9.6 6.1-3 .3-5.9-.3-8.5-1.9-3.6-2.4-5.6-6.1-5.6-11.3zm21.9 1.6c0-.9-.1-1.9-.3-3-.2-1-.4-1.9-.7-2.8-1.4-3.7-3.7-6.1-7.8-6.6-3.7-.4-7.3 1.7-8.6 5.2-1.6 4.2-1.2 8.3.6 12.3 1.3 2.9 3.5 4.7 6.7 5.3 3.5.6 6.7-.9 8.5-3.9 1.2-2 1.6-4.2 1.6-6.5zM119.7 29c-.2.4-.3.7-.3 1.1 0 4.8-.2 9.6.1 14.4 0 .6.2 1.1.2 1.7.1.8.6 1.2 1.4 1.4.5.1 1 .1 1.5.2.3 0 .6.2.5.5 0 .4-.3.4-.6.3-2.4-.1-4.8-.1-7.2 0-.3 0-.6 0-.6-.4s.3-.4.6-.4h.4c1.5-.1 1.9-.5 2-2 .2-1.5.2-3.1.2-4.6V29c0-2.2-1-3.2-3.1-3.4h-.2c-.3 0-.5-.2-.5-.5s.2-.4.5-.4c1.2.1 2.5.1 3.7.1h.7c.7-.2 1.1.1 1.4.7 1.4 2.3 3.3 4.4 5.1 6.4 3.1 3.5 6.1 7 9.3 10.4.3.3.5.6.8.9.3-.3.3-.6.3-.8V31.2c0-1.4-.1-2.8-.4-4.2-.2-.6-.5-1-1.1-1.1-.5-.1-1.1-.2-1.6-.3-.3 0-.5-.2-.5-.5 0-.4.3-.4.6-.4 2.4.2 4.9.2 7.3 0 .3 0 .5.1.5.4s-.1.4-.4.5c-.5.1-.9.2-1.4.3-.6.2-1 .6-1.1 1.2-.3 1.7-.3 3.4-.3 5.1v15.1c0 .5 0 .9.1 1.4 0 .3-.1.5-.3.6-.3.1-.4-.1-.6-.2-4.6-5.5-9.4-10.8-14.1-16.2-.8-1.6-1.8-2.7-2.9-3.9zM41.1 53.5c-.2-.2-.1-.4-.1-.6.2-.2.5-.1.7-.1h157.8c.2 0 .3.2.3.3 0 .2-.1.3-.3.3H41.7c-.2.1-.4.1-.6.1zm153.3-29.6c1.5-.1 2.9.4 4.4.6.3 0 .3.3.3.4.3 1.2.4 2.4.5 3.6 0 .3 0 .6-.4.6-.4.1-.5-.2-.5-.4-.3-.9-.7-1.8-1.4-2.5-1.5-1.5-4.8-1.7-6.4-.4-1.8 1.4-1.8 4.3 0 6.3.9.9 2 1.6 3 2.2 1.5.9 3 1.8 4.2 3.1 2.4 2.6 2.6 6.5.4 9-1.2 1.5-2.9 2.1-4.8 2.4-2.3.3-4.5 0-6.6-1-.4-.2-.6-.4-.8-.9-.4-1.3-.6-2.7-.7-4 0-.3 0-.6.4-.7.4-.1.5.2.6.5.6 1.7 1.4 3.2 2.9 4.2 1.6 1 3.2 1.2 5 .6 2-.6 3-2.5 2.7-4.8-.2-1.8-1.2-3.1-2.7-4.1-1.3-.9-2.6-1.7-3.8-2.5-1.7-1.2-3.1-2.6-3.6-4.7-.8-3.4 1.1-6.4 4.5-7.3.9-.1 1.8-.2 2.8-.2zM59.3 36.4v-8.7c0-1.7-.6-2.2-2.3-2.4h-.4c-.3 0-.6 0-.6-.5s.3-.4.6-.4c1.1 0 2.2.1 3.2.1 1.7 0 3.3 0 5-.1.3 0 .6-.1.7.4 0 .5-.3.5-.6.5-.4.1-.8.1-1.2.2-.7.2-1.1.6-1.2 1.3-.1.5-.1 1.1-.1 1.6v16.1c.2 1.8.9 2.5 2.7 2.7 1.7.2 3.4.1 5.1 0 1.5-.1 2.3-1.1 3-2.3.3-.5.5-.9.7-1.4.1-.3.4-.4.6-.3.3.1.3.3.3.6-.3 1.5-.8 2.9-1.3 4.3-.1.3-.3.4-.6.4-5.4-.1-10.9-.1-16.3 0-.3 0-.5 0-.5-.4s.2-.4.5-.5c.5-.1 1-.1 1.6-.2.6-.1 1-.5 1.1-1.1.2-.8.2-1.5.2-2.3-.1-2.6-.1-5.1-.2-7.6.1 0 0 0 0 0zm26.9 12.1h-8.1c-.3 0-.6 0-.6-.4s.2-.5.6-.5c.3 0 .6-.1 1-.1 1.3-.1 1.7-.6 1.8-1.9.1-1.2.1-2.4.1-3.5V29.5c0-.8 0-1.5-.1-2.3-.1-1.2-.6-1.7-1.9-1.9-.3 0-.6-.1-1-.1-.3 0-.5-.1-.5-.5 0-.3.2-.4.5-.4 2.1.1 4.2.2 6.2.1.8 0 1.5-.1 2.3-.1.3 0 .5.1.5.4s-.1.4-.4.5c-.4 0-.8.1-1.2.1-1 .2-1.4.6-1.5 1.6-.1.5-.1 1.1-.1 1.6v14.7c0 .4 0 .9.1 1.3.2 1.8.9 2.5 2.8 2.6 1.6.2 3.2.1 4.8 0 1.6-.1 2.4-1 3.1-2.2.3-.5.5-1 .7-1.5.1-.4.4-.4.7-.3.3.1.3.3.2.6-.3 1.4-.7 2.7-1.2 4.1-.1.4-.4.6-.8.6-2.6.1-5.3.1-8 .1zm-42-12v-9.2c-.2-1.5-.7-1.9-2.1-2-.2 0-.4-.1-.7-.1-.4 0-.4-.2-.4-.4 0-.3.1-.4.4-.4.5 0 1.1.1 1.6.1 2.1.1 4.2.1 6.4-.1h.6c.3 0 .4.2.4.4 0 .3-.1.4-.4.5-.5 0-.9.1-1.4.2-.8.1-1.2.6-1.3 1.4-.1.5-.1 1.1-.1 1.6v16.8c.1 1.7.5 2.2 2.2 2.4.2 0 .4 0 .7.1.2 0 .3.2.3.5 0 .2-.1.4-.4.4h-.1c-2.8-.1-5.6-.1-8.4 0-.3 0-.5-.1-.5-.4 0-.3.1-.4.4-.5.4 0 .9-.1 1.3-.2.8-.2 1.2-.6 1.4-1.4.1-.7.1-1.4.1-2.1v-7.6zm59.8-12c1.4 0 2.8 0 4.1-.1.3 0 .6 0 .7.4 0 .5-.3.5-.6.5-1.9.1-2.5.4-2.6 2.7-.1 1.2 0 2.4-.1 3.6v12.2c0 .7 0 1.3.1 2 .1 1.1.5 1.6 1.7 1.8.3.1.6.1.9.1s.6 0 .6.4-.3.4-.6.4c-2 0-4 0-5.9-.1H100c-.3 0-.6 0-.6-.4s.2-.5.5-.5c.4 0 .8-.1 1.2-.1.9-.2 1.3-.6 1.4-1.5.1-.6.1-1.2.1-1.8V29c0-.6 0-1.3-.1-1.9-.1-1.2-.6-1.6-1.8-1.8-.3 0-.6-.1-.9-.1s-.5-.1-.5-.5c0-.3.2-.4.5-.4 1.4.1 2.8.2 4.2.2zm72.7 0c1.3 0 2.6 0 4-.1.3 0 .7-.1.7.5 0 .5-.4.4-.7.4-.3.1-.7.1-1 .1-.9.2-1.2.6-1.4 1.5-.1.6-.1 1.3-.1 1.9V44c0 .6 0 1.3.1 1.9.1.9.5 1.3 1.4 1.5.4.1.7.1 1.1.2.3 0 .7-.1.7.4s-.3.5-.7.5h-5.3c-.9 0-1.9 0-2.8.1-.3 0-.6 0-.6-.4s.2-.5.6-.5c.3 0 .6-.1.8-.1 1.3-.2 1.7-.7 1.8-2 .2-3.5.1-7 .1-10.6 0-2.5.1-4.9-.1-7.4-.1-1.6-.6-2.1-2.2-2.2h-.4c-.3-.1-.7.1-.7-.5 0-.5.4-.4.7-.4 1.1 0 2.3.1 3.4.1.2-.1.4-.1.6-.1zm-1 34.4v3.2c0 .4-.1.6-.6.4v-4.4c1-.1 1-.1 1.3.8.3.9.6 1.8.9 2.8.3-.2.3-.6.4-.8.2-.7.5-1.3.7-2 .3-.8.3-.8 1.3-.6v4.2c0 .4-.3.2-.6.2V59h-.1c-.4 1-.7 2-1.1 2.9-.1.2-.1.3-.2.5s-.2.4-.4.4c-.3 0-.3-.2-.4-.4-.3-.9-.7-1.9-1-2.8-.1-.2-.1-.4-.2-.5.1-.2 0-.2 0-.2zm20.5 3.7v-4.4c.6-.2.9 0 1.2.5.6 1 1.2 2 1.9 3v-3.3c0-.2 0-.3.3-.3.2 0 .2.1.2.3v4.1c-.5.2-.8 0-1-.4-.6-1.1-1.2-2.1-1.9-3.3-.2.7-.1 1.3-.1 1.9V62c0 .6-.2.7-.6.6zm-43-.1c-.5.2-.8 0-1-.3-.6-1.1-1.3-2.1-1.9-3.2h-.2v2.6c0 .3.3.9-.3.9-.4 0-.2-.6-.2-.9v-3.5c.5-.2.9-.1 1.1.4.6 1 1.2 2 1.9 3v-2.7c0-.3-.3-.8.3-.8.4 0 .2.5.2.8.1 1.3.1 2.5.1 3.7zM143 60.3c.6.3.9.8.7 1.4-.1.6-.7.9-1.4.9h-1.6v-4.4c.5-.1 1-.1 1.6-.1.5 0 1.1.1 1.3.7.2.6-.1 1.1-.6 1.5zm-1.7 1.8c.5 0 .9.1 1.3 0s.6-.3.7-.7c0-.5-.3-.7-.7-.8-.4 0-.8-.1-1.2 0-.1.5-.1.9-.1 1.5zm0-2.1c.5.1.9.1 1.3 0 .3-.1.5-.3.5-.6s-.1-.5-.5-.6-.8-.1-1.3 0c-.1.3-.1.7 0 1.2zm-34.5-1.8v4.4c-.5.2-.7 0-.9-.4-.6-1.1-1.3-2.1-1.9-3.2h-.2v3.2c0 .2 0 .4-.3.4-.2 0-.2-.2-.2-.4v-4c.5-.2.8-.1 1.1.4.6 1 1.2 2.1 1.9 3v-3c0-.3 0-.6.5-.4zm-60.8 0c.5-.2.8-.1 1.1.4.6 1 1.2 2 1.9 3V59c0-.3-.2-.8.2-.8s.2.5.2.8v3.5c-.4.2-.7.1-.9-.3-.6-1.1-1.3-2.2-2-3.3-.2.3-.1.6-.1.9v2.4c0 .2 0 .4-.3.4-.2 0-.2-.1-.2-.3.1-1.4.1-2.7.1-4.1zm15.6 2.4v1.6c0 .4-.2.5-.6.4v-4.4h1.9c.5 0 1 .2 1.1.8s0 1-.6 1.4c.7.6.5 1.5.8 2.3-.4.1-.7.1-.7-.4 0-.1-.1-.2-.1-.4-.1-1.3-.4-1.5-1.8-1.3zm.8-.5c.9 0 1.2-.2 1.2-.7s-.4-.7-1.1-.7h-.4c-.1 0-.3 0-.4.1-.1.4-.1.8 0 1.1.1.3.5.1.7.2zm132.4.1v1.9c0 .2-.1.3-.3.4-.7.2-1.4.3-2.1.1-1-.3-1.5-1.3-1.4-2.5.1-1.5 1.4-2.4 2.8-2 .5.1.9.4.9 1-.3.1-.5.1-.7-.2-.6-.7-1.8-.5-2.2.3s-.3 1.5 0 2.3c.3.6 1.6.9 2.2.6.2-.1.2-.2.2-.4v-.8c-.2-.2-.5-.1-.7-.1s-.3 0-.3-.2.1-.3.3-.3c.5-.1.9-.1 1.3-.1zm-56.1.1c.5.5.7 1.1.7 2.3-.4.1-.6 0-.6-.4 0-.1-.1-.2-.1-.4-.2-1.3-.5-1.5-1.9-1.2v2c-.3 0-.6.2-.6-.3v-4.2c.8 0 1.4-.1 2.1 0 .4.1.8.3.9.8.1.5-.1.9-.4 1.2.1.1 0 .1-.1.2zm-1.1-.2h.2c.4 0 .8 0 1-.5.1-.3 0-.6-.3-.7-.5-.2-1.1-.4-1.5-.1-.3.2-.2.8-.1 1.1.1.3.5.1.7.2zm-25.5.2c0 1.7-1 2.6-2.6 2.3-.5-.1-.9-.4-1.2-.9-.4-.8-.4-1.6-.1-2.5.3-.8 1.2-1.3 2-1.2 1 .1 1.6.7 1.8 1.7.1.2.1.4.1.6zm-.6-.1c0-.6 0-1.3-.8-1.6-.5-.2-1.1-.2-1.5.2-.7.7-.6 1.5-.4 2.3.1.5.4.9.9 1h.2c1.1.2 1.6-.5 1.6-1.9zm-25.9.2c0 1.7-1.1 2.6-2.6 2.2-.1 0-.2-.1-.3-.1-1-.5-1.4-2-.9-3.2.4-1 1.5-1.5 2.6-1.1.7.2 1.2 1 1.2 2.2zm-3.4 0c0 1 .3 1.6.9 1.8.8.3 1.6-.1 1.8-1 .3-1.3 0-2.4-.9-2.6-1.2-.3-1.8.3-1.8 1.8zm-17 1c.4-.1.6 0 .7.3.3.6 1.5.7 1.9.2.3-.4.1-1-.5-1.1-.5-.1-.9-.2-1.3-.4s-.7-.5-.7-.9c0-.5.2-.9.6-1.1 1-.6 2.3-.2 2.5.8-.3.1-.5.1-.7-.2-.3-.5-1-.5-1.5-.3-.2.1-.3.3-.3.6s.2.5.4.5c.4.1.9.2 1.4.4s.9.5.9 1.1-.3 1-.9 1.3c-.6.2-1.2.3-1.7 0s-.8-.6-.8-1.2zm49.7 0c.2-.1.4-.1.6 0 .3.8 1 1.1 1.8.7.3-.1.4-.4.4-.7s-.2-.5-.5-.6-.6-.2-.9-.2c-.9-.2-1.3-.6-1.3-1.2 0-.7.5-1.1 1.4-1.3.9-.1 1.6.3 1.7 1.1-.3.1-.5.1-.7-.2-.2-.4-.6-.4-1-.4s-.8.1-.9.6.3.6.7.7l1.2.3c.8.3 1.1 1.1.5 1.8-.5.7-1.2.7-2 .6-.6-.1-.8-.4-1-1.2zm53.7-.8h-2.2c-.1.5 0 1-.1 1.5 0 .2.1.5-.3.5s-.3-.2-.3-.5v-3.6c0-.4.2-.5.6-.3v1.4c0 .4.1.5.5.5h1.7v-1.9c.4-.1.6-.1.6.3v3.7c0 .4-.1.5-.6.4.1-.7.1-1.3.1-2zm-43.5 1.9c-.5.2-.7 0-.8-.4-.1-.6-.5-.8-1-.7h-.4c-.7-.1-1.2 0-1.4.9-.1.4-.3.4-.7.2.6-1.4 1.2-2.8 1.8-4.1.1-.3.7-.4.8-.1.6 1.4 1.1 2.8 1.7 4.2zm-1.3-1.6c-.3-.7-.5-1.4-.9-2.1-.3.8-.6 1.4-.8 2.1.6.1 1.1 0 1.7 0zm34.6 1.6c-.5.2-.7 0-.8-.4-.1-.6-.5-.9-1.1-.8h-.5c-.6-.1-.9.1-1.1.7-.1.3-.2.6-.8.4.4-.9.7-1.7 1.1-2.6.2-.5.4-1 .7-1.6.1-.2.2-.3.5-.3.2 0 .4.1.5.3.4 1.6.9 2.9 1.5 4.3zm-1.3-1.6c-.3-.7-.5-1.4-.9-2.1-.3.7-.6 1.4-.8 2.1.6.1 1.1 0 1.7 0zm-8.4 1.6c-.5.2-.7-.1-.8-.4-.1-.6-.5-.8-1-.7h-.5c-.6-.1-1.1.1-1.2.8-.1.3-.3.5-.7.4.4-1 .8-1.9 1.2-2.9.2-.4.4-.9.5-1.3.1-.2.2-.3.4-.3s.3 0 .4.2c.6 1.4 1.2 2.8 1.7 4.2zm-2-3.6h-.2c-.3.7-.5 1.3-.8 2h1.7c-.2-.7-.5-1.4-.7-2zm23.3 3.6c.6-1.4 1.1-2.8 1.7-4.1.1-.3.7-.4.8 0 .6 1.4 1.1 2.8 1.7 4.2-.4.2-.7.1-.7-.3-.2-.7-.6-.9-1.3-.8h-.3c-.6-.1-1 .1-1.1.8-.2.2-.3.4-.8.2zm1.2-1.6c.6 0 1.1.1 1.7-.1-.3-.7-.5-1.3-.8-2.2-.3.9-.6 1.6-.9 2.3zM41 58.2c.5-.2.6 0 .6.4v2.2c0 .9.4 1.4 1.2 1.4s1.2-.5 1.2-1.4v-2.6c.4-.1.6-.1.6.4v2.3c-.1 1.5-1.1 2.2-2.5 1.8-.7-.2-1-.8-1.1-1.5v-3zm90.4 0c.2-.1.4-.1.6 0v2.7c0 .9.6 1.4 1.4 1.2.6-.1 1-.5 1-1.2v-2.3c0-.2-.1-.5.3-.5.3 0 .3.2.3.4 0 .9.1 1.8-.1 2.7-.2 1-.8 1.5-1.9 1.4-1-.1-1.6-.6-1.7-1.6.1-.9.1-1.8.1-2.8zm52.8 4.3l1.8-4.2c.2-.3.6-.3.7 0 .6 1.4 1.1 2.8 1.7 4.2-.5.2-.7 0-.7-.3-.1-.7-.5-.9-1.2-.8h-.4c-.7-.1-1.1.1-1.2.8-.1.3-.3.5-.7.3zm2.1-3.8c-.4.8-.6 1.4-.9 2.1h1.7c-.2-.6-.5-1.3-.8-2.1zM57.7 60.6c-.2 1.5-.2 1.5 1.3 1.5.3 0 .9-.3.9.3 0 .4-.6.2-.9.2h-1.9v-4.5h2.5c.2 0 .3.1.3.3s-.1.2-.3.2h-1.3c-.5 0-.7.1-.6.6v.9h1.1c.3.1.9-.3.9.2 0 .4-.6.1-.9.2-.4.1-.8 0-1.1.1zm107-1.4c-.3.1-.5.1-.6-.2-.3-.4-.7-.5-1.2-.4s-.7.4-.9.8c-.2.7-.2 1.4 0 2 .3.9 1.4 1 2 .3.2-.2.3-.4.7-.2.1.3-.1.5-.2.6-.8.9-2.2.7-2.8-.3-.5-.8-.5-2.3.1-3.1s1.9-.9 2.7-.3c.1.2.2.4.2.8zm16.4-1.1h1.9c.8 0 1.2.5 1.2 1.2s-.4 1.1-1.1 1.2h-.2c-1.1.1-1.1.1-1.1 1.2v.8c-.3.1-.6.2-.6-.3-.1-1.3-.1-2.6-.1-4.1zm1.3.5c-.2.1-.5-.1-.6.2-.4.8.1 1.4.9 1.3.1 0 .3 0 .4-.1.3-.1.4-.3.5-.7 0-.3-.1-.6-.4-.7h-.8zm-130-.4c.4-.1.6 0 .7.3.3.9.6 1.8 1 2.8.1.2.2.4.3.8.4-1.3.8-2.4 1.2-3.5.1-.4.3-.6.7-.4l-1.5 4.2c-.1.2-.2.2-.4.2s-.3-.1-.4-.3c-.6-1.3-1.1-2.7-1.6-4.1zm22.7 0c.4-.2.6 0 .8.3.4.6.8 1.2 1.1 1.8.8-.6.8-1.9 1.8-2.2.1 0 .1.1.2.1-.4.7-.8 1.5-1.4 2.2-.4.6-.3 1.2-.4 1.9 0 .2 0 .3-.2.3s-.3-.2-.3-.3c.2-1.3-.6-2.2-1.2-3.3-.1-.2-.2-.5-.4-.8zm52 4.3c-.5.1-.6-.1-.6-.4v-3.4c-.4-.2-.8-.1-1.1-.1-.2 0-.3 0-.4-.2 0-.3.2-.3.4-.3h2.8c.2 0 .3 0 .4.2 0 .3-.2.3-.4.3-1.1.1-1.1.1-1.1 1.2v2.7zm-40.4-4.4h2.2c.2 0 .4 0 .4.3 0 .2-.2.2-.4.2h-1.1c-.5 0-.6.1-.6.6v.8c.5.1 1 0 1.5.1.2 0 .5-.1.4.3 0 .3-.2.2-.4.2-.5.1-1.2-.2-1.4.2-.2.3-.1.9-.1 1.4 0 .2.1.4-.2.4-.2 0-.3-.1-.3-.3v-4.2zm-12.1 0c.2.4 0 .5-.3.5-1.1.1-1.1.1-1.1 1.2v2.1c0 .2.2.6-.3.6-.4 0-.2-.4-.2-.6V59c0-.4-.1-.6-.6-.5h-.6c-.2 0-.3 0-.4-.2 0-.3.2-.3.4-.3 1 .1 2.1.1 3.1.1zm23.2.1c.2-.1.3-.1.6 0v2.7c0 1.3 0 1.3 1.3 1.3h.5c.2 0 .2 0 .2.5h-2.6v-4.5zm-3.6 4.4v-4.2c0-.2 0-.3.2-.3.3 0 .3.2.3.4v3c0 .5.1.7.6.6h1.1c.2 0 .4 0 .4.2 0 .3-.2.2-.4.3h-2.2zm7.1-4.4c.4-.2.6-.1.6.3v3.6c0 .2 0 .4-.3.4s-.3-.2-.3-.4v-3.9zm-31 4.3c-.4.1-.6.1-.6-.3v-4c.2-.2.4-.1.6-.1v4.4zm21.9-4.3c.3 0 .6-.1.6.3v4.1c-.3.1-.6.2-.6-.3v-4.1zm-40.7 0v4c0 .2 0 .4-.3.4s-.3-.2-.3-.4v-3.7c0-.4.3-.4.6-.3zm62.3-.1v4.1c0 .4-.2.4-.6.3v-4.1c0-.4.3-.3.6-.3zm75.5.1c.4-.1.6-.1.6.3v3.6c0 .2 0 .4-.3.4s-.3-.2-.3-.4v-3.9zm-30.5 2.7c.6-.2 1.1-.2 1.7 0-.4.3-1.1.3-1.7 0z"/><path class="st0" d="M30.5 40.2v24.9c0 .5-.1.6-.6.6h-27c-.7 0-.7-.4-.7-.8V15.5c0-1 0-1 1-1h26.2c1 0 1 0 1 1 .1 8.2.1 16.4.1 24.7zM17 21.3c.2 1 .2 1-.7 1h-4.6c-.4 0-.7.1-.7.5s.3.5.7.5h4.9c.4 0 .6.1.5.5v32.9c-.3.2-.5.1-.7.1H8c-.4 0-.9.1-.9.6s.4.7.8.6h8.4c.2 0 .4 0 .7.1.1.2.1.3.1.5 0 .9 0 .9-.8.9H5.9c-.6 0-1.1.3-1.3.9-.1.6-.1 1.2 0 1.8h23.5c.2 0 .3-.1.3-.3V59c-.3-.1-.6-.1-.8-.2-3.1-.5-5-2.3-5.7-5.3-.6-2.4-.8-4.9-.8-7.4V32.4c0-2.3.1-4.5.6-6.7.5-2.5 1.9-4.2 4.5-4.8.3-.1.6-.1 1-.2.2 0 .4-.1.4-.3v-2.7H8.7c-2.4 0-3.9 1.2-4.3 3.3-.2 1.3.4 2.6 1.5 3.2s2.4.4 3.3-.5c.8-.8 1-2.2.3-3.1-.5-.6-1.3-.8-2.1-.5-.7.3-1 .8-.9 1.5 0 .3.2.5.5.6.3 0 .6-.2.6-.5s.1-.7.5-.6.6.3.6.7c0 .7-.5 1.3-1.2 1.4-.8.2-1.6-.3-1.9-1.1-.4-1.1 0-2.4 1.1-2.9.6-.4 1.3-.5 2-.5h8.1c.4 0 .5.1.5.5 0 .2 0 .4-.1.7h-5.6c-.4 0-.7.2-.7.7 0 .4.3.6.7.6H16c0 .1.5 0 1 .1zm-2.8 18.9v14.6c0 .4.3.6.6.6.4 0 .7-.1.8-.6V25.5c0-.4-.3-.6-.7-.6s-.7.2-.7.6v.5c-.1 4.8-.1 9.5 0 14.2zm-1.5 0V26.1c0-.4.1-1.1-.6-1.1-.6 0-.5.6-.5 1.1v28.3c0 .2 0 .4.1.6.1.3.3.4.6.4s.4-.2.5-.4v-.6c-.1-4.8-.1-9.5-.1-14.2z"/></svg>