<svg xmlns="http://www.w3.org/2000/svg" viewBox="0 0 25 24"><path fill="#3f4eeb" d="M12 0h1c6.627 0 12 5.373 12 12s-5.373 12-12 12h-1C5.373 24 0 18.627 0 12S5.373 0 12 0z"/><path fill="#FFF" d="M6.71 12l3.082-2.793a.703.703 0 0 0 0-.998.704.704 0 0 0-1.001 0l-3.586 3.246A.702.702 0 0 0 5 12a.703.703 0 0 0 .204.545L8.79 15.79c.276.28.725.28 1.002 0a.703.703 0 0 0 0-.997L6.71 12m11.58 0l-3.082-2.793a.703.703 0 0 1 0-.998.704.704 0 0 1 1.001 0l3.586 3.246c.15.15.216.349.204.545a.703.703 0 0 1-.204.545L16.21 15.79a.704.704 0 0 1-1.001 0 .703.703 0 0 1 0-.997L18.29 12"/></svg>