<svg width="32" height="32" viewBox="0 0 32 32" xmlns="http://www.w3.org/2000/svg"><title>Icon_CountrySpecific</title><defs><linearGradient x1="83.926%" y1="16.101%" x2="13.216%" y2="86.821%" id="a"><stop stop-color="#2B87FF" offset="0%"/><stop stop-color="#134FFF" offset="100%"/></linearGradient></defs><g fill="none" fill-rule="evenodd"><rect fill="url(#a)" width="32" height="32" rx="2"/><g transform="translate(6 6)" fill="#FFF" fill-rule="nonzero"><circle opacity=".4" cx="10" cy="10" r="9.333"/><path d="M15.462 2.509h-1.408l-.831.277a.702.702 0 0 1-.849-.352.704.704 0 0 0-.631-.395h-.975l-.939.939-.939.469v.469h.939l.469-.469h.469l.469.939h-.939l-.469.469H8.89L7.482 6.263v.469l1.408-.469h.939v-.469h.469l.469 1.408h.469v-.469l.469-.469.469.939h.469l.469.469-.939.469-.939-.469-.469.469-.939-.469-.466-.469h-.939l-.469.469h-.469l-.939.469-.94 1.409.469.939-.469.469.939 1.408 1.878-.469 1.408 2.347v1.408l.763 1.906a.7.7 0 0 0 .651.442h.174a.704.704 0 0 0 .496-.205l.997-.997a.7.7 0 0 0 .205-.496v-.483a.7.7 0 0 1 .074-.314l.321-.643a.697.697 0 0 0 .074-.314v-.527c0-.159.054-.314.154-.438l1.724-2.155-.478-.462-.93-.007-.939-.939-.469-1.408h.469l.469.469v.469l.939.469v.469l.939-.468.939-.939-.469-.47h-.939v-.469l1.408.469.469.469.47-.469.47.939h.469l.469 1.878h.469l.078-.156c.017-.26.04-.519.04-.783 0-3.207-1.29-6.111-3.375-8.23l-.498.25z"/></g></g></svg>