<svg width="32" height="32" viewBox="0 0 32 32" xmlns="http://www.w3.org/2000/svg"><title>Icon_Lots of Classes</title><defs><linearGradient x1="83.926%" y1="16.101%" x2="13.216%" y2="86.821%" id="a"><stop stop-color="#2B87FF" offset="0%"/><stop stop-color="#134FFF" offset="100%"/></linearGradient></defs><g fill="none" fill-rule="evenodd"><rect fill="url(#a)" width="32" height="32" rx="2"/><path d="M14.211 8.484l-7.542 7.542 5.657 5.657 7.542-7.542V8.484h-5.657zm3.537 3.537a1.003 1.003 0 1 1-1.418-1.418 1.003 1.003 0 0 1 1.418 1.418z" fill="#FFF" fill-rule="nonzero" opacity=".4"/><path d="M19.678 10.891l-7.542 7.542 5.657 5.657 7.542-7.542v-5.657h-5.657zm3.538 3.537a1.002 1.002 0 1 1-1.418-1.416 1.002 1.002 0 0 1 1.418 1.416z" fill="#FFF" fill-rule="nonzero"/></g></svg>