<svg id="Layer_1" xmlns="http://www.w3.org/2000/svg" viewBox="0 0 184.4 149"><style>.st0{opacity:.2}.st1{fill:#fff}.st2{fill:#4e62f7}.st3{opacity:.3;fill:#fff}.st4{opacity:.35;fill:#091d35}.st5{fill:#d8e1e6}.st6{opacity:.35}.st7{fill:#091d35}.st8{fill:none;stroke:#4e62f7;stroke-width:2;stroke-miterlimit:10}.st9{opacity:.2;fill:#4e62f7}.st10{fill:none;stroke:#4e62f7;stroke-width:2.1328;stroke-miterlimit:10}.st11{opacity:.25;fill:#4e62f7}</style><path class="st5" d="M170.9 75.8H19.7c-.6 0-1-.4-1-1v-4c0-.6.4-1 1-1h151.2c.6 0 1 .4 1 1v4c0 .6-.4 1-1 1zm3.1 15.4H19.7c-.6 0-1-.4-1-1v-4c0-.6.4-1 1-1H174c.6 0 1 .4 1 1v4c0 .5-.5 1-1 1z"/><g class="st0"><path class="st1" d="M182 120H6.8c-1.3 0-2.4-.9-2.4-2V2c0-1.1 1.1-2 2.4-2H182c1.3 0 2.4.9 2.4 2v116c0 1.1-1.1 2-2.4 2z"/></g><path class="st1" d="M177.6 122.2H2.4c-1.3 0-2.4-.9-2.4-2V4.2c0-1.1 1.1-2 2.4-2h175.2c1.3 0 2.4.9 2.4 2v116c0 1.1-1.1 2-2.4 2z"/><path class="st4" d="M92.5 74.4c-3.7 0-6.7 3.1-6.7 7 0 3.8 3 7 6.7 7s6.7-3.1 6.7-7c-.1-3.9-3.1-7-6.7-7zm0 10.6c-1.9 0-3.5-1.6-3.5-3.6s1.6-3.6 3.5-3.6 3.5 1.6 3.5 3.6c-.1 2-1.6 3.6-3.5 3.6zm-49-10.4c-3.7 0-6.7 3.1-6.7 7 0 3.8 3 7 6.7 7s6.7-3.1 6.7-7-3-7-6.7-7zm0 10.6c-1.9 0-3.5-1.6-3.5-3.6s1.6-3.6 3.5-3.6 3.5 1.6 3.5 3.6-1.5 3.6-3.5 3.6zm59.9-8.3s.5-5.1-2.2-8c0 0-2.7-3.8-15.7-4.4 0 0-6.5-8.3-7.6-8.9 0 0-1.6-1.2-3-1.4H53.2s-5.5-.5-9 3.1c0 0-5.8 5.8-7.1 8.6 0 0-5.1 3.8-6.8 8.9-1.3.3-2.2 1.4-2.2 2.7 0 1.3 1 2.4 2.3 2.7.5.7 1.5 1.8 2.5 1.9h3c0-.3-.1-.7-.1-1 0-4.5 3.5-8.1 7.7-8.1 4.3 0 7.7 3.6 7.7 8.1 0 .3 0 .7-.1 1h33.6c0-.3-.1-.7-.1-1 0-4.5 3.5-8.1 7.7-8.1 4.3 0 7.7 3.6 7.7 8.1 0 .3 0 .7-.1 1h.4s2-.1 2.1-2.3c0 0 2.1.2 2.1-1.1.2 0 .6-1.6-1.1-1.8zM57.7 63.8c-.1 1.7-1.3 1.5-1.3 1.5h-9.7c-3-.5-1.9-2.3-1.9-2.3 3.5-7 11.6-6.1 11.6-6.1 1.1.1 1.3 1.1 1.3 1.1v5.8zm19.9 1.5H62.1c-1.6 0-2.2-1.4-2.2-1.4V59c.1-2.6 2.7-2 2.7-2h10.1c1.6 0 3 1.8 3 1.8l2.9 3.9c2.4 2.8-1 2.6-1 2.6zM164.2 43c0-3.9-3.1-7-7-7v-1.1c0-7.6-6.2-13.8-13.8-13.8-5.4 0-10.1 3.1-12.3 7.6-.3.1-.6.3-1 .4-1.1-.4-2.3-.7-3.6-.7-5.6 0-10.2 4.6-10.2 10.2 0 1.3.2 2.5.7 3.6-2.9 2-4.7 5.3-4.7 9 0 5.9 4.7 10.7 10.6 10.9-1.1.9-1.8 2.3-1.8 3.8 0 2.7 2.2 4.9 4.9 4.9 1.5 0 2.8-.7 3.7-1.7 1.3 1.4 3.1 2.2 5.1 2.2.8 0 1.6-.1 2.3-.4l-.5 17.3h5.3l-.5-18.6h.2c2.3 0 4.3-.8 6-2 .8.2 1.6.4 2.4.4 4.6 0 8.4-3.7 8.4-8.4 0-1.1-.2-2.1-.6-3v-.1c3-.2 5.4-2.7 5.4-5.8 0-1.1-.3-2.2-.9-3.1 1.2-1 1.9-2.7 1.9-4.6z"/></svg>