<svg id="Layer_1" xmlns="http://www.w3.org/2000/svg" viewBox="0 0 184.4 149"><style>.st0{opacity:.2}.st1{fill:#fff}.st2{fill:#4e62f7}.st3{opacity:.3;fill:#fff}.st4{opacity:.35;fill:#091d35}.st5{fill:#d8e1e6}.st6{opacity:.35}.st7{fill:#091d35}.st8{fill:none;stroke:#4e62f7;stroke-width:2;stroke-miterlimit:10}.st9{opacity:.2;fill:#4e62f7}.st10{fill:none;stroke:#4e62f7;stroke-width:2.1328;stroke-miterlimit:10}.st11{opacity:.25;fill:#4e62f7}</style><g class="st0"><path class="st1" d="M182 120H6.8c-1.3 0-2.4-.9-2.4-2V2c0-1.1 1.1-2 2.4-2H182c1.3 0 2.4.9 2.4 2v116c0 1.1-1.1 2-2.4 2z"/></g><path class="st1" d="M177.6 122.2H2.4c-1.3 0-2.4-.9-2.4-2V4.2c0-1.1 1.1-2 2.4-2h175.2c1.3 0 2.4.9 2.4 2v116c0 1.1-1.1 2-2.4 2z"/><path class="st4" d="M158.2 22.1H15.6c-.6 0-1-.4-1-1v-4c0-.6.4-1 1-1h142.7c.6 0 1 .4 1 1v4c-.1.6-.5 1-1.1 1zm-14.3 15.4H15.6c-.6 0-1-.4-1-1v-4c0-.6.4-1 1-1h128.3c.6 0 1 .4 1 1v4c0 .5-.5 1-1 1zm10.2 15.3H15.6c-.6 0-1-.4-1-1v-4c0-.6.4-1 1-1h138.5c.6 0 1 .4 1 1v4c0 .6-.5 1-1 1zm5.7 15.4H15.6c-.6 0-1-.4-1-1v-4c0-.6.4-1 1-1h144.2c.6 0 1 .4 1 1v4c0 .5-.5 1-1 1z"/></svg>