<svg width="186" height="150" viewBox="0 0 186 150" xmlns="http://www.w3.org/2000/svg"><title>blockFrames-01s</title><defs><linearGradient x1="83.926%" y1="16.101%" x2="16.089%" y2="83.948%" id="a"><stop stop-color="#2B87FF" offset="0%"/><stop stop-color="#134FFF" offset="100%"/></linearGradient></defs><g fill="none"><path d="M178.507 120.952H3.307c-1.3 0-2.4-.9-2.4-2v-116c0-1.1 1.1-2 2.4-2h175.2c1.3 0 2.4.9 2.4 2v116c0 1.1-1.1 2-2.4 2z" opacity=".2" fill="#FFF"/><path d="M182.907 123.152H7.707c-1.3 0-2.4-.9-2.4-2v-116c0-1.1 1.1-2 2.4-2h175.2c1.3 0 2.4.9 2.4 2v116c0 1.1-1.1 2-2.4 2z" fill="#FFF"/><path d="M171.5 149H18.3c-1.1 0-2-.9-2-2V98.6c0-1.1.9-2 2-2h153.2c1.1 0 2 .9 2 2V147c0 1.1-.9 2-2 2z" fill="url(#a)" transform="translate(.907 .952)"/><path d="M57.307 115.552l1.5 4.5c.1.3.4.5.7.5h4.7c.7 0 1 .9.4 1.3l-3.8 2.8c-.3.2-.4.5-.3.8l1.5 4.5c.2.7-.6 1.2-1.1.8l-3.8-2.8c-.3-.2-.6-.2-.9 0l-3.8 2.8c-.6.4-1.3-.1-1.1-.8l1.5-4.5c.1-.3 0-.6-.3-.8l-3.8-2.8c-.6-.4-.3-1.3.4-1.3h4.7c.3 0 .6-.2.7-.5l1.5-4.5c.1-.7 1-.7 1.3 0zm35.4 0l1.5 4.5c.1.3.4.5.7.5h4.7c.7 0 1 .9.4 1.3l-3.8 2.8c-.3.2-.4.5-.3.8l1.5 4.5c.2.7-.6 1.2-1.1.8l-3.8-2.8c-.3-.2-.6-.2-.9 0l-3.8 2.8c-.6.4-1.3-.1-1.1-.8l1.5-4.5c.1-.3 0-.6-.3-.8l-3.8-2.8c-.6-.4-.3-1.3.4-1.3h4.7c.3 0 .6-.2.7-.5l1.5-4.5c.1-.7 1-.7 1.3 0z" fill="#FFF"/><path d="M130.507 115.552l1.5 4.5c.1.3.4.5.7.5h4.7c.7 0 1 .9.4 1.3l-3.8 2.8c-.3.2-.4.5-.3.8l1.5 4.5c.2.7-.6 1.2-1.1.8l-3.8-2.8c-.3-.2-.6-.2-.9 0l-3.8 2.8c-.6.4-1.3-.1-1.1-.8l1.5-4.5c.1-.3 0-.6-.3-.8l-3.8-2.8c-.6-.4-.3-1.3.4-1.3h4.7c.3 0 .6-.2.7-.5l1.5-4.5c.1-.7 1-.7 1.3 0z" fill="#FFF" opacity=".3"/><path d="M159.107 23.052h-142.6c-.6 0-1-.4-1-1v-4c0-.6.4-1 1-1h142.7c.6 0 1 .4 1 1v4c-.1.6-.5 1-1.1 1z" fill="#091D35" opacity=".35"/><path d="M143.9 37.5H15.6c-.6 0-1-.4-1-1v-4c0-.6.4-1 1-1h128.3c.6 0 1 .4 1 1v4c0 .5-.5 1-1 1z" fill="url(#a)" transform="translate(.907 .952)"/><path d="M155.007 53.752h-138.5c-.6 0-1-.4-1-1v-4c0-.6.4-1 1-1h138.5c.6 0 1 .4 1 1v4c0 .6-.5 1-1 1zm5.7 15.4h-144.2c-.6 0-1-.4-1-1v-4c0-.6.4-1 1-1h144.2c.6 0 1 .4 1 1v4c0 .5-.5 1-1 1z" fill="#091D35" opacity=".35"/></g></svg>