<svg width="185" height="149" viewBox="0 0 185 149" xmlns="http://www.w3.org/2000/svg"><title>blockFrames-04s</title><defs><linearGradient x1="83.926%" y1="16.101%" x2="16.089%" y2="83.948%" id="a"><stop stop-color="#2B87FF" offset="0%"/><stop stop-color="#134FFF" offset="100%"/></linearGradient></defs><g fill="none"><path d="M177.6 120H2.4c-1.3 0-2.4-.9-2.4-2V2C0 .9 1.1 0 2.4 0h175.2c1.3 0 2.4.9 2.4 2v116c0 1.1-1.1 2-2.4 2z" opacity=".2" fill="#FFF"/><path d="M182 122.2H6.8c-1.3 0-2.4-.9-2.4-2V4.2c0-1.1 1.1-2 2.4-2H182c1.3 0 2.4.9 2.4 2v116c0 1.1-1.1 2-2.4 2z" fill="#FFF"/><path d="M170 149H16.8c-1.1 0-2-.9-2-2V98.6c0-1.1.9-2 2-2H170c1.1 0 2 .9 2 2V147c0 1.1-.9 2-2 2z" fill="url(#a)"/><path d="M28.6 18.5c-3.5 0-6.7.9-6.9 7-.6.3-1 .9-.9 2.2.1 1.4.9 2.1 1.7 2.3 1.1 2.8 3.4 5 6.1 5h.1c2.7 0 5-2.3 6.1-5 .8-.2 1.5-.8 1.7-2.3.1-1.3-.3-2-.9-2.2-.2-6.1-3.4-7-7-7zm5.6 15.8L30.7 38c-.5.6-1.3.9-2 .9-.8 0-1.5-.3-2-.9l-3.4-3.7-1.1.3c-3.4.9-5.8 4-5.8 7.5v4.7c0 .9.7 1.7 1.6 1.7h21.6c.9 0 1.7-.7 1.7-1.7v-4.7c0-3.5-2.4-6.6-5.8-7.5l-1.3-.3zm112.4-4.7h-93c-.6 0-1-.4-1-1v-4c0-.6.4-1 1-1h93c.6 0 1 .4 1 1v4c0 .6-.5 1-1 1zm4.6 15.4H53.6c-.6 0-1-.4-1-1v-4c0-.6.4-1 1-1h97.6c.6 0 1 .4 1 1v4c0 .5-.5 1-1 1zm15.4 20.5H17.3c-.6 0-1-.4-1-1v-4c0-.6.4-1 1-1h149.3c.6 0 1 .4 1 1v4c0 .5-.4 1-1 1zm-4.4 16.3H17.3c-.6 0-1-.4-1-1v-4c0-.6.4-1 1-1h144.9c.6 0 1 .4 1 1v4c0 .6-.4 1-1 1z" fill="#091D35" opacity=".35"/><path d="M37.9 130c-4.5 0-8.2-3.7-8.2-8.2 0-4.5 3.7-8.2 8.2-8.2 4.5 0 8.2 3.7 8.2 8.2-.1 4.5-3.7 8.2-8.2 8.2z" fill="#FFF"/><path d="M36.8 124.8c-.2 0-.4-.1-.5-.2l-2.2-2.2c-.3-.3-.3-.8 0-1 .3-.3.8-.3 1 0l2.2 2.2c.3.3.3.8 0 1-.2.1-.3.2-.5.2z" fill="#4E62F7"/><path d="M36.8 124.8c-.2 0-.4-.1-.5-.2-.3-.3-.3-.8 0-1l4.5-4.5c.3-.3.8-.3 1 0 .3.3.3.8 0 1l-4.5 4.5c-.2.1-.3.2-.5.2z" fill="#4E62F7"/><path d="M156 124.8H58.3c-.6 0-1-.4-1-1v-4c0-.6.4-1 1-1H156c.6 0 1 .4 1 1v4c0 .6-.5 1-1 1z" fill="#FFF"/></g></svg>