<svg width="185" height="149" viewBox="0 0 185 149" xmlns="http://www.w3.org/2000/svg"><title>blockFrames-02s</title><defs><linearGradient x1="83.926%" y1="16.101%" x2="16.089%" y2="83.948%" id="a"><stop stop-color="#2B87FF" offset="0%"/><stop stop-color="#134FFF" offset="100%"/></linearGradient></defs><g fill="none"><path d="M170.9 75.8H19.7c-.6 0-1-.4-1-1v-4c0-.6.4-1 1-1h151.2c.6 0 1 .4 1 1v4c0 .6-.4 1-1 1zm3.1 15.4H19.7c-.6 0-1-.4-1-1v-4c0-.6.4-1 1-1H174c.6 0 1 .4 1 1v4c0 .5-.5 1-1 1z" fill="#D8E1E6"/><path d="M177.6 120H2.4c-1.3 0-2.4-.9-2.4-2V2C0 .9 1.1 0 2.4 0h175.2c1.3 0 2.4.9 2.4 2v116c0 1.1-1.1 2-2.4 2z" opacity=".2" fill="#FFF"/><path d="M182 122.2H6.8c-1.3 0-2.4-.9-2.4-2V4.2c0-1.1 1.1-2 2.4-2H182c1.3 0 2.4.9 2.4 2v116c0 1.1-1.1 2-2.4 2z" fill="#FFF"/><path d="M171.5 149H18.3c-1.1 0-2-.9-2-2V98.6c0-1.1.9-2 2-2h153.2c1.1 0 2 .9 2 2V147c0 1.1-.9 2-2 2z" fill="url(#a)"/><path d="M139.4 125.2H68.9c-.6 0-1-.4-1-1v-4c0-.6.4-1 1-1h70.4c.6 0 1 .4 1 1v4c.1.6-.4 1-.9 1zm-93-13l-11.6 11.6c-.3.3-.3.7 0 .9l8.4 8.4c.3.3.7.3.9 0l11.6-11.6-.5-8.9-8.8-.4zm4.5 7.8c-.8.8-2.2.8-3 0-.8-.8-.8-2.2 0-3 .8-.8 2.2-.8 3 0 .9.8.9 2.2 0 3z" fill="#FFF"/><path d="M87 20.738c.6 0 1.2.2 1.7.6 16.8 11.5 17.3 13.2 37.3 17 4.5.5 5.7 4.1 4.8 7.6 0 .6-.3 1.3-1 1.6-18.9 1.6-30.3 0-52.9-1.7-7.2-.6-14.4-1.2-21.7-1.8-1.5-5.9-1.5-12.5.3-18.3.9-2.6 2.7-4.4 3.6-3.5 5.5 10.5 20 10.5 25.4 0 .6-1.2 1.5-1.6 2.5-1.5zm-30.5 25.1l20.2 1.7c22.5 1.7 34.1 3.3 52.9 1.7.6 1.1.7 1.9-3.6 1.9-19.1 1.8-26.4 1.8-50.9 0v1.6l-15.4.1c-2.7 0-2.7-4.4-2.7-5.3-.1-.6-.4-1.2-.5-1.7zM160.3 72.9H33.1c-.6 0-1-.4-1-1v-4c0-.6.4-1 1-1h127.3c.6 0 1 .4 1 1v4c-.1.6-.5 1-1.1 1z" opacity=".35" fill="#091D35"/></g></svg>