<svg id="Layer_1" xmlns="http://www.w3.org/2000/svg" viewBox="0 0 184.4 149"><style>.st0{fill:#d8e1e6}.st1{opacity:.2}.st2{fill:#fff}.st3{opacity:.35}.st4{fill:#091d35}</style><path class="st0" d="M170.9 75.8H19.7c-.6 0-1-.4-1-1v-4c0-.6.4-1 1-1h151.2c.6 0 1 .4 1 1v4c0 .6-.4 1-1 1zm3.1 15.4H19.7c-.6 0-1-.4-1-1v-4c0-.6.4-1 1-1H174c.6 0 1 .4 1 1v4c0 .5-.5 1-1 1z"/><g class="st1"><path class="st2" d="M182 120H6.8c-1.3 0-2.4-.9-2.4-2V2c0-1.1 1.1-2 2.4-2H182c1.3 0 2.4.9 2.4 2v116c0 1.1-1.1 2-2.4 2z"/></g><path class="st2" d="M177.6 122.2H2.4c-1.3 0-2.4-.9-2.4-2V4.2c0-1.1 1.1-2 2.4-2h175.2c1.3 0 2.4.9 2.4 2v116c0 1.1-1.1 2-2.4 2z"/><g class="st3"><path class="st4" d="M77.2 59.7h28.3c1.8-5.2 6.5-10.8 12.5-10.9-.7-4.6-4.5-8.2-9.2-8.2H74c-4.7 0-8.6 3.6-9.2 8.2 5.9.1 10.7 5.7 12.4 10.9zm41.2 1.7c2.8-.2 5.1-2.6 5.1-5.5 0-3-2.4-5.4-5.4-5.4-.5 0-1 .1-1.5.2-.1 0-.2 0-.2.1-2.1.5-3.9 1.8-5.3 3.5l-.2.2c-.2.3-.5.6-.7.9-.2.2-.3.5-.5.7-.6.9-1 1.7-1.4 2.6-.4.9-.7 1.9-.8 2.7H75.2c-.2-.8-.4-1.8-.8-2.7-.4-.9-.9-1.8-1.4-2.6-.2-.2-.3-.5-.5-.7-.2-.3-.4-.6-.7-.9l-.2-.2c-1.5-1.7-3.3-3-5.3-3.5-.1 0-.2 0-.2-.1-.5-.1-1-.2-1.5-.2-3 0-5.4 2.4-5.4 5.4 0 2.9 2.3 5.3 5.1 5.4-2.8.1-5.1 2.5-5.1 5.4 0 3 2.4 5.4 5.4 5.4v4.1c0 2.3 1.8 4.1 4 4.1h2.7c2.2 0 4-1.8 4-4.1v-4.1h32.1v4.1c0 2.3 1.8 4.1 4 4.1h2.7c2.2 0 4-1.8 4-4.1v-4.1c3 0 5.4-2.4 5.4-5.4 0-2.7-2.3-5.1-5.1-5.3z"/></g></svg>