<svg id="Layer_1" xmlns="http://www.w3.org/2000/svg" viewBox="0 0 184.4 149"><style>.st0{opacity:.2}.st1{fill:#fff}.st2{fill:#4e62f7}.st3{opacity:.3;fill:#fff}.st4{opacity:.35;fill:#091d35}.st5{fill:#d8e1e6}.st6{opacity:.35}.st7{fill:#091d35}.st8{fill:none;stroke:#4e62f7;stroke-width:2;stroke-miterlimit:10}.st9{opacity:.2;fill:#4e62f7}.st10{fill:none;stroke:#4e62f7;stroke-width:2.1328;stroke-miterlimit:10}.st11{opacity:.25;fill:#4e62f7}</style><path class="st5" d="M170.9 75.8H19.7c-.6 0-1-.4-1-1v-4c0-.6.4-1 1-1h151.2c.6 0 1 .4 1 1v4c0 .6-.4 1-1 1zm3.1 15.4H19.7c-.6 0-1-.4-1-1v-4c0-.6.4-1 1-1H174c.6 0 1 .4 1 1v4c0 .5-.5 1-1 1z"/><g class="st0"><path class="st1" d="M182 120H6.8c-1.3 0-2.4-.9-2.4-2V2c0-1.1 1.1-2 2.4-2H182c1.3 0 2.4.9 2.4 2v116c0 1.1-1.1 2-2.4 2z"/></g><path class="st1" d="M177.6 122.2H2.4c-1.3 0-2.4-.9-2.4-2V4.2c0-1.1 1.1-2 2.4-2h175.2c1.3 0 2.4.9 2.4 2v116c0 1.1-1.1 2-2.4 2z"/><g class="st6"><path class="st7" d="M82.5 980.3c.6 0 1.2.2 1.7.6 16.8 11.5 17.3 13.2 37.3 17 4.5.5 5.7 4.1 4.8 7.6 0 .6-.3 1.3-1 1.6-18.9 1.6-30.3 0-52.9-1.7-7.2-.6-14.4-1.2-21.7-1.8-1.5-5.9-1.5-12.5.3-18.3.9-2.6 2.7-4.4 3.6-3.5 5.5 10.5 20 10.5 25.4 0 .6-1.1 1.5-1.5 2.5-1.5zM52 1005.5l20.2 1.7c22.5 1.7 34.1 3.3 52.9 1.7.6 1.1.7 1.9-3.6 1.9-19.1 1.8-26.4 1.8-50.9 0v1.6l-15.4.1c-2.7 0-2.7-4.4-2.7-5.3-.1-.6-.3-1.2-.5-1.7z" transform="translate(0 -952.362)"/></g><path class="st4" d="M155.8 80.2H28.6c-.6 0-1-.4-1-1v-4c0-.6.4-1 1-1h127.3c.6 0 1 .4 1 1v4c-.1.5-.5 1-1.1 1z"/></svg>