<svg id="Layer_1" xmlns="http://www.w3.org/2000/svg" viewBox="0 0 184.4 149"><style>.st0{opacity:.2}.st1{fill:#fff}.st2{fill:#4e62f7}.st3{opacity:.3;fill:#fff}.st4{opacity:.35;fill:#091d35}.st5{fill:#d8e1e6}.st6{opacity:.35}.st7{fill:#091d35}.st8{fill:none;stroke:#4e62f7;stroke-width:2;stroke-miterlimit:10}.st9{opacity:.2;fill:#4e62f7}.st10{fill:none;stroke:#4e62f7;stroke-width:2.1328;stroke-miterlimit:10}.st11{opacity:.25;fill:#4e62f7}.st12{fill:none;stroke:#4e62f7;stroke-width:2.1871;stroke-miterlimit:10}</style><g class="st0"><path class="st1" d="M182.3 120H7.1c-1.3 0-2.4-.9-2.4-2V2c0-1.1 1.1-2 2.4-2h175.2c1.3 0 2.4.9 2.4 2v116c0 1.1-1.1 2-2.4 2z"/></g><path class="st1" d="M177.3 122.2H2.1c-1.3 0-2.4-.9-2.4-2V4.2c0-1.1 1.1-2 2.4-2h175.2c1.3 0 2.4.9 2.4 2v116c0 1.1-1 2-2.4 2z"/><path class="st4" d="M28.6 18.5c-3.5 0-6.7.9-6.9 7-.6.3-1 .9-.9 2.2.1 1.4.9 2.1 1.7 2.3 1.1 2.8 3.4 5 6.1 5h.1c2.7 0 5-2.3 6.1-5 .8-.2 1.5-.8 1.7-2.3.1-1.3-.3-2-.9-2.2-.2-6.1-3.4-7-7-7zm5.6 15.8L30.7 38c-.5.6-1.3.9-2 .9-.8 0-1.5-.3-2-.9l-3.4-3.7-1.1.3c-3.4.9-5.8 4-5.8 7.5v4.7c0 .9.7 1.7 1.6 1.7h21.6c.9 0 1.7-.7 1.7-1.7v-4.7c0-3.5-2.4-6.6-5.8-7.5l-1.3-.3zm112.4-4.7h-93c-.6 0-1-.4-1-1v-4c0-.6.4-1 1-1h93c.6 0 1 .4 1 1v4c0 .6-.5 1-1 1zm4.6 15.4H53.6c-.6 0-1-.4-1-1v-4c0-.6.4-1 1-1h97.6c.6 0 1 .4 1 1v4c0 .5-.5 1-1 1zm15.4 20.5H17.3c-.6 0-1-.4-1-1v-4c0-.6.4-1 1-1h149.3c.6 0 1 .4 1 1v4c0 .5-.4 1-1 1zm-4.4 15.3H17.3c-.6 0-1-.4-1-1v-4c0-.6.4-1 1-1h144.9c.6 0 1 .4 1 1v4c0 .6-.4 1-1 1z"/></svg>