<svg width="185" height="149" viewBox="0 0 185 149" xmlns="http://www.w3.org/2000/svg"><title>blockFrames-05s</title><defs><linearGradient x1="83.926%" y1="16.101%" x2="16.089%" y2="83.948%" id="a"><stop stop-color="#2B87FF" offset="0%"/><stop stop-color="#134FFF" offset="100%"/></linearGradient></defs><g fill="none" fill-rule="evenodd"><path d="M174 91.2H19.7c-.6 0-1-.4-1-1v-4c0-.6.4-1 1-1H174c.6 0 1 .4 1 1v4c0 .5-.5 1-1 1z" fill="#D8E1E6" fill-rule="nonzero"/><path d="M177.6 120H2.4c-1.3 0-2.4-.9-2.4-2V2C0 .9 1.1 0 2.4 0h175.2c1.3 0 2.4.9 2.4 2v116c0 1.1-1.1 2-2.4 2z" opacity=".2" fill="#FFF" fill-rule="nonzero"/><path d="M182 122.2H6.8c-1.3 0-2.4-.9-2.4-2V4.2c0-1.1 1.1-2 2.4-2H182c1.3 0 2.4.9 2.4 2v116c0 1.1-1.1 2-2.4 2z" fill="#FFF" fill-rule="nonzero"/><path d="M171.5 149H18.3c-1.1 0-2-.9-2-2V98.6c0-1.1.9-2 2-2h153.2c1.1 0 2 .9 2 2V147c0 1.1-.9 2-2 2z" fill="url(#a)" fill-rule="nonzero"/><path d="M62.7 125.2H33.3c-.6 0-1-.4-1-1v-4c0-.6.4-1 1-1h29.4c.6 0 1 .4 1 1v4c0 .6-.4 1-1 1zm96.5 0H72.9c-.6 0-1-.4-1-1v-4c0-.6.4-1 1-1h86.4c.6 0 1 .4 1 1v4c-.1.6-.5 1-1.1 1z" fill="#FFF" fill-rule="nonzero"/><path d="M77.2 57.7h28.3c1.8-5.2 6.5-10.8 12.5-10.9-.7-4.6-4.5-8.2-9.2-8.2H74c-4.7 0-8.6 3.6-9.2 8.2 5.9.1 10.7 5.7 12.4 10.9zm41.2 2.7c2.8-.2 5.1-2.6 5.1-5.5 0-3-2.4-5.4-5.4-5.4-.5 0-1 .1-1.5.2-.1 0-.2 0-.2.1-2.1.5-3.9 1.8-5.3 3.5l-.2.2c-.2.3-.5.6-.7.9-.2.2-.3.5-.5.7-.6.9-1 1.7-1.4 2.6-.4.9-.7 1.9-.8 2.7H75.2c-.2-.8-.4-1.8-.8-2.7-.4-.9-.9-1.8-1.4-2.6-.2-.2-.3-.5-.5-.7-.2-.3-.4-.6-.7-.9l-.2-.2c-1.5-1.7-3.3-3-5.3-3.5-.1 0-.2 0-.2-.1-.5-.1-1-.2-1.5-.2-3 0-5.4 2.4-5.4 5.4 0 2.9 2.3 5.3 5.1 5.4-2.8.1-5.1 2.5-5.1 5.4 0 3 2.4 5.4 5.4 5.4v4.1c0 2.3 1.8 4.1 4 4.1h2.7c2.2 0 4-1.8 4-4.1v-4.1h32.1v4.1c0 2.3 1.8 4.1 4 4.1h2.7c2.2 0 4-1.8 4-4.1v-4.1c3 0 5.4-2.4 5.4-5.4 0-2.7-2.3-5.1-5.1-5.3z" opacity=".35" fill="#091D35" fill-rule="nonzero"/><path stroke="#134FFF" stroke-width="2.133" d="M61.4 74.1l.9 5.3 2.1 2 3 1.2h3.2l2.6-1.2 1.6-2 .7-2v-3.3h31.6l.6 4.2 1.2 2 1.9 1.7 2.7.6h3l2.1-1.2 1.1-1.6 1-1.5v-2.5l-.2-1.7 2.6-1.4 1.7-1.7 1-1.7.5-2.4-.3-1.7-.8-1.6-1.4-1.9-1.5-.5 1.6-.9 1.7-2.1.7-2.4v-2l-.7-1.3-.7-1.5-1.4-1.2-1.9-.9-.9-2.3-.8-2.4-1.2-2-1.5-1.9-1.5-1.3-1.6-.9-1.9-.6-2.1-.4-3-.1h-4.6l-2.9-.2H72.7l-1.6.3-1.8.5-1.6.5-1.9 1.2-1.2 1.4-1 1.4-1.3 2.5-.5 2.2-.4 1.8-1.6.9-1.5 1-1.1 1.3-.7 2.2.3 2.7 1 2.1 1 .9.7.5-.1.5-.7.7-1 1.2-.8 1.1-.4 1.6V67l.4 1.3.6 1.3.7.7.7 1 1 .9.8.2.8.4z"/><path fill="#134FFF" fill-rule="nonzero" opacity=".25" d="M63.2 73.2l.9 5 2 1.8 2.8 1.2h3l2.4-1.2 1.5-1.8.7-1.9v-3.1h29.6l.6 4 1.1 1.8 1.8 1.6 2.6.6h2.7l2-1.2 1-1.5.9-1.3v-2.4l-.1-1.6 2.4-1.3 1.6-1.6 1-1.6.4-2.2-.3-1.6-.7-1.5-1.3-1.8-1.4-.5 1.5-.9 1.5-1.9.7-2.3v-1.8l-.7-1.2-.6-1.5-1.3-1.1-1.7-.9-1-2.1-.6-2.2-1.2-1.9-1.4-1.8-1.4-1.2-1.5-.9-1.8-.5-1.9-.4-2.9-.1h-4.3l-2.7-.2H73.9l-1.6.3-1.6.5-1.6.4-1.7 1.2-1.1 1.3-.9 1.3-1.3 2.4-.4 2.1-.5 1.6-1.4.8-1.4 1-1 1.2-.7 2.1.2 2.5 1 2 1 .8.6.4-.1.6-.7.6-.9 1.1-.7 1.1-.4 1.4v1.6l.3 1.3.6 1.2.7.7.7.9.8.8.8.2.8.4z"/></g></svg>