<svg id="Layer_1" xmlns="http://www.w3.org/2000/svg" viewBox="0 0 200 80"><style/><path class="st0" d="M59.7 20.3c2.6-.1 5.3-.2 7.9.2 1 .2 2.1.4 2.7 1.2.7 1 .7 2.4.9 3.6h-4.4l-.5-1.3c-2.5-.2-4.9-.2-7.4 0l-.4.9.4.9c3.5.6 7.2-.1 10.4 1 1.3.4 1.8 1.6 2 2.9.2 1.4.2 3.2-.8 4.3-.7.9-2 1.1-3.1 1.2-2.9.3-5.9.3-8.9.1-1.1-.1-2.5-.2-3.5-.8-1.2-1-1.2-2.8-1.4-4.2 1.5 0 2.9 0 4.4.1.4.6.4 1.4 1.1 1.4 2.4.3 4.9.1 7.4.1l.1-1.7c-3.6-.8-7.5.1-10.9-1-1.4-.5-1.7-2.1-1.8-3.4-.1-1.5 0-3.3 1.3-4.3 1.5-1 3.2-1.1 4.5-1.2zm13.5.3h17.5v3.7h-6.4v10.8h-4.5V24.3h-6.4l-.2-3.7zm22.8.1c2.5-.3 5.2 0 7.7-.1 2.4 4.8 4.8 9.7 7.2 14.5h-5.2c-.4-.8-.8-1.6-1.4-2.3-1.3-.3-2.8-.2-4.2-.2-1.5 0-3.1-.2-4.6.1-.7.6-1.1 1.5-1.5 2.3h-5.2c1.9-3.8 3.8-7.5 5.6-11.3.5-1 .9-2.1 1.6-3zm4.7 3c-.3.2-.7.3-.9.6-.8 1.5-1.4 3.1-2.2 4.6h5.5c-.8-1.8-1.5-3.5-2.4-5.2zm11.3-3.1c2.3-.2 4.7 0 7-.1 2.4 0 4.8-.1 7.2 0 1.2.1 2.4.5 2.9 1.7.6 1.4.6 3.2.2 4.6-.2.9-1 1.4-1.5 2 .7.6 1.5.9 1.7 1.8.2 1.4.1 2.9.1 4.4h-4.5c0-1.1.1-2.4-.2-3.5-.5-.6-1.2-.5-1.9-.6h-6.5V35h-4.4c-.1-4.7-.3-9.6-.1-14.4zm4.3 3.7v2.9c2.7-.1 5.5.2 8.1-.1.6-.5.5-1.7.3-2.4-.6-.5-1.2-.4-1.9-.4-2.1-.1-4.3 0-6.5 0zm20.2-3.9c2.6-.2 5.3-.2 7.9.1 1 .1 2.3.2 3 .9 1.1 1 1.1 2.6 1.2 4h-4.4l-.5-1.4c-2.5-.2-5-.2-7.5 0v1.7c3.1.5 6.3.1 9.4.6 1.2.2 2.3.7 2.8 1.9.6 1.5.6 3.6 0 5-.6 1.3-1.7 1.6-3 1.8-3.2.4-6.5.3-9.7.1-1-.1-2.5-.2-3.3-1-1-1-1-2.7-1.2-4.1 1.5 0 2.9 0 4.4.1l.6 1.2c1 .4 2.3.3 3.4.3 1.5 0 3.1.1 4.5-.2.1-.5.1-1 .1-1.6-3.4-.7-6.7-.1-10-.8-.7-.2-1.5-.4-1.9-1-.7-1-.8-2.5-.8-3.8 0-1.1.4-2.5 1.4-3.2 1-.4 2.4-.5 3.6-.6zm14.8.2c1.4-.2 2.9-.1 4.4-.1v5.1h2.3l5.1-5.1h6.2c-2.5 2.3-4.8 4.6-7.2 6.9 2.7 2.6 5.5 5 8.1 7.6-1.9 0-3.8.1-5.7 0-.9 0-1.3-.6-1.9-1.2l-4.5-4.5h-2.3V35h-4.5c-.1-3.1 0-6.1 0-9.2-.1-1.6-.3-3.5 0-5.2zm18.1 0c2 .1 4-.2 6 .1 1.1.9 1.8 2.2 2.8 3.3.8.9 1.4 1.9 1.7 3.1.7-2.4 2.9-4.3 4.4-6.4h5.8l.2.2-8.1 9.3v5.1h-4.6c-.1-1.7.2-3.4-.1-5.1-.5-1-1.4-1.7-2.1-2.6-2-2.4-4-4.7-6-7zM22.8 13.2c.6.2 1.2.6 1.7.9L38 21.9c.5.3 1.1.6 1.6 1 .1.3.1.7.1 1v4.3c0 2.3.2 4.7 0 7l-9-5.1c0-.6.1-1.2.2-1.8-1-.6-2.1-1.2-3.1-1.8-1.7-1-3.3-2-5-2.9-2.5 1.4-4.9 2.9-7.3 4.4-.2.2-.5.3-.7.5-.1.8 0 1.7 0 2.5.1 2.1.1 4.1.1 6.2 0 .2 0 .4.2.5.5.4 1 .6 1.5.9 2.1 1.2 4.1 2.3 6.2 3.5V52c-.8-.4-1.5-.8-2.3-1.2-4.8-2.7-9.6-5.5-14.5-8.2V23.2c5.4-3.2 10.8-6.4 16.2-9.5.1-.3.3-.5.6-.5z"/><path class="st0" d="M53.8 45.3c4.4-.1 8.7 0 13.1 0 1.4 0 3.1.1 4.1 1.3 1 1.4.8 3.5.5 5.1-.2 1-.9 1.4-1.6 2 .6.5 1.6.8 1.7 1.7.3 1.5.1 3 .1 4.5h-4.5c0-1.1.1-2.3-.2-3.3-.4-.8-1.1-.7-1.9-.8h-6.5v4.1h-4.5c0-4.8.1-9.6 0-14.4l-.3-.2zm4.7 3.7v3c2.5 0 5.1.1 7.6 0 1.1 0 1.1-1.4.9-2.2-.3-.7-.9-.6-1.6-.7-2.3-.1-4.6-.1-6.9-.1zm19.3-3.7c3.6-.3 7.5-.4 11.1.1 1.2.2 2.8.4 3.3 1.7.7 1.7.7 3.9.7 5.7 0 1.7 0 3.7-.7 5.4-.5 1.2-1.9 1.4-3 1.6-3.4.4-6.8.4-10.2.2-1.4-.1-3.1-.2-4.2-1.2-.8-.8-.9-2-1-3.1-.2-2.2-.1-4.4.1-6.6.2-.9.3-2.2 1.1-2.9.6-.6 1.9-.8 2.8-.9zm2.1 3.8c-1.3.1-1.2 1.7-1.3 2.6 0 1.3-.2 3 .6 4.1 1.6.6 3.5.4 5.2.5 1.3-.1 2.9.1 4-.6.6-1.3.5-3 .5-4.4-.1-.8-.1-2.1-1.1-2.2-2.5-.4-5.3-.4-7.9 0zm14-3.8H107c1.3 0 2.9.1 3.7 1.3 1.1 1.8 1 4.3-.5 5.9.7.7 1.4 1.2 1.6 2.3.2 1.3.2 3.1-.7 4.1-.9 1-2.6 1.1-3.8 1.1H93.8l.1-14.7zm4.6 3.5v2c2.7 0 5.5.1 8.3 0 1-.1 1-1 .6-1.7-.7-.3-1.6-.2-2.4-.2-2.3-.1-4.4-.1-6.5-.1zm-.1 5.2v2.3h7.5c.4 0 1 0 1.3-.4.4-.4.3-1.2 0-1.6-.5-.3-1.1-.3-1.7-.3h-7.1zm18.1-8.5c3.7-.6 7.6-.5 11.3-.2 1.2.2 2.9.3 3.7 1.2.9 1.3.9 3.3 1 4.8 0 2.1.1 4.6-.6 6.6-.5 1.4-1.9 1.5-3.1 1.7-3.3.4-6.7.4-10 .2-1.4-.1-3.2-.1-4.3-1.1-.9-.8-1-1.8-1.1-2.9-.2-1.9-.2-3.8 0-5.7.1-1.2.2-2.6.8-3.6.5-.6 1.5-.9 2.3-1zm2.5 3.6c-1.1.2-1.1 1.4-1.2 2.2 0 1.4-.2 3.3.5 4.5.9.4 2.1.4 3 .5 1.6 0 3.3.1 5-.2.6-.2 1.3-.1 1.5-.9.4-1.4.4-4 0-5.4-.2-.8-1.1-.8-1.8-1-2.3 0-4.7-.1-7 .3zm14.6-3.8H151V49h-6.4v10.8H140V49h-6.4v-3.7zm18.4 0h4.5v14.6H152V45.3zm10.3-.1c3-.2 6-.2 9 .1 1 .2 2.4.3 3.2 1.1.9 1.1.9 3.1 1 4.5h-4.4c-.3-.7-.3-1.5-1.1-1.7-1.9-.5-3.9-.4-5.8-.2-.6.1-1.7.1-1.8.9-.3 1-.3 2.2-.3 3.3 0 .9.1 1.9.5 2.7 1.2.6 2.8.4 4.1.5 1.2 0 2.7.1 3.8-.5.4-.4.5-1 .7-1.6h4.4c-.1 1.3-.1 2.9-.7 4.1-.5.9-1.6 1.1-2.5 1.3-2.5.4-5.2.4-7.7.3-1.7-.1-3.5-.2-5.1-.8-1.1-.4-1.4-1.6-1.6-2.6-.4-2.3-.4-4.8-.2-7.1.1-1 .3-2.5 1.1-3.3.7-.7 2.2-.8 3.4-1zm19 0c2.7-.2 5.5-.2 8.3 0 1 .1 2.5.2 3.2 1.1.9 1 .9 2.5 1 3.8h-4.4c-.2-.4-.4-.9-.6-1.3-1.1-.3-2.4-.2-3.6-.2-1.2 0-2.5-.1-3.7.2-.7.6-.3 1.7.6 1.7 3 .5 6.9-.2 9.9.9 1.4.5 1.8 1.8 2 3.2.1 1.3.1 3.2-1 4.2-.8.9-2.4 1-3.5 1.1-2.9.2-6 .2-9 0-1-.1-2.4-.2-3.1-1.1-.9-1-.9-2.7-1-3.9h4.4c.2.5.4.9.6 1.4 1 .3 2.1.2 3.1.3 1.6 0 3.2.1 4.7-.2.5-.6.4-.9.1-1.6-.8-.4-1.7-.4-2.6-.4-2.5-.1-5.4.1-7.9-.6-1.4-.3-1.9-1.5-2-2.8-.2-1.4-.2-3.3.8-4.5.8-1.1 2.4-1.2 3.7-1.3zM23.1 28c.8.4 1.6.9 2.4 1.3 4.3 2.5 8.7 4.9 13 7.4.4.2.9.5 1.3.8.1.2.1.5.1.7v18.7l-16.2 9.6c-.2.1-.4.3-.6.2-.6-.2-1.1-.6-1.6-.9-4.9-2.8-9.9-5.6-14.8-8.5-.2-.1-.3-.2-.5-.4-.1-.6 0-1.2 0-1.8 0-3.4 0-6.8-.1-10.2 1 .4 2 1 2.9 1.5 2 1.1 4.1 2.1 6.1 3.2-.1.7-.1 1.3-.2 2 2.3 1.4 4.7 2.8 7 4.1.4.2.7.5 1.1.6.2-.1.5-.2.7-.3l6-3.6c.5-.3 1-.5 1.4-.9.1-.4.1-.8.1-1.2 0-1.6 0-3.2-.1-4.8 0-1 0-2.1-.1-3.1 0-.3-.4-.4-.6-.6-2.2-1.2-4.5-2.5-6.7-3.8-.2-.1-.5-.2-.6-.5-.1-.8 0-1.6 0-2.4 0-2.1-.1-4.6 0-7.1z"/></svg>