<svg id="Layer_1" xmlns="http://www.w3.org/2000/svg" viewBox="0 0 211 40"><style>.st0,.st1{fill:#221e1f;stroke:#221e1f;stroke-width:3.115421e-3}.st1{fill:#aeaf85;stroke:#aeaf85}</style><path id="Fill-1" d="M64.9 13.1l-2.3-5.3-2.5 5.3h4.8zm-7.4 5.8h-4.9l7.5-14.5h5.4l7.2 14.5h-5.4l-1.1-2.6h-7.5l-1.2 2.6z"/><path id="Fill-2" d="M73.4 4.4h4.7v14.5h-4.7V4.4z"/><path id="Fill-3" d="M80.9 8.8h4.7v10.1h-4.7V8.8zm0-4.4h4.7v3h-4.7v-3z"/><path id="Fill-4" d="M97.5 13.9c0-.9-.2-1.6-.6-2.1-.4-.5-1-.8-1.7-.8-.8 0-1.4.2-1.8.7-.4.5-.6 1.2-.6 2.2 0 .9.2 1.6.6 2.1.4.5 1 .7 1.7.7s1.3-.3 1.7-.8c.5-.5.7-1.1.7-2m-9.3-9.5h4.7v5.8c.6-.6 1.2-1 1.9-1.3.7-.3 1.4-.4 2.3-.4 1.6 0 2.9.5 3.8 1.5 1 1 1.4 2.4 1.4 4 0 1.5-.5 2.7-1.4 3.7-1 .9-2.2 1.4-3.8 1.4-.9 0-1.7-.2-2.4-.5s-1.3-.8-1.8-1.4v.9c0 .3-.1.5-.1.7H88c.1-.2.1-.4.1-.7v-1l.1-12.7"/><path id="Fill-5" d="M112.5 14.5c-1.5 0-2.5.1-3.1.3-.5.2-.8.5-.8 1 0 .3.1.6.4.8.3.2.6.3 1.1.3.8 0 1.4-.2 1.8-.6.4-.4.6-.9.6-1.7v-.1zm.1 2.9c-.4.6-1 1-1.7 1.3-.7.3-1.6.4-2.6.4-1.4 0-2.5-.3-3.3-.8-.8-.5-1.2-1.2-1.2-2.2 0-1.3.7-2.2 2-2.8 1.3-.6 3.6-.9 6.7-.9v-.2c0-.5-.2-.9-.5-1.2-.3-.3-.8-.4-1.4-.4-.6 0-1 .1-1.3.3-.3.2-.5.5-.5.8h-4.3c0-1.1.6-2 1.6-2.5s2.6-.8 4.8-.8c2.1 0 3.6.3 4.6 1 1 .6 1.5 1.6 1.5 2.9v5.9c0 .2.1.4.2.5h-4.3c-.1-.2-.1-.5-.2-.7-.1-.1-.1-.3-.1-.6z"/><path id="Fill-6" d="M128.9 13.9c0-.9-.2-1.6-.6-2.1-.4-.5-1-.8-1.7-.8-.8 0-1.4.2-1.8.7-.4.5-.6 1.2-.6 2.2 0 .9.2 1.6.6 2.1.4.5 1 .7 1.7.7s1.3-.3 1.7-.8c.5-.5.7-1.1.7-2m-9.4-9.5h4.7v5.8c.6-.6 1.2-1 1.9-1.3.7-.3 1.4-.4 2.3-.4 1.6 0 2.9.5 3.8 1.5 1 1 1.4 2.4 1.4 4 0 1.5-.5 2.7-1.4 3.7-1 .9-2.2 1.4-3.8 1.4-.9 0-1.7-.2-2.4-.5s-1.3-.8-1.8-1.4v.9c0 .3-.1.5-.1.7h-4.7c.1-.2.1-.4.1-.7V4.4"/><path id="Fill-7" d="M143.8 14.5c-1.5 0-2.5.1-3.1.3-.5.2-.8.5-.8 1 0 .3.1.6.4.8.3.2.6.3 1.1.3.8 0 1.4-.2 1.8-.6.4-.4.6-.9.6-1.7v-.1zm.1 2.9c-.4.6-1 1-1.7 1.3-.7.3-1.6.4-2.6.4-1.4 0-2.5-.3-3.3-.8-.8-.5-1.2-1.2-1.2-2.2 0-1.3.7-2.2 2-2.8 1.3-.6 3.6-.9 6.7-.9v-.2c0-.5-.2-.9-.5-1.2-.3-.3-.8-.4-1.4-.4-.6 0-1 .1-1.3.3-.3.2-.5.5-.5.8h-4.3c0-1.1.5-2 1.6-2.5 1-.5 2.6-.8 4.8-.8 2.1 0 3.6.3 4.6 1 1 .6 1.5 1.6 1.5 2.9v5.9c0 .2.1.4.2.5h-4.3c-.1-.2-.1-.5-.2-.7-.1-.1-.1-.3-.1-.6z"/><path id="Fill-8" d="M162.8 13.3v-1.7h6.1v5.3c-.9.7-1.9 1.3-2.9 1.7-1 .4-2 .6-3.1.6-1.4 0-2.7-.3-3.9-.9-1.2-.6-2-1.5-2.6-2.6-.6-1.1-.9-2.4-.9-3.8s.3-2.7.9-3.9c.6-1.2 1.4-2.1 2.5-2.7 1.1-.6 2.4-.9 3.8-.9 1 0 2 .2 2.8.5.8.3 1.5.8 2 1.4.5.6.8 1.4 1.1 2.4l-1.7.3c-.2-.7-.5-1.3-.8-1.7-.3-.4-.8-.8-1.4-1-.6-.3-1.3-.4-2-.4-.9 0-1.6.1-2.3.4-.6.3-1.1.6-1.5 1-.4.4-.7.9-.9 1.4-.4.9-.5 1.9-.5 2.9 0 1.3.2 2.4.7 3.2.4.9 1.1 1.5 1.9 1.9.8.4 1.7.6 2.7.6.8 0 1.6-.2 2.4-.5.8-.3 1.4-.7 1.8-1v-2.7l-4.2.2"/><path id="Fill-9" d="M171.4 18.9V8.5h1.6V10c.4-.7.8-1.2 1.1-1.5.3-.2.7-.4 1.1-.4.6 0 1.2.2 1.8.6l-.6 1.6c-.4-.3-.9-.4-1.3-.4s-.7.1-1 .3c-.3.2-.5.6-.7 1-.2.6-.3 1.3-.3 2.1v5.5l-1.7.1"/><path id="Fill-10" d="M179.6 13.7c0 1.3.3 2.3.9 3 .6.7 1.3 1 2.2 1 .9 0 1.6-.3 2.2-1 .6-.7.9-1.7.9-3.1 0-1.3-.3-2.3-.9-2.9-.6-.7-1.3-1-2.2-1-.9 0-1.6.3-2.2 1-.6.6-.9 1.6-.9 3m-1.8 0c0-1.9.5-3.4 1.6-4.3.9-.8 2-1.2 3.3-1.2 1.4 0 2.6.5 3.5 1.4.9.9 1.4 2.2 1.4 3.9 0 1.3-.2 2.4-.6 3.2-.4.8-1 1.4-1.8 1.8-.8.4-1.6.6-2.5.6-1.5 0-2.6-.5-3.5-1.4-.9-.9-1.4-2.3-1.4-4"/><path id="Fill-11" d="M196.8 18.9v-1.5c-.8 1.2-1.9 1.8-3.3 1.8-.6 0-1.2-.1-1.7-.4-.5-.2-.9-.5-1.2-.9-.3-.4-.4-.8-.5-1.3-.1-.3-.1-.9-.1-1.6V8.5h1.8v5.8c0 .9 0 1.5.1 1.9.1.5.3.8.7 1.1.4.3.8.4 1.3.4s1-.1 1.5-.4c.5-.3.8-.6 1-1.1.2-.5.3-1.1.3-2V8.5h1.8v10.4h-1.7"/><path id="Fill-12" d="M203 13.7c0 1.3.3 2.3.8 3 .5.6 1.2 1 2 1s1.5-.3 2-1c.6-.7.8-1.7.8-3.1 0-1.3-.3-2.3-.8-3-.5-.7-1.2-1-2-1s-1.4.4-2 1.1c-.5.7-.8 1.7-.8 3m-1.6 9.2V8.5h1.6v1.4c.4-.5.8-.9 1.3-1.2.5-.3 1.1-.4 1.7-.4.9 0 1.7.2 2.4.7.7.5 1.2 1.1 1.5 1.9.3.8.5 1.7.5 2.7 0 1.1-.2 2-.6 2.9-.4.9-.9 1.5-1.7 2-.7.5-1.5.7-2.3.7-.6 0-1.1-.1-1.6-.4-.5-.2-.9-.6-1.2-.9V23h-1.6"/><path id="Fill-13" d="M6.6 31.8c-.3 0-.7-.3-.9-.5-2.7-2.7.8-5.8 4.8-7.5v-5.1c.9.6 1.5.6 1.5.7l3.1-3.1-1-2.6c9.1-3.1 12.7-4.3 20.1-5.6l-1.3-1.2 2.2-1.2c5 1.6 9.7 2.1 8.9 6.2.2-2.8-3.3-3.9-8.7-5.4l-1 .6 2 1.6C27.4 10.2 22 12 15.5 14.2l.9 2.3-3.2 3.2c.5.1 6.2 2 12.1-2.1l.1-.1c-.2-.3-.6-.6-1.1-1 1.7.1 2.8 1.6 2.6 3.2h-.8c.1-.5-.1-1.1-.2-1.4-4.6 3.3-9.9 3.8-14.4 2.2v3.9c-2.2.8-6.1 3.2-6.1 5.5.1 1.2.7 1.6 1.2 1.9"/><path id="Fill-14" d="M25.1 30.8c-4.9 2.5-9.6 4.5-16.8 4.7-9.4-.2-10.9-6.4-6.4-13C6.1 16 12.8 10 23.4 6.3 26.5 5.2 31 4 35.4 4c6.3-.1 12.4 1.9 12 7.9-.3 4.6-6.9 11.1-10.4 15.7-1.5 2-1.8 3.4.8 3.3 9.3-.6 17.7-3.8 25.5-7.2-5.3 3.6-32.7 17.1-32.8 7.9 0-1.2.6-2.4 1.5-3.7.9-1.3 2.1-2.7 3.3-4.1 1.9-2.1 6.5-7.2 8.1-10.3 2.6-5.8-3.3-6.1-8.3-7.9l-2.2 1.2L34.2 8c-7.4 1.2-11 2.4-20.1 5.6l1 2.6-3.1 3.2c-.1-.1-.5-.1-1.5-.7v5.1c-4.1 1.8-7.6 4.9-4.8 7.5.3.2.7.5 1 .5 4.9 2.8 18.5-1 18.4-1"/><path id="Fill-17" d="M78.1 23.8v1.5h5.2V36c.6 0 1.8-.6 1.8-1.7v-9.1c.4 0 .7-1.1.7-1.5l-7.7.1zm2.1 3.8h.9v4.7h-.9v-4.7zm2.6 4.1v-5.5h-4.3v7.5h2.2c.3 0 .8-.2 1.1-.4.2-.1.4-.3.5-.4.3-.4.5-.8.5-1.2zM76 27.8c0 .2-.2.5-.4.8l-.1.1h-.1.6v3.6h-.7v-7h.7v2.5zm-2.5-4V36c.9 0 1.8-.8 1.8-1.6v-.6h1c.7 0 1.5-1 1.5-1.5v-2.7c0-.5-.6-.9-.9-1.1.3-.2.9-.6.9-1.2v-3.5h-4.3z"/><path id="Fill-18" d="M89.1 25.1h2.6v1.6h-2.6v-1.6zm0 3h2.6v1.6h-2.6v-1.6zm4.8 0h.9c.1 0 .3 0 .4-.1.2-.1 1-1.1 1.1-1.3h-2.5v-1.6h2.7v4.6h-2.7l.1-1.6zm0 6.5v-1.1h3.6c.5 0 1-.9 1.3-1.4h-4.9v-1h2.7c.8 0 2-1.1 2.1-1.6v-5.7H87v7.4h4.7v1H87v1.4h4.7v1.1h-4.9V36h11c.5 0 .9-.9 1.2-1.4h-5.1z"/><path id="Fill-19" d="M102.6 25.3h2.6v4.1h-2.6v-4.1zm4.7 0h2.5v4.1h-2.5v-4.1zm-4.7 9.2V31h7.5c.7 0 1.9-1.1 1.9-1.7v-5.6h-11.6v10.6c0 .8.5 1.7 1.5 1.7h8.9c.7 0 1.5-1.1 1.6-1.6l-9.8.1z"/><path id="Fill-20" d="M116 25.3h2.6v4.1H116v-4.1zm4.7 0h2.5v4.1h-2.5v-4.1zm-4.7 9.2V31h7.5c.7 0 1.9-1.1 1.9-1.7v-5.6h-11.6v10.6c0 .8.5 1.7 1.5 1.7h8.9c.7 0 1.5-1.1 1.6-1.6l-9.8.1z"/><path id="Fill-21" d="M133.4 31.9v-.4h.9v.3h5.3s-.1.7-1.3.7h-3.9v1.9c0 1.5-.9 1.6-.9 1.6v-3.5h-6.3v-.7l6.2.1"/><path id="Fill-22" d="M129.6 33.7h.9s-1 1.3-1.3 1.6c-.3.3-.7.9-1.3.9h-.4l2.1-2.5"/><path id="Fill-23" d="M137.7 33.7h-.9s1 1.3 1.3 1.6c.3.3.7.9 1.3.9h.4l-2.1-2.5"/><path id="Fill-24" d="M133.4 26.1H129v-.4l.2-.3.3-.4h3.9v1.1zm-4.4.8h4.5V28H129v-1.1zm0 1.8h4.5v1.1H129v-1.1zm9.3-3.7c1.1 0 1.3-.7 1.3-.7h-5.3l.4-.5h-.9l-.4.6h-3.5l.4-.6h-.9l-2.2 2.9h1v4h.2c1.4 0 1.5-.2 1.5-.2h8.4c1.1 0 1.2-.7 1.2-.7h-5.2v-1.2h4c1.1 0 1.3-.7 1.3-.7h-5.3v-1.2h4c1.1 0 1.3-.7 1.3-.7h-5.3v-1h4z"/><path id="Fill-25" d="M152.7 34.6c0 .4-.1.8-.7.8h-9.2V24.5h9.9v10.1zm-10.6-10.8v12.4h10.4c.8 0 1.1-.7 1-1.5V23.8h-11.4z"/><path id="Fill-26" d="M146.9 29.1l-2.6 4.8s.9.2 1.3-.7l2.2-4.1h-.9"/><path id="Fill-27" d="M150 32.8c0 .3-.1.4-.3.4h-.9v.7h1.1c.7 0 .9-.3.9-1v-4.6c.9 0 .9-.7.9-.7h-.9V26h-.8v1.6h-5.9v.8h5.9v4.4"/></svg>