<svg id="Layer_1" xmlns="http://www.w3.org/2000/svg" viewBox="0 0 200 80"><style>.st0{opacity:.8}.st1{opacity:.6}.st2{opacity:.3}</style><path id="Fill-1_1_" d="M62 33.4l-2.2-5-2.3 5H62zm-7 5.5h-4.6l7.1-13.7h5.1l6.8 13.7h-5.1l-1-2.5h-7.1L55 38.9z"/><path id="Fill-2_1_" d="M70 25.1h4.4v13.7H70V25.1z"/><path id="Fill-3_1_" d="M77.1 29.3h4.4v9.6h-4.4v-9.6zm0-4.1h4.4V28h-4.4v-2.8z"/><path id="Fill-4_1_" d="M92.9 34.1c0-.8-.2-1.5-.6-2-.4-.5-.9-.7-1.6-.7-.7 0-1.3.2-1.7.7-.4.5-.6 1.1-.6 2 0 .8.2 1.5.6 2 .4.5.9.7 1.6.7.7 0 1.2-.2 1.6-.7.5-.5.7-1.1.7-2m-8.9-9h4.4v5.5c.5-.5 1.1-.9 1.8-1.2.7-.3 1.4-.4 2.1-.4 1.5 0 2.7.5 3.6 1.4.9 1 1.4 2.2 1.4 3.8 0 1.4-.5 2.6-1.4 3.5-.9.9-2.1 1.3-3.6 1.3-.8 0-1.6-.1-2.2-.5-.7-.3-1.2-.7-1.7-1.3v.9c0 .3-.1.5-.1.7h-4.4c0-.2.1-.4.1-.7v-13"/><path id="Fill-5_1_" d="M107.1 34.7c-1.4 0-2.4.1-2.9.3-.5.2-.8.5-.8 1 0 .3.1.6.4.7.3.2.6.3 1.1.3.8 0 1.3-.2 1.7-.5.4-.4.6-.9.6-1.6l-.1-.2zm.1 2.8c-.4.6-1 1-1.6 1.2-.7.3-1.5.4-2.4.4-1.4 0-2.4-.2-3.1-.7-.7-.5-1.1-1.2-1.1-2.1 0-1.2.6-2.1 1.9-2.6 1.3-.5 3.4-.8 6.3-.8v-.2c0-.5-.1-.9-.4-1.1-.3-.2-.7-.4-1.3-.4-.5 0-.9.1-1.2.3-.3.2-.5.4-.5.8h-4.1c0-1.1.5-1.9 1.5-2.4s2.5-.8 4.5-.8c1.9 0 3.4.3 4.3.9.9.6 1.4 1.5 1.4 2.8v5.6c0 .2.1.4.1.5h-4.1c-.1-.2-.1-.5-.2-.7v-.7z"/><path id="Fill-6_1_" d="M122.6 34.1c0-.8-.2-1.5-.6-2-.4-.5-.9-.7-1.6-.7-.7 0-1.3.2-1.7.7-.4.5-.6 1.1-.6 2 0 .8.2 1.5.6 2 .4.5.9.7 1.6.7.7 0 1.2-.2 1.6-.7.5-.5.7-1.1.7-2m-8.8-9h4.4v5.5c.5-.5 1.1-.9 1.8-1.2.7-.3 1.4-.4 2.1-.4 1.5 0 2.7.5 3.6 1.4.9 1 1.4 2.2 1.4 3.8 0 1.4-.5 2.6-1.4 3.5-.9.9-2.1 1.3-3.6 1.3-.8 0-1.6-.1-2.2-.5-.7-.3-1.2-.7-1.7-1.3v.9c0 .3-.1.5-.1.7h-4.4c0-.2.1-.4.1-.7v-13"/><path id="Fill-7_1_" d="M136.8 34.7c-1.4 0-2.4.1-2.9.3-.5.2-.8.5-.8 1 0 .3.1.6.4.7.3.2.6.3 1.1.3.8 0 1.3-.2 1.7-.5.4-.4.6-.9.6-1.6l-.1-.2zm.1 2.8c-.4.6-1 1-1.6 1.2-.7.3-1.5.4-2.4.4-1.4 0-2.4-.2-3.1-.7-.7-.5-1.1-1.2-1.1-2.1 0-1.2.6-2.1 1.9-2.6 1.3-.5 3.4-.8 6.3-.8v-.2c0-.5-.1-.9-.4-1.1-.3-.2-.7-.4-1.3-.4-.5 0-.9.1-1.2.3-.3.2-.5.4-.5.8h-4.1c0-1.1.5-1.9 1.5-2.4s2.5-.8 4.5-.8c1.9 0 3.4.3 4.3.9 1 .6 1.4 1.5 1.4 2.8v5.6c0 .2.1.4.1.5h-4.1c-.1-.2-.1-.5-.2-.7v-.7z"/><path id="Fill-8_1_" d="M154.8 33.5v-1.6h5.8V37c-.9.7-1.8 1.2-2.7 1.6-.9.4-1.9.5-2.9.5-1.3 0-2.6-.3-3.7-.9-1.1-.6-1.9-1.4-2.5-2.5-.6-1.1-.8-2.3-.8-3.6 0-1.3.3-2.6.8-3.7.6-1.2 1.4-2 2.4-2.6 1-.6 2.2-.8 3.6-.8 1 0 1.9.2 2.7.5.8.3 1.4.8 1.9 1.3.5.6.8 1.3 1 2.2l-1.6.4c-.2-.7-.5-1.2-.8-1.6-.3-.4-.7-.7-1.3-1-.6-.2-1.2-.4-1.9-.4-.8 0-1.5.1-2.1.4-.6.3-1.1.6-1.5 1-.4.4-.7.9-.9 1.4-.3.8-.5 1.8-.5 2.8 0 1.2.2 2.2.6 3.1.4.8 1 1.4 1.8 1.8.8.4 1.6.6 2.5.6.8 0 1.5-.2 2.3-.5.7-.3 1.3-.6 1.7-1v-2.6l-3.9.1"/><path id="Fill-9_1_" d="M163 38.9V29h1.5v1.5c.4-.7.7-1.2 1.1-1.4.3-.2.7-.3 1.1-.3.6 0 1.1.2 1.7.5l-.6 1.6c-.4-.2-.8-.4-1.2-.4-.4 0-.7.1-1 .3-.3.2-.5.5-.6.9-.2.6-.3 1.2-.3 2v5.2H163"/><path id="Fill-10_1_" d="M170.7 33.9c0 1.3.3 2.2.8 2.8.6.6 1.2.9 2.1.9.8 0 1.5-.3 2.1-.9.6-.6.8-1.6.8-2.9 0-1.2-.3-2.1-.8-2.8-.6-.6-1.2-.9-2.1-.9-.8 0-1.5.3-2.1.9-.5.7-.8 1.7-.8 2.9m-1.7 0c0-1.8.5-3.2 1.5-4.1.8-.7 1.9-1.1 3.1-1.1 1.4 0 2.5.4 3.3 1.3.9.9 1.3 2.1 1.3 3.7 0 1.3-.2 2.3-.6 3-.4.7-.9 1.3-1.7 1.7-.7.4-1.5.6-2.4.6-1.4 0-2.5-.4-3.4-1.3-.7-.8-1.1-2.1-1.1-3.8"/><path id="Fill-11_1_" d="M187 38.9v-1.5c-.8 1.1-1.8 1.7-3.1 1.7-.6 0-1.1-.1-1.6-.3-.5-.2-.9-.5-1.1-.8-.2-.3-.4-.8-.5-1.2-.1-.3-.1-.9-.1-1.6V29h1.7v5.5c0 .9 0 1.5.1 1.8.1.4.3.8.7 1 .3.3.8.4 1.3.4s1-.1 1.4-.4c.4-.3.8-.6.9-1 .2-.4.3-1.1.3-1.9V29h1.7v9.9H187"/><path id="Fill-12_1_" d="M192.9 34c0 1.3.3 2.2.8 2.8.5.6 1.1.9 1.9.9.7 0 1.4-.3 1.9-.9.5-.6.8-1.6.8-2.9 0-1.3-.3-2.2-.8-2.8-.5-.6-1.1-.9-1.9-.9-.7 0-1.3.3-1.9 1-.5.5-.8 1.5-.8 2.8m-1.5 8.7V29h1.5v1.3c.4-.5.8-.9 1.2-1.1.5-.3 1-.4 1.6-.4.8 0 1.6.2 2.2.7.6.4 1.1 1 1.5 1.8.3.8.5 1.7.5 2.6 0 1-.2 1.9-.5 2.7-.4.8-.9 1.4-1.6 1.9-.7.4-1.4.6-2.2.6-.6 0-1.1-.1-1.5-.4-.4-.2-.8-.5-1.1-.9v4.8h-1.6"/><path id="Fill-13_1_" d="M6.8 51.1c-.2 0-.6-.2-.9-.5-2.6-2.5.7-5.5 4.6-7.1v-4.8c.9.6 1.4.6 1.4.7l2.9-2.9-1-2.5c8.6-3 12.1-4.1 19.1-5.3l-1.3-1.2 2-1.2c4.7 1.6 9.2 2 8.4 5.9.2-2.7-3.1-3.7-8.2-5.1l-1 .6 1.9 1.6c-8.4 1.4-13.6 3.1-19.7 5.2l.8 2.2-3.1 3c.5.1 5.9 1.9 11.5-2l.1-.1c-.2-.3-.5-.6-1-1 1.6.1 2.7 1.6 2.5 3.1H25c.1-.5-.1-1-.2-1.4-4.3 3.2-9.4 3.6-13.6 2.1v3.7c-2.1.7-5.8 3-5.8 5.2.3 1.2.9 1.6 1.4 1.8"/><path id="Fill-14_1_" d="M24.3 50.2c-4.6 2.3-9.1 4.2-15.9 4.5-8.9-.2-10.3-6.1-6.1-12.3 4-6.2 10.3-11.9 20.4-15.4 2.9-1 7.2-2.2 11.3-2.3 5.9-.1 11.7 1.8 11.3 7.5-.2 4.4-6.5 10.5-9.8 14.9-1.4 1.9-1.7 3.2.8 3.1 8.8-.6 16.8-3.6 24.2-6.8-5 3.4-31 16.3-31.1 7.5 0-1.1.5-2.3 1.4-3.5.8-1.3 2-2.6 3.1-3.9 1.8-2 6.2-6.8 7.6-9.7 2.5-5.5-3.1-5.8-7.9-7.4l-2 1.2 1.3 1.2c-7 1.2-10.5 2.3-19.1 5.3l1 2.5-2.9 2.9c-.1-.1-.5-.1-1.4-.7v4.8c-3.8 1.7-7.2 4.6-4.6 7.1.3.2.7.4.9.5 4.7 2.6 17.5-1 17.5-1"/><path id="Fill-17_1_" d="M74.5 43.5v1.4h4.9v10.2c.6 0 1.7-.5 1.7-1.6v-8.6c.4 0 .6-1 .6-1.4h-7.2zm2 3.7h.9v4.4h-.9v-4.4zM79 51v-5.2h-4.1v7.1h2c.3 0 .7-.2 1-.4.2-.1.4-.3.5-.4.4-.3.6-.7.6-1.1zm-6.5-3.7c0 .2-.2.5-.4.7l-.1.1h-.1.6v3.4h-.7v-6.7h.7v2.5zm-2.4-3.8v11.6c.8 0 1.7-.7 1.7-1.5V53h1c.6 0 1.4-.9 1.4-1.4V49c0-.5-.6-.8-.8-1 .3-.2.8-.6.8-1.1v-3.4h-4.1z"/><path id="Fill-18_1_" d="M84.9 44.8h2.5v1.5h-2.5v-1.5zm0 2.8h2.5v1.5h-2.5v-1.5zm4.6 0h.9c.1 0 .3 0 .4-.1.2-.1 1-1.1 1.1-1.2h-2.3v-1.5H92v4.3h-2.5v-1.5zm0 6.2v-1.1H93c.5 0 1-.9 1.2-1.3h-4.7v-.9h2.6c.7 0 1.9-1 2-1.5v-5.4H82.9v7h4.5v.9h-4.5v1.3h4.5v1.1h-4.6v1.3h10.4c.4 0 .8-.9 1.2-1.3l-4.9-.1z"/><path id="Fill-19_1_" d="M97.7 45h2.5v3.9h-2.5V45zm4.5 0h2.3v3.9h-2.3V45zm-4.5 8.6v-3.3h7.1c.6 0 1.8-1.1 1.8-1.6v-5.3h-11v10c0 .8.5 1.6 1.4 1.6h8.4c.6 0 1.4-1 1.5-1.5l-9.2.1z"/><path id="Fill-20_1_" d="M110.4 45h2.5v3.9h-2.5V45zm4.5 0h2.3v3.9h-2.3V45zm-4.5 8.6v-3.3h7.1c.6 0 1.8-1.1 1.8-1.6v-5.3h-11v10c0 .8.5 1.6 1.4 1.6h8.4c.6 0 1.4-1 1.5-1.5l-9.2.1z"/><path id="Fill-21_1_" d="M127 51.2v-.4h.8v.3h5s-.1.7-1.2.7h-3.7v1.8c0 1.4-.9 1.5-.9 1.5v-3.3h-6v-.7l6 .1"/><path id="Fill-22_1_" d="M123.3 52.9h.9s-.9 1.2-1.2 1.5c-.3.3-.7.8-1.2.8h-.4l1.9-2.3"/><path id="Fill-23_1_" d="M131 52.9h-.9s.9 1.2 1.2 1.5c.3.3.7.8 1.2.8h.4l-1.9-2.3"/><path id="Fill-24_1_" d="M127 45.7h-4.2v-.4l.2-.3.3-.4h3.7v1.1zm-4.3.8h4.2v1h-4.2v-1zm0 1.7h4.2v1.1h-4.2v-1.1zm8.9-3.6c1.1 0 1.3-.7 1.3-.7h-5l.4-.5h-.8l-.5.6h-3.4l.4-.5h-.9l-2.1 2.8h.9V50h.2c1.3 0 1.4-.2 1.4-.2h8c1.1 0 1.2-.6 1.2-.6h-5v-1.1h3.8c1 0 1.2-.7 1.2-.7h-5v-1.1h3.8c1 0 1.2-.7 1.2-.7h-5v-1h3.9z"/><path id="Fill-25_1_" d="M145.2 53.8c0 .4-.1.8-.7.8h-8.7V44.2h9.3l.1 9.6zm-10.1-10.3v11.8h9.9c.7 0 1-.7 1-1.4V43.5h-10.9z"/><path id="Fill-26_1_" d="M139.7 48.5l-2.5 4.5s.8.2 1.2-.6l2.1-3.9h-.8"/><path id="Fill-27_1_" d="M142.7 52.1c0 .2-.1.4-.3.4h-.8v.7h1.1c.7 0 .9-.2.8-1v-4.4c.8 0 .9-.7.9-.7h-.9v-1.5h-.8v1.5h-5.6v.7h5.6v4.3"/></svg>