<svg id="Layer_1" xmlns="http://www.w3.org/2000/svg" viewBox="0 0 200 80"><style>.st0{opacity:.8}.st1{opacity:.6}.st2{opacity:.3}</style><path d="M42.9 21.9v35c0 .8 0 .7-.7.7H35c-.4 0-.5-.1-.5-.5v-2.8c-.1.2-.2.3-.3.4-1.8 2.1-4.2 3.2-7 3.3-2.1.1-4.2-.3-6.1-1.3-2.5-1.3-4.2-3.2-5.2-5.8-1.7-4.3-1.7-8.6.1-12.8 1.7-4 4.9-6.2 9.2-6.7 2.5-.3 4.9 0 7 1.5.9.6 1.6 1.3 2.4 2V22.1c2.7-.2 5.5-.2 8.3-.2zM28.7 38c-2.2 0-3.9 1-4.9 3-1.2 2.5-1.2 5.1.1 7.7 1 2 2.7 2.9 4.9 2.9 2.1 0 3.7-1.1 4.7-3 1.2-2.5 1.2-5 .1-7.5C32.7 39 31 38 28.7 38zm156.8 19.7h-7.8c-.4 0-.5-.1-.5-.5v-25c0-.4.1-.5.5-.5h7.8v26zm-21.1-2.8c-.3.3-.7.6-1 .9-1.4 1.2-3.1 1.9-4.9 2.1-1.9.3-3.8.2-5.7-.5-3.1-1.1-5.1-3.8-5.2-7.2 0-1.9.3-3.6 1.5-5.1 1.1-1.4 2.7-2.2 4.4-2.6 1.1-.3 2.3-.4 3.5-.5 2.3-.1 4.6 0 6.9 0 .5 0 .5 0 .5-.5 0-2.1-1.3-3.5-3.5-3.9-1.8-.3-3.6-.1-5.4.5-1.2.4-2.4.9-3.5 1.4-.3.1-.4.1-.6-.2l-2.1-4.8c-.1-.2-.1-.3.2-.4 2.8-1.3 5.6-2.2 8.7-2.6 2.8-.3 5.6-.3 8.3.6 2.1.7 3.8 1.9 5 3.9.7 1.3 1.1 2.7 1.1 4.1v17.1c0 .3-.1.4-.5.4h-7.2c-.4 0-.5-.1-.5-.5v-2.2zm-3.1-8.3h-2.5c-.6 0-1.3.1-1.9.3-.7.2-1.2.7-1.4 1.4-.6 1.8.3 3.6 2.2 4 1.6.3 3.2.1 4.6-.8 1.3-.8 2.1-1.9 2-3.5v-.8c0-.4-.1-.5-.5-.5-.8-.1-1.7-.1-2.5-.1zm-45.7.5c.3.6.5 1.2.8 1.8 1.1 1.8 2.8 2.7 4.9 2.8 2.4.1 4.5-.7 6.3-2.3l.3-.3c.1.1.2.2.3.2 1.3 1.3 2.6 2.5 3.9 3.8.2.2.2.4 0 .6-2 2.1-4.5 3.4-7.3 3.9-3.3.7-6.5.6-9.6-.6-4.3-1.7-6.8-4.8-7.7-9.4-.5-2.9-.3-5.7.8-8.4 1.7-4.2 4.9-6.6 9.2-7.5 2.6-.6 5.3-.5 7.9.3 4.3 1.2 6.9 4.2 8 8.4.5 2 .7 4.1.6 6.3 0 .4-.3.3-.5.3h-17.7c-.1 0-.1 0-.2.1zm5.1-4.7h4.4c.7 0 .7 0 .7-.7-.2-2-1.1-3.5-3-4.2-2-.7-3.8-.4-5.4 1-1 .9-1.5 2.1-1.8 3.3-.1.5-.1.5.4.5 1.6.1 3.1.1 4.7.1zM79.3 31.7h8.1c.3 0 .5.1.6.4 1.8 5.8 3.5 11.6 5.3 17.4 0 .1.1.2.1.4.1-.2.1-.3.2-.4 1.8-5.8 3.5-11.5 5.3-17.3.1-.3.3-.5.6-.4h7.9c-.1.2-.1.3-.1.4-3.1 8.4-6.3 16.7-9.4 25.1-.1.4-.3.5-.7.5h-7.6c-.3 0-.5-.1-.6-.4-3.1-8.4-6.3-16.7-9.5-25.1-.1-.3-.2-.4-.2-.6zm-23.6 4c.7-.8 1.4-1.6 2.1-2.2 1.7-1.4 3.7-2.1 5.8-2.2.3 0 .4.1.4.4v6.8c0 .3-.1.4-.4.4-1.8-.1-3.5.1-5.1 1-1.9 1.1-2.9 2.8-2.9 5v12.2c0 .6 0 .6-.6.6h-7.3c-.4 0-.5-.1-.5-.5v-25c0-.4.1-.5.5-.5h7.4c.4 0 .5.1.5.5v3.2c.1.1.1.2.1.3zm12.1 9V32.2c0-.5 0-.5.5-.5h7.3c.4 0 .5.1.5.5v25c0 .4-.1.5-.5.5h-7.4c-.4 0-.5-.1-.5-.5.1-4.2.1-8.4.1-12.5zM137 55.4c-.4-.9-.4-1.9 0-2.8l.3-.3c1-.4 1.9-.1 2.9.4-1.3.7-2.4 1.4-3.2 2.7zm2.2-1.5c-.1 1.4.1 2.8.9 4 0 0 0 .1-.1.1-.3-.1-.7-.2-1-.4l-1.5-1.2c-.1-.1-.2-.3-.1-.4.3-1 .9-1.6 1.8-2.1z"/><path d="M141.6 53c-.7-.3-1.3-.7-1.9-.9-.6-.2-1.3-.3-2-.4.5-.6 1.1-1 1.8-1.2.8-.3 1-.2 1.5.5.4.6.6 1.3.6 2zm2.1 3.5c-.7.9-1.6 1.4-2.7 1.5-.1 0-.3-.1-.3-.1-.6-.7-.9-1.6-.9-2.6 1.1.7 2.3 1.3 3.9 1.2zm-2.6-1.1c1.3-.6 2.4-1.4 2.9-2.8.1.1.1.1.1.2.3.8.4 1.7 0 2.5-.1.2-.3.4-.5.5-.7.3-1.6.2-2.5-.4z"/><path d="M141.3 50.3c.1 0 .3 0 .4.1.5.3 1.1.6 1.6 1 .4.3.4.6.3 1.1-.3.8-.8 1.4-1.6 1.9 0-.8.1-1.4 0-2.1-.1-.7-.5-1.3-.7-2z"/></svg>