<svg id="Layer_1" xmlns="http://www.w3.org/2000/svg" viewBox="0 0 200 80"><style>.st0{fill:#fff}.st1{opacity:.8}.st1,.st2,.st3{fill:#fff;enable-background:new}.st2{opacity:.6}.st3{opacity:.3}</style><path class="st0" d="M190.3 47.5v3.1c-.1 0-.2.1-.3.1h-13.3c-.2 0-.2-.1-.2-.2V31.3c0-.2.1-.2.3-.2H190c.2 0 .3.1.3.2V34c0 .3 0 .3-.3.3h-9.7c-.2 0-.3.1-.3.3v4.3c0 .3 0 .3.3.3h7.3c.2 0 .3.1.2.2v2.7c0 .3 0 .3-.3.3h-7.2c-.3 0-.3 0-.3.3v4.4c0 .3 0 .3.3.3h9.8s.1 0 .2.1z"/><path class="st1" d="M30 55.3H19.8V45.1H30V55c.1.1.1.2 0 .3z"/><path class="st2" d="M19.9 45.1v10.2H9.7V45.1h10.2z"/><path class="st3" d="M40.2 24.7v10.1c-.1.1-.2 0-.3 0h-9.8l1-1 3.6-3.6c1.8-1.8 3.7-3.6 5.5-5.5z"/><path class="st0" d="M53.5 47h-.3v-.1c.1.1.2 0 .3.1z"/><path class="st2" d="M30.1 34.9v10.2H19.9V34.9h10.2z"/><path class="st3" d="M19.8 34.9v10.2H9.6V34.8h.3c3.4.1 6.7.1 9.9.1z"/><path class="st0" d="M30.1 34.9H19.8V24.8h20.4l-5.5 5.5-3.6 3.6c-.3.3-.7.6-1 1z"/><path class="st2" d="M19.9 24.7v10.1H9.8l4.2-4.2 5.7-5.7c0-.1.1-.1.2-.2z"/><path class="st0" d="M60.2 36.4c-.4-.4-.8-.7-1.3-1.1-1.1-.9-2.4-1.4-3.8-1.4-1.8 0-3.3.8-4.4 2.2-.9 1.2-1.4 2.5-1.5 3.9-.1 1.6.1 3.1.9 4.5.9 1.6 2.2 2.6 4 2.9 1.8.3 3.4-.1 4.8-1.3.5-.4.9-.8 1.4-1.2.7.8 1.4 1.5 2.2 2.3l-.9.9c-1.1 1.1-2.4 1.9-4 2.3-3.1.7-6 .3-8.5-1.8-1.6-1.3-2.7-3.1-3.2-5.1-.7-2.7-.5-5.3.7-7.8 1.4-2.8 3.6-4.6 6.7-5.1 3.4-.6 6.4.3 8.8 2.9l.1.1c-.6 1.1-1.3 2-2 2.8zm5.4.9v-6c0-.3 0-.3.3-.3h2.8c.3 0 .3 0 .3.3v11.1c0 .9.1 1.7.5 2.6.6 1.6 1.8 2.5 3.6 2.7.8.1 1.7 0 2.4-.4 1.2-.5 1.9-1.5 2.2-2.8.2-.8.3-1.6.3-2.3V31.4c0-.3 0-.3.3-.3h2.8c.2 0 .3.1.3.3v11.3c0 1.4-.2 2.7-.7 4-.9 2.1-2.4 3.5-4.7 4.1-1.7.4-3.5.4-5.2-.1-2.3-.7-3.8-2.2-4.6-4.5-.4-1.2-.6-2.4-.6-3.7v-5.2zm30.5 5.9c1.7 2.5 3.3 4.9 4.9 7.4h-3.7c-.2 0-.3-.1-.4-.2-1.4-2.1-2.8-4.2-4.2-6.4-.1-.2-.2-.2-.4-.2H89c-.2 0-.3.1-.3.3v6.2c0 .3 0 .3-.3.3h-2.8c-.2 0-.2-.1-.2-.2V31.3c0-.2.1-.2.2-.2h8.1c1.2 0 2.4.2 3.6.8 1.7.9 2.7 2.3 3.1 4.1.2 1.3.2 2.6-.3 3.8-.6 1.7-1.9 2.8-3.6 3.4h-.4zm-7.4-5.7v2.9c0 .2.1.3.3.3h4.3c.4 0 .7 0 1.1-.1 1-.2 1.9-.7 2.3-1.7.3-.6.3-1.3.2-2-.2-1.1-.8-1.9-1.9-2.3-.5-.2-1.1-.3-1.7-.3h-4.4c-.2 0-.3 0-.3.2.1 1 .1 2 .1 3zm14.4 13.1c0-.1.1-.2.1-.2 2.6-6.4 5.3-12.9 7.9-19.3.1-.2.2-.2.3-.2h2.6c.2 0 .3.1.4.3 1.6 3.8 3.1 7.7 4.7 11.5 1 2.6 2.1 5.1 3.1 7.7 0 .1.1.2.1.3H119c-.2 0-.2-.1-.3-.2-.6-1.4-1.1-2.8-1.7-4.3-.1-.2-.1-.2-.3-.2h-8c-.2 0-.3.1-.4.2-.6 1.4-1.1 2.8-1.7 4.2-.1.1-.1.2-.3.2h-3.2zm12.6-7.9c-1-2.5-2-4.9-3-7.4h-.1c-1 2.4-2 4.9-3 7.4h6.1zm43 7.9h-3.3c-.2 0-.3-.1-.3-.2-.5-1.4-1.1-2.8-1.7-4.2-.1-.2-.2-.3-.4-.3h-8c-.2 0-.3.1-.3.2-.6 1.4-1.1 2.8-1.7 4.2-.1.2-.1.2-.3.2h-3.3c0-.1.1-.2.1-.3 2.6-6.4 5.2-12.8 7.9-19.3.1-.2.2-.3.4-.3h2.6c.2 0 .3.1.4.2 1.7 4.2 3.5 8.5 5.2 12.7.9 2.2 1.8 4.3 2.7 6.5v.6zm-6.6-7.9c-1-2.5-2-4.9-3-7.4h-.1c-1 2.4-2 4.9-2.9 7.4h6zm15.2-.2v7.8c0 .3 0 .3-.3.3h-2.8c-.3 0-.3 0-.3-.3V34.7c0-.4 0-.4-.4-.4h-5.1c-.3 0-.3 0-.3-.3v-2.8c0-.2.1-.2.3-.2h14.5c.2 0 .2.1.2.2V34c0 .3 0 .3-.3.3h-5.2c-.3 0-.3 0-.3.3v7.9zM125 40.8v-9.5c0-.3 0-.3.3-.3h2.7c.3 0 .3 0 .3.3V47c0 .3 0 .3.3.3h8.7c.4 0 .3 0 .3.4v2.7c0 .2 0 .3-.3.3h-12.2c-.2 0-.3-.1-.3-.3.2-3.2.2-6.4.2-9.6z"/></svg>