<svg id="Layer_1" xmlns="http://www.w3.org/2000/svg" viewBox="0 0 200 80"><style>.st0{opacity:.8}.st1{opacity:.6}.st2{opacity:.3}</style><path d="M74.2 21.9c.1-.4.1-.9.3-1.3.5-1.3 2.2-1.9 3.4-1.1.7.5.8 1.2.9 1.9.1.6.1 1.2.1 1.8v12.6c0 1.5-.1 3.1-.6 4.5-.8 2.4-2.5 3.8-4.9 4.4-2.1.5-4.2.5-6.3.2-1.5-.3-3-.8-4.2-1.7-.6-.5-1.2-1.1-1.4-1.9-.4-1-.1-1.9.8-2.5.7-.5 1.9-.4 2.6.3.4.3.7.7 1 1.1.7.9 1.6 1.4 2.6 1.5 1.4.2 2.7.1 4-.5 1-.5 1.5-1.5 1.6-2.6.1-1 .1-2.1.1-3.2 0-.1 0-.1-.1-.3-.4.4-.7.8-1.1 1.1-3 2.7-8.9 2.1-11.1-2.4-1.1-2.2-1.3-4.5-1.1-6.9.2-1.9.7-3.6 1.9-5.1 1.2-1.5 2.8-2.3 4.8-2.5 1.2-.1 2.4-.1 3.6.4 1.2.4 2.2 1.1 3 2.1.1.1.1.2.2.4-.2-.2-.1-.2-.1-.3zm0 6.7c-.1-.7-.2-1.3-.3-2-.4-2.4-2.1-3.8-4.5-3.8-1.5 0-2.6.7-3.2 2-1.2 2.3-1.2 4.7-.2 7 1.2 2.7 4.8 3.2 6.9.8.9-1.1 1.3-2.5 1.3-4zm56.3 39.2c-5.3 0-9.3-4.2-9.4-9.1-.1-5.3 4.1-9.5 9.3-9.5 5.2 0 9.3 4.1 9.3 9.2.1 4.9-4 9.5-9.2 9.4zm-81.9-9.3c.1 4.9-4 9.1-8.7 9.3-5.7.3-9.9-4.4-9.9-9.3 0-5.1 4.2-9.4 9.4-9.3 4.9 0 9.3 4 9.2 9.3zm51.5 9.3c-5.2-.1-9.3-4-9.3-9.2 0-5.3 4.3-9.4 9.4-9.3 4.9.1 9.1 3.9 9.2 9.2 0 5.1-4.2 9.3-9.3 9.3zm60.6 0c-5.3-.1-9.3-4.1-9.3-9.3 0-5.2 4.1-9.1 9.1-9.3 5.4-.3 9.5 4.5 9.5 9.4 0 4.8-3.9 9.1-9.3 9.2zM60.5 58.5c-.3-4.7 3.8-9.4 9.4-9.3 5.1.1 9.2 4.2 9.1 9.4 0 4.7-4 9.3-9.5 9.1-5-.1-9.2-4.2-9-9.2zm74.4-23.1c-.4.4-.8.7-1.2 1-2.6 2.2-6.4 2.4-9.1.3-1.4-1.1-2.3-2.5-2.8-4.2-.8-2.7-.9-5.4 0-8.1.7-2.2 2-3.8 4.1-4.7 1.2-.5 2.4-.6 3.6-.6 1.1.1 2.2.2 3.2.8.7.4 1.3.9 1.9 1.4.1.1.2.2.4.3v-6.7c0-.5.1-1 .3-1.5.3-.9 1.2-1.4 2.1-1.3 1.1.1 1.8.7 2 1.8.1.3.1.7.1 1v20.4c0 .5-.1 1.1-.3 1.6-.3.8-1.2 1.3-2.2 1.2-.8-.1-1.6-.7-1.8-1.5-.1-.3-.2-.8-.3-1.2zm-8.9-7.2c0 2.1.4 3.4 1.1 4.5 1.6 2.3 5 2.3 6.6 0 1-1.6 1.2-3.3 1-5.1-.2-1.4-.6-2.7-1.7-3.8-1.7-1.5-4.4-1.3-5.7.6-1 1.2-1.3 2.7-1.3 3.8zm-78.6.1v3.2c0 1.2.3 2.4.6 3.5.3.8.4 1.5-.2 2.2-.9 1.1-2.3 1.2-3.3.2-.4-.4-.7-.9-1.1-1.4-.4-.5-.4-.5-.9-.1-1.2.8-2.4 1.6-3.8 1.9-2.2.5-4.3.5-6.3-.9-1.6-1.1-2.3-2.7-2.2-4.6.1-2 1.2-3.5 3.1-4.2 1.3-.5 2.7-.7 4-1.1 1.5-.4 3-.7 4.5-1 .9-.2.9-.2.7-1.1 0-.2-.1-.4-.1-.7-.3-1.1-.9-1.7-2.1-1.8-1 0-2 0-3 .1-1.1.2-1.8 1-2.3 1.9-.1.2-.3.4-.4.6-.5.8-1.2 1-2.1.8-.8-.2-1.3-.6-1.5-1.4-.2-.9.1-1.7.6-2.4.7-1.2 1.8-1.9 3.1-2.3 2-.7 4.2-.9 6.3-.6 1 .1 1.9.3 2.9.6 2.1.7 3 2.3 3.3 4.4.2 1.4.2 2.8.3 4.1 0 .1 0 .1-.1.1zm-4.6 1.5c-.1-.2 0-.4-.1-.5-.1-.1-.3-.3-.4-.3-1.7.4-3.4.8-5.2 1.2-.8.2-1.6.6-1.9 1.5-.4 1.2.2 2.5 1.5 3 .9.3 1.8.3 2.7 0 1.5-.5 2.7-1.3 3-2.9.3-.6.3-1.3.4-2zM168.9 28c0 1.8-.1 3.2 0 4.6.1.9.4 1.8.6 2.7.3 1.3.1 2.1-1 2.6-1 .5-2 .3-2.8-.6l-.9-1.2c-.2-.3-.4-.4-.7-.1-1.2.8-2.4 1.6-3.8 1.9-1.9.5-3.7.5-5.5-.3-3-1.4-3.9-5-2.2-7.6.8-1.1 1.9-1.8 3.2-2.1 1.9-.5 3.8-.8 5.7-1.3.7-.2 1.5-.4 2.2-.6.3-.1.4-.2.4-.6-.1-.3-.1-.7-.2-1-.3-1.1-.8-1.7-2-1.8-1.1-.1-2.2-.2-3.3.2-.8.3-1.3.8-1.8 1.4-.3.3-.5.7-.7 1-.6.9-1.6 1.1-2.5.6-.9-.5-1.3-1.5-.9-2.6.5-1.7 1.8-2.7 3.4-3.3 1.9-.7 3.9-1 5.9-.8 1 .1 2 .2 3 .5 2 .5 3.3 1.9 3.6 4 .2 1.6.2 3.2.3 4.4zm-4.7 1.9c-.1-.1-.1-.2-.1-.3 0-.6 0-.6-.7-.5-.7.2-1.4.3-2.2.5-1 .3-2.1.5-3.1.8-.8.2-1.4.7-1.6 1.5-.3 1.2.3 2.3 1.5 2.8.9.4 1.8.3 2.7 0 1.4-.4 2.5-1.1 3-2.6.3-.7.4-1.5.5-2.2zm-73.5-1.3c-.1-2.1.5-4.1 1.6-5.8 1-1.5 2.5-2.6 4.2-3.1 2.4-.8 4.7-.8 7.1.1 2.3.8 3.9 2.4 4.9 4.6 1.2 3 1.2 6.1-.2 9-1.4 2.9-3.8 4.3-6.9 4.7-2.3.3-4.5 0-6.5-1.2s-3.2-2.9-3.8-5.1c-.3-1-.4-2.1-.6-3.2h.2zm13.9 0c-.1-1.2-.2-2.5-.9-3.7-.8-1.5-2.1-2.2-3.7-2.2-1.7 0-3 .8-3.7 2.3-1 2.2-1 4.5-.2 6.7.6 1.6 1.7 2.6 3.4 2.8 1.9.2 3.4-.6 4.3-2.3.6-1.1.7-2.3.8-3.6z"/></svg>