<svg width="22" height="19" viewBox="0 0 22 19" xmlns="http://www.w3.org/2000/svg"><title>crowdFlow</title><defs><linearGradient x1="83.926%" y1="16.101%" x2="15.027%" y2="85.009%" id="a"><stop stop-color="#2B87FF" offset="0%"/><stop stop-color="#134FFF" offset="100%"/></linearGradient></defs><g fill="url(#a)"><path d="M5.4 4.8c-.1-.1-.2-.3-.2-.6s.2-.5.5-.5.5.2.5.5-.1.5-.2.6l.2.2c.3.1.6.2.6.6 0 .1-.1.4-1.1.4-.2 0-1 0-1-.4s.3-.5.6-.6c0 0 .1-.1.1-.2zM12.2 2c-.1-.2-.2-.4-.2-.7 0-.3.2-.5.5-.5s.5.2.5.5-.1.5-.2.6l.2.2c.3.1.6.2.6.6 0 .1-.1.4-1.1.4-.2 0-1.1 0-1.1-.4s.3-.5.6-.6c.1 0 .2 0 .2-.1zm-9 10c-.1-.1-.2-.4-.2-.6 0-.3.2-.5.5-.5s.5.2.5.5-.1.5-.2.6c0 .1.1.1.1.1.3.1.6.2.6.6 0 .1-.1.4-1.1.4-.2 0-1.1 0-1.1-.4s.3-.5.6-.6c.2 0 .3 0 .3-.1z" opacity=".4"/><path d="M19.8 11.8c-.1-.1-.2-.3-.2-.6s.2-.5.5-.5.5.2.5.5-.1.5-.2.6c0 .1.1.1.1.1.3.1.6.2.6.6 0 .1-.1.4-1.1.4-.2 0-1.1 0-1.1-.4s.3-.5.6-.6c.2 0 .3 0 .3-.1zM1.7 15.7c-.1-.1-.2-.3-.2-.6s.2-.5.5-.5.5.2.5.5-.1.5-.2.6c0 .1.1.1.1.1.3.1.6.2.6.6 0 .1-.1.4-1.1.4-.2 0-1.1 0-1.1-.4s.3-.5.6-.6c.2.1.3 0 .3-.1z" opacity=".1"/><path d="M2.8 7.9c-.1-.2-.2-.4-.2-.6 0-.3.2-.5.5-.5s.6.2.6.5-.1.5-.2.6c0 .1.1.1.1.1.4.1.6.2.6.6 0 .1-.1.4-1.1.4C2.9 9 2 9 2 8.6s.4-.5.7-.6c0 0 .1 0 .1-.1z" opacity=".4"/><path d="M6.3 10.2c-.1-.1-.2-.3-.2-.6s.2-.5.5-.5.5.2.5.5-.1.5-.2.6c0 .1.1.1.1.1.3.1.6.2.6.6 0 .1-.1.4-1.1.4-.2 0-1.1 0-1.1-.4s.3-.5.6-.6c.2.1.3.1.3-.1z"/><path d="M11.5 6c-.1-.1-.2-.3-.2-.6s.2-.5.5-.5.5.2.5.5-.1.5-.2.6c0 .1.1.1.1.1.5.2.8.3.8.7 0 .1-.1.4-1.1.4-.2 0-1.1 0-1.1-.4s.3-.5.6-.6c0-.1.1-.1.1-.2z" opacity=".6"/><path d="M15.1 5.1c-.1-.1-.2-.3-.2-.6s.2-.5.5-.5.5.2.5.5-.1.5-.2.6c0 .1.1.1.1.1.3.1.6.2.6.6 0 .1-.1.4-1.1.4-.2 0-1.1 0-1.1-.4s.3-.5.6-.6c.2 0 .2 0 .3-.1z" opacity=".3"/><path d="M8.1 7.2c-.1-.1-.2-.4-.2-.6 0-.3.2-.6.5-.6s.6.3.6.6-.1.5-.2.6c0 .1.1.1.1.1.3.1.6.3.6.7 0 .1-.1.4-1.1.4-.2 0-1.1 0-1.1-.4s.4-.6.7-.7c0 0 .1 0 .1-.1z"/><path d="M13.7 9.1c-.1-.1-.2-.3-.2-.6s.2-.5.5-.5.5.2.5.5-.1.5-.2.6c0 .1.1.1.1.1.3.1.6.2.6.6 0 .1-.1.4-1.1.4-.2 0-1.1 0-1.1-.4s.3-.5.6-.6c.2 0 .2 0 .3-.1z" opacity=".6"/><path d="M17.1 8.1c-.1-.1-.2-.3-.2-.6s.2-.5.5-.5.6.2.6.5-.1.5-.2.6c0 .1.1.1.1.1.3.1.6.2.6.6 0 .1-.1.4-1.1.4-.2 0-1.1 0-1.1-.4s.3-.5.6-.6c.1 0 .1 0 .2-.1zm-8.5-5c-.1-.1-.2-.3-.2-.6S8.7 2 9 2s.5.2.5.5-.1.5-.2.6c0 .1.1.1.1.1.3.1.6.2.6.6 0 .2 0 .5-1 .5-.2 0-1.1 0-1.1-.4s.3-.5.6-.6c0 0 .1-.1.1-.2z" opacity=".4"/><path d="M10.4 10.2c-.1-.1-.2-.3-.2-.6s.2-.5.5-.5.5.2.5.5-.1.5-.2.6c0 .1.1.1.1.1.3.1.6.2.6.6 0 .1-.1.4-1.1.4-.2 0-1.1 0-1.1-.4s.3-.5.6-.6c.2.1.3.1.3-.1z"/><path d="M12.6 14.1c-.1-.1-.2-.3-.2-.6s.2-.5.5-.5.5.2.5.5-.1.5-.2.6c0 .1.1.1.1.1.3.1.6.2.6.6 0 .1-.1.4-1.1.4-.2 0-1.1 0-1.1-.4s.3-.5.6-.6c.2 0 .3 0 .3-.1z" opacity=".4"/><path d="M12.9 17.9c-.1-.1-.2-.3-.2-.6s.2-.5.5-.5.5.2.5.5-.1.5-.2.6c0 .1.1.1.1.1.3.1.6.2.6.6 0 .1-.1.4-1.1.4-.2 0-1.1 0-1.1-.4s.3-.5.6-.6c.2 0 .3 0 .3-.1zm-3.7-.8c-.1-.1-.2-.3-.2-.6s.3-.5.6-.5.5.2.5.5-.1.5-.2.6c0 .1.1.1.1.1.3.1.6.2.6.6 0 .1-.1.4-1.1.4-.2 0-1.1 0-1.1-.4s.3-.5.6-.6c.1.1.2 0 .2-.1z" opacity=".1"/><path d="M16 12.3c-.1-.1-.2-.3-.2-.6s.2-.5.5-.5.5.2.5.5-.1.5-.2.6c0 .1.1.1.1.1.3.1.6.2.6.6 0 .1-.1.4-1.1.4-.2 0-1.1 0-1.1-.4s.3-.5.6-.6c.2.1.3 0 .3-.1z" opacity=".4"/><path d="M16.3 15.9c-.1-.1-.2-.3-.2-.6s.2-.5.5-.5.5.2.5.5-.1.5-.2.6c0 .1.1.1.1.1.3.1.6.2.6.6 0 .1-.1.4-1.1.4-.2 0-1.1 0-1.1-.4s.3-.5.6-.6c.2.1.2.1.3-.1z" opacity=".1"/><path d="M8.6 13.5c-.1-.1-.2-.3-.2-.6s.2-.5.5-.5.5.2.5.5-.1.5-.2.6c0 .1.1.1.1.1.3.1.6.2.6.6.1.2.1.5-.9.5-.2 0-1.1 0-1.1-.4s.3-.5.6-.6c0 0 .1-.1.1-.2z" opacity=".6"/><path d="M5.4 15.1c-.1-.1-.2-.3-.2-.6s.2-.5.5-.5.5.2.5.5-.1.5-.2.6c0 .1.1.1.1.1.3.1.6.2.6.6 0 .1-.1.4-1.1.4-.2 0-1.1 0-1.1-.4s.3-.5.6-.6c.2.1.3 0 .3-.1z" opacity=".4"/><path d="M1.7 3.9c-.1-.2-.2-.4-.2-.6 0-.3.2-.5.5-.5s.6.2.6.5-.1.5-.2.6l.1.1c.3.1.6.2.6.6 0 .1-.1.4-1.1.4-.2.1-1 .1-1-.3s.3-.6.6-.7c0 0 .1 0 .1-.1zm2.7-2.7C4.3 1 4.2.8 4.2.5c0-.3.3-.5.6-.5s.5.2.5.5-.1.5-.2.6c0 .1.1.1.1.1.3.1.6.2.6.6 0 .1-.1.4-1.1.4-.2 0-1.1 0-1.1-.4s.4-.4.7-.5c0 0 .1 0 .1-.1z" opacity=".1"/></g></svg>