<svg width="8" height="211" viewBox="0 0 8 211" xmlns="http://www.w3.org/2000/svg" xmlns:xlink="http://www.w3.org/1999/xlink"><defs><g id="c"><animateTransform attributeName="transform" type="translate" from="0 0" to="0 211" dur="14.69s" repeatCount="1" fill="freeze"/><use xlink:href="#a"/></g><g id="b"><animateTransform attributeName="transform" type="translate" from="0 0" to="0 422" dur="29.38s" repeatCount="indefinite"/><use xlink:href="#a" y="-211"/></g><g id="d"><animateTransform attributeName="transform" type="translate" from="0 0" to="0 422" dur="29.38s" begin="14.69s" repeatCount="indefinite"/><use xlink:href="#a" y="-211"/></g><g id="a"><circle fill="#3542C9" cx="2" cy="204.5" r="2"/><circle fill="#007FB6" cx="2" cy="194.5" r="2"/><circle fill="#007FB6" cx="2" cy="184.5" r="2"/><circle fill="#007FB6" cx="2" cy="174.5" r="2"/><circle fill="#007FB6" cx="2" cy="164.5" r="2"/><circle fill="#007FB6" cx="2" cy="154.5" r="2"/><circle fill="#3542C9" cx="2" cy="144.5" r="2"/><circle fill="#007FB6" cx="2" cy="134.5" r="2"/><circle fill="#007FB6" cx="2" cy="124.5" r="2"/><circle fill="#007FB6" cx="2" cy="114.5" r="2"/><circle fill="#007FB6" cx="2" cy="104.5" r="2"/><circle fill="#3542C9" cx="2" cy="92.5" r="2"/><circle fill="#007FB6" cx="2" cy="82.5" r="2"/><circle fill="#007FB6" cx="2" cy="72.5" r="2"/><circle fill="#007FB6" cx="2" cy="62.5" r="2"/><circle fill="#3542C9" cx="2" cy="52.5" r="2"/><circle fill="#007FB6" cx="2" cy="42.5" r="2"/><circle fill="#007FB6" cx="2" cy="32.5" r="2"/><circle fill="#007FB6" cx="2" cy="22.5" r="2"/><circle fill="#007FB6" cx="2" cy="12.5" r="2"/><circle fill="#007FB6" cx="2" cy="2.5" r="2"/><path fill="none" d="M0 0h20v331H0z"/></g></defs><use x="1" xlink:href="#b" mask="url(#k)"/><use x="1" xlink:href="#c" mask="url(#k)"/><use x="1" xlink:href="#d" mask="url(#k)"/></svg>