<svg width="39" height="32" viewBox="0 0 39 32" xmlns="http://www.w3.org/2000/svg"><title>endQuote</title><path d="M4.13 2.31C2.59 3.85 1.82 5.6 1.82 7.56c0 1.867.63 3.57 1.89 5.11 1.26 1.54 2.777 2.357 4.55 2.45-.28 2.427-1.097 4.527-2.45 6.3-1.353 1.773-3.29 3.547-5.81 5.32l2.94 5.18c3.92-2.053 7.28-5.297 10.08-9.73 2.8-4.433 4.2-8.89 4.2-13.37 0-2.613-.77-4.737-2.31-6.37S11.573 0 9.52 0C7.467 0 5.67.77 4.13 2.31zm21.91 0C24.547 3.85 23.8 5.6 23.8 7.56c0 1.867.63 3.57 1.89 5.11 1.26 1.54 2.777 2.357 4.55 2.45-.373 2.427-1.237 4.527-2.59 6.3-1.353 1.773-3.29 3.547-5.81 5.32l2.94 5.18c3.92-2.053 7.257-5.297 10.01-9.73 2.753-4.433 4.13-8.89 4.13-13.37 0-2.613-.747-4.737-2.24-6.37C35.187.817 33.413 0 31.36 0c-2.053 0-3.827.77-5.32 2.31z" fill="#FFF" fill-rule="evenodd" opacity=".2"/></svg>