<svg width="240" height="202" viewBox="0 0 240 202" xmlns="http://www.w3.org/2000/svg"><title>Artboard</title><path d="M0 160l21.374-24.937a6 6 0 0 1 6.453-1.787l16.07 5.356a6 6 0 0 0 6.698-2.092l19.963-26.617a6 6 0 0 1 3.813-2.318l19.258-3.21a6 6 0 0 0 3.813-2.318l20.066-26.754a6 6 0 0 1 6.48-2.16l16.444 4.796a6 6 0 0 0 6.089-1.69l19.797-21.447a6 6 0 0 1 4.16-1.925l18.379-.766a6 6 0 0 0 4.823-2.79L216 14l24-14v194a8 8 0 0 1-8 8H8a8 8 0 0 1-8-8v-34z" fill="#FFF" fill-rule="evenodd" fill-opacity=".13"/></svg>