<svg id="Layer_1" xmlns="http://www.w3.org/2000/svg" viewBox="0 0 100 72.7"><style>.st0{opacity:5e-2;fill:#15e967}.st0,.st1,.st2{enable-background:new}.st1{fill:#15e967;opacity:.2}.st2{opacity:.1}.st2,.st3{fill:#15e967}.st4{fill:#fff}</style><circle class="st0" cx="19.8" cy="7.4" r="1.5"/><circle class="st0" cx="10" cy="28.2" r="1.5"/><circle class="st1" cx="22.1" cy="62.5" r="1.5"/><circle class="st0" cx="8.5" cy="47.8" r="1.5"/><circle class="st2" cx="45.8" cy="9.7" r="1.5"/><circle class="st1" cx="25.1" cy="34.2" r="1.5"/><circle class="st1" cx="63.2" cy="21.6" r="1.5"/><circle class="st2" cx="93.2" cy="59.6" r="1.5"/><circle class="st0" cx="77.5" cy="14.3" r="1.5"/><circle class="st0" cx="88.4" cy="32.7" r="1.5"/><ellipse transform="rotate(-42.642 81.811 45.235)" class="st1" cx="81.8" cy="45.2" rx="1.5" ry="1.5"/><ellipse transform="rotate(-42.642 72.18 66.73)" class="st1" cx="72.2" cy="66.7" rx="1.5" ry="1.5"/><path class="st3" d="M67.2 48.3l-8.4-15c-.4-.6-1-1.3-1.7-1.3H39.2c-.7 0-1.4.7-1.7 1.3L29 48.1c-.4.6-.4 1.5 0 2.1l8.4 14.7c.4.6 1 1.1 1.7 1.1H57c.7 0 1.4-.4 1.7-1l8.4-14.6c.5-.7.5-1.5.1-2.1z"/><path class="st4" d="M51.6 56.8s-2.9-.2-3.1-1.6v-2c-.2-3.7 6-1.8 2.7-12.3H45c-3.3 10.4 2.9 8.6 2.7 12.3v2c-.2 1.5-3.1 1.6-3.1 1.6-.1 0-.2.1-.2.2s.1.2.2.2h6.9c.1 0 .2-.1.2-.2s0-.2-.1-.2z"/></svg>