<svg width="39" height="34" viewBox="0 0 39 34" xmlns="http://www.w3.org/2000/svg"><title>flow_workerIncentives</title><defs><linearGradient x1="83.926%" y1="16.101%" x2="13.216%" y2="86.821%" id="a"><stop stop-color="#2B87FF" offset="0%"/><stop stop-color="#134FFF" offset="100%"/></linearGradient></defs><g fill="none"><path d="M38.5 16.3l-8.4-15c-.4-.6-1-1.3-1.7-1.3h-18c-.7 0-1.3.7-1.7 1.3L.3 16.1c-.4.6-.4 1.5 0 2.1l8.4 14.7c.4.6 1 1.1 1.7 1.1h17.9c.7 0 1.4-.4 1.7-1l8.4-14.6c.5-.7.5-1.5.1-2.1z" fill="url(#a)"/><path d="M19.4 24.3c4 0 7.3-3.2 7.3-7.3s-3.2-7.3-7.3-7.3-7.3 3.3-7.3 7.3 3.3 7.3 7.3 7.3zm-2.8-4.7l.3-.7c0-.1.1-.2.2-.2h.3c.5.3 1.1.4 1.7.4.7 0 1.2-.3 1.2-.7 0-.3-.1-.6-1.2-.9-1.2-.4-2.4-.9-2.4-2.1 0-.9.7-1.7 1.8-1.9h.2v-.8c0-.2.2-.3.3-.3h.8c.2 0 .3.2.3.3v.7h.2c.5.1.9.2 1.3.4.1 0 .1.1.2.2v.3l-.3.7c-.1.1-.2.2-.3.2h-.1c-.2-.1-.7-.3-1.5-.3-.7 0-1 .3-1 .6s.3.5 1.4.9c1.1.4 2.3.9 2.3 2.2 0 .7-.5 1.7-1.9 2h-.2v.8c0 .2-.2.3-.3.3h-.8c-.2 0-.3-.2-.3-.3v-.7h-.2c-.6-.1-1.2-.2-1.6-.5-.4-.2-.4-.4-.4-.6z" fill="#FFF"/></g></svg>