<svg width="39" height="34" viewBox="0 0 39 34" xmlns="http://www.w3.org/2000/svg"><title>flow_modellingData</title><defs><linearGradient x1="83.926%" y1="16.101%" x2="13.216%" y2="86.821%" id="a"><stop stop-color="#2B87FF" offset="0%"/><stop stop-color="#134FFF" offset="100%"/></linearGradient></defs><g fill="none"><path d="M38.5 16.3l-8.4-15c-.4-.6-1-1.3-1.7-1.3h-18c-.7 0-1.3.7-1.7 1.3L.3 16.1c-.4.6-.4 1.5 0 2.1l8.4 14.7c.4.6 1 1.1 1.7 1.1h17.9c.7 0 1.4-.4 1.7-1l8.4-14.6c.5-.7.5-1.5.1-2.1z" fill="url(#a)"/><path d="M17.9 9.038l-.5 2.2c-.2.1-.5.2-.7.3l-1.9-1.2-2.1 2.1 1.2 1.9c-.1.2-.2.5-.3.7l-2.2.5v2.9l2.2.5c.1.2.2.5.3.7l-1.2 1.9 2.1 2.1 1.9-1.2c.2.1.5.2.7.3l.5 2.2h2.9l.5-2.2c.2-.1.5-.2.7-.3l2 1.2 2.1-2.1-1.2-1.9c.1-.2.2-.5.3-.7l2.2-.5v-2.9l-2.2-.5c-.1-.2-.2-.5-.3-.7l1.2-1.9-2.1-2.1-1.9 1.2c-.2-.1-.5-.2-.7-.3l-.5-2.2h-3zm1.5 4.2c2 0 3.7 1.6 3.7 3.7 0 2-1.6 3.7-3.7 3.7s-3.7-1.6-3.7-3.7c0-2 1.7-3.7 3.7-3.7z" fill="#FFF"/></g></svg>