<svg id="Layer_1" xmlns="http://www.w3.org/2000/svg" viewBox="0 0 100 72.7"><style>.st0{fill:#15e967}.st1{fill:#fff}.st2{opacity:5e-2}.st2,.st3,.st4{fill:#15e967;enable-background:new}.st3{opacity:.1}.st4{opacity:.2}</style><path class="st0" d="M67.2 48.9l-8.4-15c-.4-.6-1-1.3-1.7-1.3H39.2c-.7 0-1.4.7-1.7 1.3L29 48.8c-.4.6-.4 1.5 0 2.1l8.4 14.7c.4.6 1 1.1 1.7 1.1H57c.7 0 1.4-.4 1.7-1L67.2 51c.4-.6.4-1.4 0-2.1z"/><path class="st1" d="M52.9 43.3h-9.7c-1.1 0-1.9.9-1.9 1.9V54c0 1.1.9 1.9 1.9 1.9h9.7c1.1 0 1.9-.9 1.9-1.9v-8.7c.1-1.1-.8-2-1.9-2zm-6 6.9l-2 1.9c-.2.2-.5.1-.6-.1-.2-.2-.1-.5 0-.6l1.7-1.5-1.7-1.5c-.2-.2-.2-.5 0-.6.2-.2.4-.2.6 0l2 1.9c.1 0 .2.3 0 .5zm4.7 2.3h-4c-.3 0-.5-.2-.5-.5s.2-.5.5-.5h4c.3 0 .5.2.5.5s-.2.5-.5.5z"/><circle class="st2" cx="11.5" cy="11.2" r="1.5"/><circle class="st3" cx="18.3" cy="32.7" r="1.5"/><circle class="st4" cx="22.1" cy="62.5" r="1.5"/><circle class="st3" cx="8.5" cy="47.8" r="1.5"/><circle class="st3" cx="32.4" cy="12.7" r="1.5"/><circle class="st4" cx="45.5" cy="23.1" r="1.5"/><circle class="st3" cx="63.2" cy="15.8" r="1.5"/><circle class="st3" cx="88.4" cy="55.6" r="1.5"/><circle class="st3" cx="79" cy="25.2" r="1.5"/><circle class="st3" cx="91.7" cy="18" r="1.5"/><ellipse transform="rotate(-42.642 76.089 40.769)" class="st4" cx="76.1" cy="40.8" rx="1.5" ry="1.5"/><ellipse transform="rotate(-42.642 72.18 66.73)" class="st4" cx="72.2" cy="66.7" rx="1.5" ry="1.5"/></svg>