<svg width="39" height="34" viewBox="0 0 39 34" xmlns="http://www.w3.org/2000/svg"><title>flow_settingWorkforce</title><defs><linearGradient x1="83.926%" y1="16.101%" x2="13.216%" y2="86.821%" id="a"><stop stop-color="#2B87FF" offset="0%"/><stop stop-color="#134FFF" offset="100%"/></linearGradient></defs><g fill="none"><path d="M38.5 16.3l-8.4-15c-.4-.6-1-1.3-1.7-1.3h-18c-.7 0-1.3.7-1.7 1.3L.3 16.1c-.4.6-.4 1.5 0 2.1l8.4 14.7c.4.6 1 1.1 1.7 1.1h17.9c.7 0 1.4-.4 1.7-1l8.4-14.6c.5-.7.5-1.5.1-2.1z" fill="url(#a)"/><path d="M26.1 12.4c-.1 0-.2 0-.3.1l-1.6 1.6-1.4-.5-.4-1.3 1.7-1.7c.1-.1.1-.3 0-.5L24 10c-.5-.2-1-.3-1.6-.3-1.1 0-2.2.4-3 1.2-1.1 1.1-1.5 2.7-1.1 4.1l-5.5 5.5c-.7.8-.7 2 .1 2.8.8.7 1.9.7 2.7 0l5.4-5.4c.5.2 1 .3 1.5.3 1.1 0 2.2-.4 3-1.2 1.2-1.2 1.6-2.9 1-4.5-.2 0-.3-.1-.4-.1z" fill="#FFF"/></g></svg>