<svg width="39" height="34" viewBox="0 0 39 34" xmlns="http://www.w3.org/2000/svg"><title>flow_HI</title><defs><linearGradient x1="83.926%" y1="16.101%" x2="13.216%" y2="86.821%" id="a"><stop stop-color="#2B87FF" offset="0%"/><stop stop-color="#134FFF" offset="100%"/></linearGradient></defs><g fill="none"><path d="M38.5 16.3l-8.4-15c-.4-.6-1-1.3-1.7-1.3h-18c-.7 0-1.3.7-1.7 1.3L.3 16.1c-.4.6-.4 1.5 0 2.1l8.4 14.7c.4.6 1 1.1 1.7 1.1h17.9c.7 0 1.4-.4 1.7-1l8.4-14.6c.5-.7.5-1.5.1-2.1z" fill="url(#a)"/><path d="M18.429 8.988c1.4 0 3 .3 4.1 1 1.1.7 1.9 1.7 1.9 3.6 0 1.2.2 1.9.4 2.4.2.3.4.8.6 1.1h-1l-.1.1-.1.1v3.2c0 .4-.1.7-.2.8-.1.2-.3.3-.9.3h-1.7c-.3 0-.6.3-.6.6v2.9h-6c.1-.2.3-.5.4-.8.4-1.1.7-2.8-.1-4.8-.4-1-.9-1.6-1.2-2.3-.3-.7-.6-1.5-.6-3.1 0-3.1 2.4-5.1 5.1-5.1z" fill="#FFF"/></g></svg>