<svg width="39" height="34" viewBox="0 0 39 34" xmlns="http://www.w3.org/2000/svg"><title>flow_collatingData</title><defs><linearGradient x1="83.926%" y1="16.101%" x2="13.216%" y2="86.821%" id="a"><stop stop-color="#2B87FF" offset="0%"/><stop stop-color="#134FFF" offset="100%"/></linearGradient></defs><g fill="none"><path d="M38.5 16.3l-8.4-15c-.4-.6-1-1.3-1.7-1.3h-18c-.7 0-1.3.7-1.7 1.3L.3 16.1c-.4.6-.4 1.5 0 2.1l8.4 14.7c.4.6 1 1.1 1.7 1.1h17.9c.7 0 1.4-.4 1.7-1l8.4-14.6c.5-.7.5-1.5.1-2.1z" fill="url(#a)"/><path d="M25.4 23.3h-12c-.4 0-.7-.3-.7-.7l-.3-7.6c0-.4.3-.8.7-.8h12.6c.4 0 .7.3.7.8l-.3 7.6c0 .5-.3.7-.7.7zm.3-9.6H13.1v-2.5c0-.3.3-.6.5-.6h4c.1 0 .2 0 .2.1l.9.8h6.4c.3 0 .5.3.5.6v1.6h.1z" fill="#FFF"/></g></svg>