<svg width="39" height="34" viewBox="0 0 39 34" xmlns="http://www.w3.org/2000/svg"><title>flow_AI</title><defs><linearGradient x1="83.926%" y1="16.101%" x2="15.027%" y2="85.009%" id="a"><stop stop-color="#2B87FF" offset="0%"/><stop stop-color="#134FFF" offset="100%"/></linearGradient></defs><g fill="none"><path d="M38.5 16.3l-8.4-15c-.4-.6-1-1.3-1.7-1.3h-18c-.7 0-1.3.7-1.7 1.3L.3 16.1c-.4.6-.4 1.5 0 2.1l8.4 14.7c.4.6 1 1.1 1.7 1.1h17.9c.7 0 1.4-.4 1.7-1l8.4-14.6c.5-.7.5-1.5.1-2.1z" fill="url(#a)"/><g fill="#FFF"><path d="M23.6 12.1h-8.4c-.4 0-.7.3-.7.7v8.4c0 .4.3.7.7.7h8.4c.4 0 .7-.3.7-.7v-8.4c0-.4-.3-.7-.7-.7z"/><path d="M17.1 11.4c.2 0 .3-.2.3-.3V9.7c0-.2-.2-.3-.3-.3-.1 0-.3.2-.3.3v1.4c0 .2.1.3.3.3zm2.3 0c.2 0 .3-.2.3-.3V9.7c0-.2-.2-.3-.3-.3-.1 0-.4.1-.4.3v1.4c0 .2.2.3.4.3zm2.3 0c.2 0 .3-.2.3-.3V9.7c0-.2-.2-.3-.3-.3-.1 0-.3.2-.3.3v1.4c-.1.2.1.3.3.3zm-4.6 11.2c-.2 0-.3.2-.3.3v1.4c0 .2.2.3.3.3.1 0 .3-.2.3-.3v-1.4c.1-.2-.1-.3-.3-.3zm2.3 0c-.2 0-.3.2-.3.3v1.4c0 .2.2.3.3.3.1 0 .3-.2.3-.3v-1.4c0-.2-.1-.3-.3-.3zm2.3 0c-.2 0-.3.2-.3.3v1.4c0 .2.2.3.3.3.1 0 .3-.2.3-.3v-1.4c0-.2-.1-.3-.3-.3zm3.6-7.5h1.4c.2 0 .3-.2.3-.3 0-.1-.2-.3-.3-.3h-1.4c-.2 0-.3.2-.3.3 0 .1.1.3.3.3zm1.4 1.6h-1.4c-.2 0-.3.2-.3.3 0 .1.2.3.3.3h1.4c.2 0 .3-.2.3-.3 0-.1-.1-.3-.3-.3zm0 2.2h-1.4c-.2 0-.3.2-.3.3 0 .1.2.3.3.3h1.4c.2 0 .3-.2.3-.3 0-.1-.1-.3-.3-.3zm-13.2-4.5h-1.4c-.2 0-.3.2-.3.3 0 .1.2.3.3.3h1.4c.2 0 .3-.2.3-.3 0-.1-.1-.3-.3-.3zm0 2.3h-1.4c-.2 0-.3.2-.3.3 0 .1.2.3.3.3h1.4c.2 0 .3-.2.3-.3 0-.1-.1-.3-.3-.3zm0 2.2h-1.4c-.2 0-.3.2-.3.3 0 .1.2.3.3.3h1.4c.2 0 .3-.2.3-.3 0-.1-.1-.3-.3-.3z" opacity=".4"/></g></g></svg>