<svg width="39" height="34" viewBox="0 0 39 34" xmlns="http://www.w3.org/2000/svg"><title>flow_qualityCheck</title><defs><linearGradient x1="83.926%" y1="16.101%" x2="13.216%" y2="86.821%" id="a"><stop stop-color="#2B87FF" offset="0%"/><stop stop-color="#134FFF" offset="100%"/></linearGradient></defs><g fill="none"><path d="M38.5 16.3l-8.4-15c-.4-.6-1-1.3-1.7-1.3h-18c-.7 0-1.3.7-1.7 1.3L.3 16.1c-.4.6-.4 1.5 0 2.1l8.4 14.7c.4.6 1 1.1 1.7 1.1h17.9c.7 0 1.4-.4 1.7-1l8.4-14.6c.5-.7.5-1.5.1-2.1z" fill="url(#a)"/><path d="M19.8 11.1l1.7 3.5 3.9.5c.3 0 .5.5.2.7l-2.8 2.7.7 3.9c.1.3-.3.6-.6.4L19.4 21l-3.5 1.8c-.3.2-.6-.1-.6-.4l.7-3.9-2.8-2.7c-.2-.2-.1-.6.2-.7l3.9-.5 1.7-3.5c.2-.3.6-.3.8 0z" fill="#FFF"/></g></svg>