<svg width="39" height="34" viewBox="0 0 39 34" xmlns="http://www.w3.org/2000/svg"><title>flow_incorrectAnswer</title><defs><linearGradient x1="83.926%" y1="16.101%" x2="13.216%" y2="86.821%" id="a"><stop stop-color="#2B87FF" offset="0%"/><stop stop-color="#134FFF" offset="100%"/></linearGradient></defs><g fill="none"><path d="M38.5 16.3l-8.4-15c-.4-.6-1-1.3-1.7-1.3h-18c-.7 0-1.3.7-1.7 1.3L.3 16.1c-.4.6-.4 1.5 0 2.1l8.4 14.7c.4.6 1 1.1 1.7 1.1h17.9c.7 0 1.4-.4 1.7-1l8.4-14.6c.5-.7.5-1.5.1-2.1z" fill="url(#a)"/><path d="M24.5 11.9c-2.8-2.8-7.4-2.8-10.2 0-2.8 2.8-2.8 7.4 0 10.2 2.8 2.8 7.4 2.8 10.2 0 2.8-2.8 2.8-7.4 0-10.2zm-2.5 7c.2.2.2.5 0 .7-.1.1-.2.1-.4.1s-.3-.1-.4-.1l-1.9-1.9-1.9 1.9c-.2.2-.5.2-.7 0-.2-.2-.2-.5 0-.7l1.9-1.9-1.9-1.9c-.2-.2-.2-.5 0-.7.2-.2.5-.2.7 0l1.9 1.9 1.9-1.9c.2-.2.5-.2.7 0 .2.2.2.5 0 .7L20.1 17l1.9 1.9z" fill="#FFF"/></g></svg>