<svg id="Layer_1" xmlns="http://www.w3.org/2000/svg" viewBox="0 0 100 72.7"><style>.st0,.st1{fill:#15e967}.st0{enable-background:new;opacity:.1}.st1{opacity:5e-2}.st1,.st2,.st3{enable-background:new}.st2{fill:#15e967;opacity:.2}.st3{opacity:.3}.st3,.st4{fill:#15e967}.st5{fill:#fff}</style><circle class="st0" cx="19.8" cy="7.4" r="1.5"/><circle class="st1" cx="10" cy="28.2" r="1.5"/><circle class="st2" cx="22.1" cy="62.5" r="1.5"/><circle class="st0" cx="8.5" cy="47.8" r="1.5"/><circle class="st2" cx="45.8" cy="9.7" r="1.5"/><circle class="st3" cx="25.1" cy="34.2" r="1.5"/><circle class="st2" cx="63.2" cy="21.6" r="1.5"/><circle class="st0" cx="93.2" cy="59.6" r="1.5"/><circle class="st0" cx="77.5" cy="14.3" r="1.5"/><circle class="st1" cx="88.4" cy="32.7" r="1.5"/><ellipse transform="rotate(-42.642 81.811 45.235)" class="st2" cx="81.8" cy="45.2" rx="1.5" ry="1.5"/><ellipse transform="rotate(-42.642 72.18 66.73)" class="st2" cx="72.2" cy="66.7" rx="1.5" ry="1.5"/><path class="st4" d="M67.2 48.3l-8.4-15c-.4-.6-1-1.3-1.7-1.3H39.2c-.7 0-1.4.7-1.7 1.3L29 48.1c-.4.6-.4 1.5 0 2.1l8.4 14.7c.4.6 1 1.1 1.7 1.1H57c.7 0 1.4-.4 1.7-1l8.4-14.6c.5-.7.5-1.5.1-2.1z"/><path class="st5" d="M53.3 47.7l-.7-.4 1.4-2.4c.2-.4.1-.8-.3-1.1l-3.8-2.2c-.4-.2-.8-.1-1.1.3l-1.4 2.4-.6-.4c-.3-.2-.7-.1-.8.2l-3.3 5.7c-1.2 2.1-.5 4.7 1.6 5.9s4.7.5 5.9-1.6l3.3-5.7c.1-.2 0-.6-.2-.7zm-3.1-3.1c-.1.2-.4.3-.6.2l-.3-.2c-.2-.1-.3-.4-.2-.6l.2-.3c.1-.2.4-.3.6-.2l.3.2c.2.1.3.4.2.6l-.2.3zm1.8 1.1c-.1.2-.4.3-.6.2l-.3-.2c-.2-.1-.3-.4-.2-.6l.2-.3c.1-.2.4-.3.6-.2l.3.2c.2.1.3.4.2.6l-.2.3z"/></svg>