<svg width="57" height="48" viewBox="0 0 57 48" xmlns="http://www.w3.org/2000/svg"><title>Artboard Copy 14</title><path d="M21.417 27.55c-.2 3.207-.844 2.816-4.543 3.063-3.251.218-4.479.796-3.669 1.727.405.466.92.526 1.66.195.59-.266 1.955-.507 3.032-.54 2.184-.063 2.157-.205.846 4.553-1.02 3.696-1.479 9.839-.774 10.345.29.209.86-.231 1.267-.98.57-1.048.593-1.563.1-2.248-.515-.718-.37-1.966.744-6.446 1.194-4.803 1.563-5.626 2.72-6.058.737-.275 1.48-.34 1.65-.143.17.196-.65 2.548-1.826 5.228-1.175 2.679-3.212 7.156-2.68 7.461.534.305 2.225-3.524 4.756-8.915.755-1.607 1.559-3.291 1.934-3.664.445-.442 2.25-.59 5.163-.424 4.773.272 6.762 1.188 10 4.607 2.245 2.371 3.134 1.614 3.452-2.942.156-2.227.543-4.021.911-4.214.352-.185 1.69-.345 2.972-.357 3.359-.03 6.802-1.017 7.071-2.027.29-1.087-1.585-3.854-2.23-3.295-.262.227-.216.9.102 1.496.74 1.394-.04 1.971-3.09 2.286-1.238.129-2.824.329-3.524.446-1.21.202-1.26.052-1.044-3.046.125-1.792 1.068-6.292 2.096-10 2.185-7.885 2.45-9.998 1.264-10.08-.5-.035-.87.454-.924 1.221-.049.703-.74 3.484-1.538 6.179-.795 2.694-1.502 5.6-1.569 6.455-.193 2.487-1.84 4.733-3.39 4.625-.628-.044-3.763-1.33-4.965-2.024-.837-.483-.945-.11.34-4.167 1.978-6.245 1.227-7.108-1.683-1.934-1.04 1.848-3.043 4.915-4.454 6.813-1.41 1.9-3.143 4.478-3.85 5.73-1.347 2.386-2.694 3.311-4.62 3.177-1.403-.098 2.028-9.72 2.484-11.84 1.217-5.646 4.71-14.34 5.995-14.915.586-.262.763-.43 1.391-.102.646.337.129 4.245-.837 8.49-.473 2.081-.835 4.62-.802 5.639.05 1.574 2.464-7.52 2.809-9.63.524-3.191.684-4.17.084-4.973-.819-1.096-2.45-1.297-4.03.165-2.594 3.521-8.691 23.267-8.801 25.062zm12.213-1.793c.61.701 1.726-.198 2.136-1.488.449-1.41.888-3.732 1.78-2.67.892 1.061 5.375 2.08 5.598 1.77.874-1.215 1.71-.474 1.406 1.496l-.318 2.074-3.365.18c-1.852.098-5.39.544-7.863.987-4.798.862-6.294.444-4.6-1.284.499-.51 1.566-2.012 2.372-3.34 1.781-2.936 2.595-4.178 3.78-5.764.789-1.057 1.126-1.052 1.01.016.056.677-.418 2.688-1.054 4.468-.636 1.781-1.033 3.381-.882 3.555zm9.105 8.62c-.302-.02-1.352-.848-2.332-1.839-.995-1.004-2.037-1.644-3.292-1.946-1.254-.303-1.993-.38-2.587-.665-.923-.446-.747-.59 1.187-.993 1.247-.259 2.895-.446 3.66-.416.767.03 4.409-.865 4.754-.209.446.85-.76 6.112-1.39 6.068zM8.15 20.221c-.276.441-.974.77-1.551.73-.776-.051-1.43.779-2.505 3.18-1.727 3.858-2.191 6.762-.937 5.862.443-.32.998-1.394 1.231-2.39.585-2.486 2.58-6.224 2.847-5.332.298 1-1.196 5.77-3.037 9.691-.838 1.785-1.768 4.197-2.068 5.358-.466 1.804-.407 2.094.402 1.984.598-.08 1.554-1.53 2.59-3.925 2.36-5.46 6.76-22.96 7.64-25.97.879-3.011 1.456-5.746 1.283-6.076-.62-1.178-1.917-.728-2.017.7-.147 2.106-3.3 15.265-3.878 16.188zM15.466 7.65c-.618 1.326-.602 2.872.033 3.134.566.234-2.13 9.823-3.734 13.277-.505 1.088-.565 1.767-.195 2.194.89 1.023 1.732-.21 2.537-3.718.41-1.782 1.22-4.583 1.802-6.222 1.377-3.89 1.802-9.391.73-9.466-.425-.03-.954.33-1.173.801m26.973 3.299c.667-.58.298-2.275-.508-2.332-.297-.02-.72.212-.94.517-.58.808.725 2.443 1.448 1.815zm-33.935.405c-.17.425-.517 1.763-.773 2.974l-.463 2.203 1.288-2.38c.857-1.583 1.115-2.578.772-2.973-.343-.394-.62-.336-.824.176m19.583 7.824c-.232.948-.64 2.392-.907 3.21-.454 1.387-.403 1.45.745.936.677-.304 1.653-2.762 2-3.064.444-.386.433-1.121-.039-2.488-.457-1.329-.78-1.685-1.024-1.129-.194.448-.544 1.588-.775 2.535zM15.79 21.625c.239.412.33 1.768.486 3.036.405 3.293 1.068 3.691 2.623.665.699-1.36 2.193-3.127 2.246-3.891.054-.765-.473-.767-.79-.79-.6-.041-.557-.239-1.285 2.238-.663 2.261-1.678 1.746-1.71-.753-.018-1.462-.316-2.168-.987-2.345-.537-.14-.984.084-1.013.511-.03.42.191.916.43 1.329z" fill="#FFF" fill-rule="evenodd"/></svg>