<svg width="32" height="32" viewBox="0 0 32 32" xmlns="http://www.w3.org/2000/svg"><title>Icon_LineAnnotation</title><defs><linearGradient x1="83.926%" y1="16.101%" x2="13.216%" y2="86.821%" id="a"><stop stop-color="#2B87FF" offset="0%"/><stop stop-color="#134FFF" offset="100%"/></linearGradient></defs><g fill="none" fill-rule="evenodd"><rect fill="url(#a)" width="32" height="32" rx="2"/><g fill="#FFF" fill-rule="nonzero"><path d="M24.5 24.5h-2v-1c0-3.584-2.916-6.5-6.5-6.5h-1v-2h1c4.687 0 8.5 3.814 8.5 8.5v1z"/><path d="M17 17h-1c-4.686 0-8.5-3.813-8.5-8.5v-1h2v1c0 3.584 2.916 6.5 6.5 6.5h1v2z"/></g><path d="M17 6v2h-2V6z" opacity=".4" fill="#FFF" fill-rule="nonzero"/><g fill="#FFF" fill-rule="nonzero"><path d="M10 7v3H7V7z"/><path d="M10.5 10.5h-4v-4h4v4zm-3-1h2v-2h-2v2z"/></g><g fill="#FFF" fill-rule="nonzero"><path d="M25 23v3h-3v-3z"/><path d="M25.5 26.5h-4v-4h4v4zm-3-1h2v-2h-2v2z"/></g><path d="M17.5 17.5h-3v-3h3v3zm-2-1h1v-1h-1v1z" opacity=".4" fill="#FFF" fill-rule="nonzero"/><path d="M16.5 8v16h-1V8zm.5 16v2h-2v-2z" opacity=".4" fill="#FFF" fill-rule="nonzero"/></g></svg>