<svg width="32" height="32" viewBox="0 0 32 32" xmlns="http://www.w3.org/2000/svg"><title>landing_assuredQuality</title><defs><linearGradient x1="83.926%" y1="16.101%" x2="13.216%" y2="86.821%" id="a"><stop stop-color="#2B87FF" offset="0%"/><stop stop-color="#134FFF" offset="100%"/></linearGradient></defs><g fill="none" fill-rule="evenodd"><rect fill="url(#a)" width="32" height="32" rx="2"/><path d="M21.475 21.475c-2.902 2.902-7.67 2.902-10.572 0-2.902-2.902-2.902-7.67 0-10.572 2.902-2.902 7.67-2.902 10.572 0 2.902 2.902 2.902 7.67 0 10.572z" fill="#FFF"/><path d="M18.47 13.287l-3.421 4.457-1.14-1.348c-.207-.31-.726-.31-.933-.103-.104.103-.207.31-.207.414 0 .208 0 .311.207.519l1.658 1.865c.104.207.311.207.519.207.207 0 .414 0 .518-.207l3.938-5.078c.104-.104.208-.311.104-.519-.104-.207-.104-.31-.31-.414-.208-.208-.726-.104-.934.207z" fill="#78A4FF" fill-rule="nonzero"/></g></svg>