<svg width="32" height="32" viewBox="0 0 32 32" xmlns="http://www.w3.org/2000/svg"><title>landing_fullyManaged</title><defs><linearGradient x1="83.926%" y1="16.101%" x2="13.216%" y2="86.821%" id="a"><stop stop-color="#2B87FF" offset="0%"/><stop stop-color="#134FFF" offset="100%"/></linearGradient></defs><g fill="none" fill-rule="evenodd"><rect fill="url(#a)" width="32" height="32" rx="2"/><path d="M23.45 16.233c0 .466 0 .931-.465.931-.466 0-.931.35-1.164.815-.117.466.116 1.048.466 1.28.349.35.465.816.232 1.281l-.232.35c-.35.349-.815.465-1.281.232-.35-.232-.931-.232-1.397 0-.35.35-.582.932-.35 1.281.117.466-.116.931-.581 1.164l-.466.117c-.466.116-.931-.117-1.164-.583A1.118 1.118 0 0 0 16 22.287c-.466 0-.931.349-1.048.814-.116.466-.698.699-1.164.583l-.466-.117c-.465-.116-.698-.698-.582-1.164.117-.466 0-1.048-.349-1.28-.35-.233-1.048-.233-1.397 0a.947.947 0 0 1-1.28-.233l-.233-.35c-.35-.349-.233-.931.232-1.28.35-.233.583-.815.466-1.28-.233-.467-.698-.816-1.164-.816-.466 0-.466-.465-.466-.931v-.466c0-.466 0-.931.466-.931s.931-.35 1.164-.815c.117-.466-.116-1.048-.466-1.28-.349-.35-.465-.816-.232-1.281l.232-.35c.35-.349.815-.465 1.281-.232.35.232.931.232 1.397 0 .35-.35.582-.932.35-1.281-.117-.466.116-.931.581-1.164l.466-.117c.466-.116.931.117 1.164.583.117.465.582.814 1.048.814.466 0 .931-.349 1.048-.814.116-.466.698-.699 1.164-.583l.466.117c.465.116.698.698.582 1.164-.117.466 0 1.048.349 1.28.35.233 1.048.233 1.397 0a.947.947 0 0 1 1.28.233l.233.35c.35.349.233.931-.232 1.28-.35.233-.583.815-.466 1.28.233.467.698.816 1.164.816.466 0 .466.465.466.931v.466z" fill="#FFF"/><circle fill="#78A4FF" cx="16" cy="16" r="2.531"/></g></svg>