<svg width="32" height="32" viewBox="0 0 32 32" xmlns="http://www.w3.org/2000/svg"><title>landing_fullyScalable</title><defs><linearGradient x1="83.926%" y1="16.101%" x2="13.216%" y2="86.821%" id="a"><stop stop-color="#2B87FF" offset="0%"/><stop stop-color="#134FFF" offset="100%"/></linearGradient></defs><g fill="none" fill-rule="evenodd"><rect fill="url(#a)" width="32" height="32" rx="2"/><g fill="#FFF"><path d="M23.36 8.006c-1.621-1.014-5.169.608-8.31 3.75-.609.609-1.116 1.217-1.623 1.825l-2.33-.71-1.116 3.244 1.825.81-.913 1.623 2.028 2.027 1.621-.912.811 1.824 3.244-1.115-.811-2.433c.608-.506 1.216-1.013 1.824-1.621 3.143-3.041 4.764-6.69 3.75-8.312z" fill-rule="nonzero"/><path d="M7.654 23.893c.519.502 3.764-.214 5.1-1.598 1.337-1.384 1.13-3.783.61-4.284-.519-.501-2.894-.657-4.23.727-1.337 1.384-2 4.654-1.48 5.155z" opacity=".4"/></g></g></svg>