<svg id="Layer_1" xmlns="http://www.w3.org/2000/svg" xmlns:xlink="http://www.w3.org/1999/xlink" viewBox="0 0 32 32"><style>.st0{opacity:.3;fill:#4460a0}.st1{clip-path:url(#SVGID_2_)}.st2{opacity:.3;clip-path:url(#SVGID_4_);fill:#4460a0}.st3{clip-path:url(#SVGID_6_)}.st4{clip-path:url(#SVGID_8_);fill:#fff}.st5{clip-path:url(#SVGID_10_)}.st6{opacity:.3;clip-path:url(#SVGID_12_);fill:#4460a0}.st7{clip-path:url(#SVGID_14_)}.st8{clip-path:url(#SVGID_16_);fill:#fff}.st9{clip-path:url(#SVGID_18_)}.st10{opacity:.3;clip-path:url(#SVGID_20_);fill:#4460a0}.st11{clip-path:url(#SVGID_22_)}.st12{clip-path:url(#SVGID_24_);fill:#fff}.st13{clip-path:url(#SVGID_26_)}.st14{opacity:.3;clip-path:url(#SVGID_28_);fill:#4460a0}.st15{clip-path:url(#SVGID_30_)}.st16{clip-path:url(#SVGID_32_);fill:#fff}.st17{clip-path:url(#SVGID_34_)}.st18{opacity:.3;clip-path:url(#SVGID_36_);fill:#4460a0}.st19{clip-path:url(#SVGID_38_)}.st20{clip-path:url(#SVGID_40_);fill:#fff}.st21{clip-path:url(#SVGID_42_)}.st22{opacity:.3;clip-path:url(#SVGID_44_);fill:#4460a0}.st23{clip-path:url(#SVGID_46_)}.st24{clip-path:url(#SVGID_48_);fill:#fff}.st25{clip-path:url(#SVGID_50_)}.st26{opacity:.3;clip-path:url(#SVGID_52_);fill:#4460a0}.st27{clip-path:url(#SVGID_54_)}.st28{clip-path:url(#SVGID_56_);fill:#fff}.st29{clip-path:url(#SVGID_58_)}.st30{opacity:.3;clip-path:url(#SVGID_60_);fill:#4460a0}.st31{clip-path:url(#SVGID_62_)}.st32{clip-path:url(#SVGID_64_);fill:#fff}.st33{clip-path:url(#SVGID_66_)}.st34{opacity:.3;clip-path:url(#SVGID_68_);fill:#4460a0}.st35{clip-path:url(#SVGID_70_)}.st36{clip-path:url(#SVGID_72_);fill:#fff}.st37{clip-path:url(#SVGID_74_)}.st38{opacity:.3;clip-path:url(#SVGID_76_);fill:#4460a0}.st39{clip-path:url(#SVGID_78_)}.st40{clip-path:url(#SVGID_80_)}.st40,.st41{fill:#fff}.st42{clip-path:url(#SVGID_82_)}.st43{opacity:.3;clip-path:url(#SVGID_84_);fill:#4460a0}.st44{clip-path:url(#SVGID_86_)}.st45{opacity:.3;clip-path:url(#SVGID_88_);fill:#4460a0}</style><path class="st0" d="M30 32H2c-1.1 0-2-.9-2-2V2C0 .9.9 0 2 0h28c1.1 0 2 .9 2 2v28c0 1.1-.9 2-2 2z"/><defs><path id="SVGID_1_" d="M395 2568h24c2.2 0 4 1.8 4 4v23.8c0 2.2-1.8 4-4 4h-24c-2.2 0-4-1.8-4-4V2572c0-2.2 1.8-4 4-4z"/></defs><clipPath id="SVGID_2_"><use xlink:href="#SVGID_1_" overflow="visible"/></clipPath><g class="st1"><defs><path id="SVGID_3_" d="M-725-2758.7H555v5551H-725z"/></defs><clipPath id="SVGID_4_"><use xlink:href="#SVGID_3_" overflow="visible"/></clipPath></g><defs><path id="SVGID_5_" d="M400.4 2581.2h2.7v8.9h-2.7v-8.9zm1.2-1.1c-1 0-1.6-.7-1.6-1.5 0-.9.7-1.5 1.7-1.5s1.6.7 1.6 1.5-.6 1.5-1.7 1.5zm12.4 10h-3.1v-4.6c0-1.2-.5-2-1.5-2-.8 0-1.3.6-1.5 1.1-.1.2-.1.5-.1.7v4.8h-3.1v-8.9h3.1v1.4c.2-.6 1.2-1.5 2.7-1.5 1.9 0 3.5 1.3 3.5 4v5z"/></defs><clipPath id="SVGID_6_"><use xlink:href="#SVGID_5_" overflow="visible"/></clipPath><g class="st3"><defs><path id="SVGID_7_" d="M-725-2758.7H555v5551H-725z"/></defs><clipPath id="SVGID_8_"><use xlink:href="#SVGID_7_" overflow="visible"/></clipPath></g><defs><path id="SVGID_9_" d="M307 2568h24c2.2 0 4 1.8 4 4v23.8c0 2.2-1.8 4-4 4h-24c-2.2 0-4-1.8-4-4V2572c0-2.2 1.8-4 4-4z"/></defs><clipPath id="SVGID_10_"><use xlink:href="#SVGID_9_" overflow="visible"/></clipPath><g class="st5"><defs><path id="SVGID_11_" d="M-725-2758.7H555v5551H-725z"/></defs><clipPath id="SVGID_12_"><use xlink:href="#SVGID_11_" overflow="visible"/></clipPath></g><defs><path id="SVGID_13_" d="M326 2580c-.5.2-1.1.4-1.6.5.6-.4 1-.9 1.3-1.6-.6.3-1.2.6-1.8.7-.5-.6-1.3-.9-2.1-.9-1.6 0-2.9 1.3-2.9 2.9 0 .2 0 .5.1.7-2.4-.1-4.5-1.3-5.9-3.1-.2.4-.4.9-.4 1.5 0 1 .5 1.9 1.3 2.4-.5 0-.9-.1-1.3-.4 0 1.4 1 2.6 2.3 2.9-.2.1-.5.1-.8.1-.2 0-.4 0-.5-.1.4 1.2 1.4 2 2.7 2-1 .8-2.2 1.3-3.6 1.3h-.7c1.3.8 2.8 1.3 4.4 1.3 5.3 0 8.2-4.5 8.2-8.3v-.4c.4-.4.9-.9 1.3-1.5"/></defs><clipPath id="SVGID_14_"><use xlink:href="#SVGID_13_" overflow="visible"/></clipPath><g class="st7"><defs><path id="SVGID_15_" d="M-725-2758.7H555v5551H-725z"/></defs><clipPath id="SVGID_16_"><use xlink:href="#SVGID_15_" overflow="visible"/></clipPath></g><defs><path id="SVGID_17_" d="M351 2568h24c2.2 0 4 1.8 4 4v23.8c0 2.2-1.8 4-4 4h-24c-2.2 0-4-1.8-4-4V2572c0-2.2 1.8-4 4-4z"/></defs><clipPath id="SVGID_18_"><use xlink:href="#SVGID_17_" overflow="visible"/></clipPath><g class="st9"><defs><path id="SVGID_19_" d="M-725-2758.7H555v5551H-725z"/></defs><clipPath id="SVGID_20_"><use xlink:href="#SVGID_19_" overflow="visible"/></clipPath></g><defs><path id="SVGID_21_" d="M364.2 2591.6v-6.7h2.4l.4-2.6h-2.7v-1.7c0-.8.2-1.3 1.4-1.3h1.5v-2.3c-.3 0-1.1-.1-2.1-.1-2.1 0-3.5 1.2-3.5 3.4v1.9H359v2.6h2.4v6.7h2.8z"/></defs><clipPath id="SVGID_22_"><use xlink:href="#SVGID_21_" overflow="visible"/></clipPath><g class="st11"><defs><path id="SVGID_23_" d="M-725-2758.7H555v5551H-725z"/></defs><clipPath id="SVGID_24_"><use xlink:href="#SVGID_23_" overflow="visible"/></clipPath></g><defs><path id="SVGID_25_" d="M-126 2375h24c2.2 0 4 1.8 4 4v23.8c0 2.2-1.8 4-4 4h-24c-2.2 0-4-1.8-4-4V2379c0-2.2 1.8-4 4-4z"/></defs><clipPath id="SVGID_26_"><use xlink:href="#SVGID_25_" overflow="visible"/></clipPath><g class="st13"><defs><path id="SVGID_27_" d="M-1246-2951.7H34v5551h-1280z"/></defs><clipPath id="SVGID_28_"><use xlink:href="#SVGID_27_" overflow="visible"/></clipPath></g><defs><path id="SVGID_29_" d="M-120.6 2388.2h2.7v8.9h-2.7v-8.9zm1.2-1.1c-1 0-1.6-.7-1.6-1.5 0-.9.7-1.5 1.7-1.5s1.6.7 1.6 1.5-.6 1.5-1.7 1.5zm12.4 10h-3.1v-4.6c0-1.2-.5-2-1.5-2-.8 0-1.3.6-1.5 1.1-.1.2-.1.5-.1.7v4.8h-3.1v-8.9h3.1v1.4c.2-.6 1.2-1.5 2.7-1.5 1.9 0 3.5 1.3 3.5 4v5z"/></defs><clipPath id="SVGID_30_"><use xlink:href="#SVGID_29_" overflow="visible"/></clipPath><g class="st15"><defs><path id="SVGID_31_" d="M-1246-2951.7H34v5551h-1280z"/></defs><clipPath id="SVGID_32_"><use xlink:href="#SVGID_31_" overflow="visible"/></clipPath></g><defs><path id="SVGID_33_" d="M-214 2375h24c2.2 0 4 1.8 4 4v23.8c0 2.2-1.8 4-4 4h-24c-2.2 0-4-1.8-4-4V2379c0-2.2 1.8-4 4-4z"/></defs><clipPath id="SVGID_34_"><use xlink:href="#SVGID_33_" overflow="visible"/></clipPath><g class="st17"><defs><path id="SVGID_35_" d="M-1246-2951.7H34v5551h-1280z"/></defs><clipPath id="SVGID_36_"><use xlink:href="#SVGID_35_" overflow="visible"/></clipPath></g><defs><path id="SVGID_37_" d="M-195 2387c-.5.2-1.1.4-1.6.5.6-.4 1-.9 1.3-1.6-.6.3-1.2.6-1.8.7-.5-.6-1.3-.9-2.1-.9-1.6 0-2.9 1.3-2.9 2.9 0 .2 0 .5.1.7-2.4-.1-4.5-1.3-5.9-3.1-.2.4-.4.9-.4 1.5 0 1 .5 1.9 1.3 2.4-.5 0-.9-.1-1.3-.4 0 1.4 1 2.6 2.3 2.9-.2.1-.5.1-.8.1-.2 0-.4 0-.5-.1.4 1.2 1.4 2 2.7 2-1 .8-2.2 1.3-3.6 1.3h-.7c1.3.8 2.8 1.3 4.4 1.3 5.3 0 8.2-4.5 8.2-8.3v-.4c.4-.4.9-.9 1.3-1.5"/></defs><clipPath id="SVGID_38_"><use xlink:href="#SVGID_37_" overflow="visible"/></clipPath><g class="st19"><defs><path id="SVGID_39_" d="M-1246-2951.7H34v5551h-1280z"/></defs><clipPath id="SVGID_40_"><use xlink:href="#SVGID_39_" overflow="visible"/></clipPath></g><defs><path id="SVGID_41_" d="M-170 2375h24c2.2 0 4 1.8 4 4v23.8c0 2.2-1.8 4-4 4h-24c-2.2 0-4-1.8-4-4V2379c0-2.2 1.8-4 4-4z"/></defs><clipPath id="SVGID_42_"><use xlink:href="#SVGID_41_" overflow="visible"/></clipPath><g class="st21"><defs><path id="SVGID_43_" d="M-1246-2951.7H34v5551h-1280z"/></defs><clipPath id="SVGID_44_"><use xlink:href="#SVGID_43_" overflow="visible"/></clipPath></g><defs><path id="SVGID_45_" d="M-156.8 2398.6v-6.7h2.4l.4-2.6h-2.7v-1.7c0-.8.2-1.3 1.4-1.3h1.5v-2.3c-.3 0-1.1-.1-2.1-.1-2.1 0-3.5 1.2-3.5 3.4v1.9h-2.4v2.6h2.4v6.7h2.6z"/></defs><clipPath id="SVGID_46_"><use xlink:href="#SVGID_45_" overflow="visible"/></clipPath><g class="st23"><defs><path id="SVGID_47_" d="M-1246-2951.7H34v5551h-1280z"/></defs><clipPath id="SVGID_48_"><use xlink:href="#SVGID_47_" overflow="visible"/></clipPath></g><defs><path id="SVGID_49_" d="M396 2567h24c2.2 0 4 1.8 4 4v23.8c0 2.2-1.8 4-4 4h-24c-2.2 0-4-1.8-4-4V2571c0-2.2 1.8-4 4-4z"/></defs><clipPath id="SVGID_50_"><use xlink:href="#SVGID_49_" overflow="visible"/></clipPath><g class="st25"><defs><path id="SVGID_51_" d="M-724-2759.7H556v5551H-724z"/></defs><clipPath id="SVGID_52_"><use xlink:href="#SVGID_51_" overflow="visible"/></clipPath></g><defs><path id="SVGID_53_" d="M401.4 2580.2h2.7v8.9h-2.7v-8.9zm1.2-1.1c-1 0-1.6-.7-1.6-1.5 0-.9.7-1.5 1.7-1.5s1.6.7 1.6 1.5-.6 1.5-1.7 1.5zm12.4 10h-3.1v-4.6c0-1.2-.5-2-1.5-2-.8 0-1.3.6-1.5 1.1-.1.2-.1.5-.1.7v4.8h-3.1v-8.9h3.1v1.4c.2-.6 1.2-1.5 2.7-1.5 1.9 0 3.5 1.3 3.5 4v5z"/></defs><clipPath id="SVGID_54_"><use xlink:href="#SVGID_53_" overflow="visible"/></clipPath><g class="st27"><defs><path id="SVGID_55_" d="M-724-2759.7H556v5551H-724z"/></defs><clipPath id="SVGID_56_"><use xlink:href="#SVGID_55_" overflow="visible"/></clipPath></g><defs><path id="SVGID_57_" d="M308 2567h24c2.2 0 4 1.8 4 4v23.8c0 2.2-1.8 4-4 4h-24c-2.2 0-4-1.8-4-4V2571c0-2.2 1.8-4 4-4z"/></defs><clipPath id="SVGID_58_"><use xlink:href="#SVGID_57_" overflow="visible"/></clipPath><g class="st29"><defs><path id="SVGID_59_" d="M-724-2759.7H556v5551H-724z"/></defs><clipPath id="SVGID_60_"><use xlink:href="#SVGID_59_" overflow="visible"/></clipPath></g><defs><path id="SVGID_61_" d="M327 2579c-.5.2-1.1.4-1.6.5.6-.4 1-.9 1.3-1.6-.6.3-1.2.6-1.8.7-.5-.6-1.3-.9-2.1-.9-1.6 0-2.9 1.3-2.9 2.9 0 .2 0 .5.1.7-2.4-.1-4.5-1.3-5.9-3.1-.2.4-.4.9-.4 1.5 0 1 .5 1.9 1.3 2.4-.5 0-.9-.1-1.3-.4 0 1.4 1 2.6 2.3 2.9-.2.1-.5.1-.8.1-.2 0-.4 0-.5-.1.4 1.2 1.4 2 2.7 2-1 .8-2.2 1.3-3.6 1.3h-.7c1.3.8 2.8 1.3 4.4 1.3 5.3 0 8.2-4.5 8.2-8.3v-.4c.4-.4.9-.9 1.3-1.5"/></defs><clipPath id="SVGID_62_"><use xlink:href="#SVGID_61_" overflow="visible"/></clipPath><g class="st31"><defs><path id="SVGID_63_" d="M-724-2759.7H556v5551H-724z"/></defs><clipPath id="SVGID_64_"><use xlink:href="#SVGID_63_" overflow="visible"/></clipPath></g><defs><path id="SVGID_65_" d="M352 2567h24c2.2 0 4 1.8 4 4v23.8c0 2.2-1.8 4-4 4h-24c-2.2 0-4-1.8-4-4V2571c0-2.2 1.8-4 4-4z"/></defs><clipPath id="SVGID_66_"><use xlink:href="#SVGID_65_" overflow="visible"/></clipPath><g class="st33"><defs><path id="SVGID_67_" d="M-724-2759.7H556v5551H-724z"/></defs><clipPath id="SVGID_68_"><use xlink:href="#SVGID_67_" overflow="visible"/></clipPath></g><defs><path id="SVGID_69_" d="M365.2 2590.6v-6.7h2.4l.4-2.6h-2.7v-1.7c0-.8.2-1.3 1.4-1.3h1.5v-2.3c-.3 0-1.1-.1-2.1-.1-2.1 0-3.5 1.2-3.5 3.4v1.9H360v2.6h2.4v6.7h2.8z"/></defs><clipPath id="SVGID_70_"><use xlink:href="#SVGID_69_" overflow="visible"/></clipPath><g class="st35"><defs><path id="SVGID_71_" d="M-724-2759.7H556v5551H-724z"/></defs><clipPath id="SVGID_72_"><use xlink:href="#SVGID_71_" overflow="visible"/></clipPath></g><defs><path id="SVGID_73_" d="M396 2567h24c2.2 0 4 1.8 4 4v23.8c0 2.2-1.8 4-4 4h-24c-2.2 0-4-1.8-4-4V2571c0-2.2 1.8-4 4-4z"/></defs><clipPath id="SVGID_74_"><use xlink:href="#SVGID_73_" overflow="visible"/></clipPath><g class="st37"><defs><path id="SVGID_75_" d="M-724-2759.7H556v5551H-724z"/></defs><clipPath id="SVGID_76_"><use xlink:href="#SVGID_75_" overflow="visible"/></clipPath></g><defs><path id="SVGID_77_" d="M401.4 2580.2h2.7v8.9h-2.7v-8.9zm1.2-1.1c-1 0-1.6-.7-1.6-1.5 0-.9.7-1.5 1.7-1.5s1.6.7 1.6 1.5-.6 1.5-1.7 1.5zm12.4 10h-3.1v-4.6c0-1.2-.5-2-1.5-2-.8 0-1.3.6-1.5 1.1-.1.2-.1.5-.1.7v4.8h-3.1v-8.9h3.1v1.4c.2-.6 1.2-1.5 2.7-1.5 1.9 0 3.5 1.3 3.5 4v5z"/></defs><clipPath id="SVGID_78_"><use xlink:href="#SVGID_77_" overflow="visible"/></clipPath><g class="st39"><defs><path id="SVGID_79_" d="M-724-2759.7H556v5551H-724z"/></defs><clipPath id="SVGID_80_"><use xlink:href="#SVGID_79_" overflow="visible"/></clipPath></g><g id="Icons_2_"><g id="Color-_2_" transform="translate(-702 -265)"><path id="LinkedIn" class="st41" d="M724.8 287.8h-3.3V283c0-1.2-.5-2.1-1.7-2.1-.9 0-1.4.6-1.6 1.1-.1.2-.1.5-.1.8v5h-3.3v-9.2h3.3v1.4c.2-.6 1.2-1.5 2.9-1.5 2.1 0 3.7 1.3 3.7 4.2v5.1h.1zm-13.2-10.4c-1.1 0-1.8-.7-1.8-1.6 0-.9.7-1.6 1.8-1.6s1.7.7 1.8 1.6c0 .9-.7 1.6-1.8 1.6zm-1.4 1.2h2.9v9.2h-2.9v-9.2z"/></g></g><defs><path id="SVGID_81_" d="M424 2567h28c1.1 0 2 .9 2 2v27.8c0 1.1-.9 2-2 2h-28c-1.1 0-2-.9-2-2V2569c0-1.1.9-2 2-2z"/></defs><clipPath id="SVGID_82_"><use xlink:href="#SVGID_81_" overflow="visible"/></clipPath><g class="st42"><defs><path id="SVGID_83_" d="M-650-2759.7H630v5551H-650z"/></defs><clipPath id="SVGID_84_"><use xlink:href="#SVGID_83_" overflow="visible"/></clipPath></g><defs><path id="SVGID_85_" d="M710 2824h28c1.1 0 2 .9 2 2v27.8c0 1.1-.9 2-2 2h-28c-1.1 0-2-.9-2-2V2826c0-1.1.9-2 2-2z"/></defs><clipPath id="SVGID_86_"><use xlink:href="#SVGID_85_" overflow="visible"/></clipPath><g class="st44"><defs><path id="SVGID_87_" d="M-364-2502.7H916v5551H-364z"/></defs><clipPath id="SVGID_88_"><use xlink:href="#SVGID_87_" overflow="visible"/></clipPath></g></svg>