<svg id="Layer_1" xmlns="http://www.w3.org/2000/svg" viewBox="0 0 366.7 103.5"><style>.st0{fill:#fff}.st1{enable-background:new}</style><title>Artboard</title><g id="Group-7" transform="translate(3.5)"><path id="Combined-Shape-Copy" class="st0" d="M47.2 56.8l-1.6 1.6c-.4.4-.9.4-.9.9-8.3 7.1-22 13.2-27.4 16.1V64.2c7.1-4.1 16.6-9.1 21.6-15.7C31.4 41 18.2 33.1 8.3 30.2v55.1c-2.5-.4-5.8-.9-9.1-7.1-3.9-6.5-2.7-38.5-1.9-47.1 1.6-29.8 40.9 0 50.2 9.5 2.8 2.8 4.6 6.2 4.6 8.7-.4 2.1-2.8 4.9-4.9 7.5zM17.8 43.9s0-1.6 1.3-.9h.4l6.1 4.6c.4 0 .4.4.4.4s1.6.9 0 2.1l-6.2 4.1h-.4s-1.6.9-1.6-.4v-9.9z"/></g><g class="st1"><path class="st0" d="M75.2 76.4V27.3h14c2.7 0 5.2.2 7.5.7s4.2 1.3 5.8 2.4c1.6 1.1 2.8 2.6 3.7 4.4.9 1.8 1.3 4.1 1.3 6.8 0 2.6-.4 4.8-1.3 6.7s-2.1 3.5-3.7 4.7-3.5 2.2-5.7 2.8-4.7.9-7.4.9h-8.1v19.4h-6.1v.3zm6.2-24.5h7.3c4.3 0 7.5-.8 9.5-2.4 2.1-1.6 3.1-4.2 3.1-7.7s-1.1-6-3.3-7.4c-2.2-1.4-5.4-2.1-9.7-2.1h-7l.1 19.6zm42 25.4c-2.3 0-4-.7-5-2.1s-1.5-3.4-1.5-6.1V23.2h6.1v46.4c0 1 .2 1.7.5 2.1.3.4.7.6 1.2.6h.6c.2 0 .4 0 .8-.1l.8 4.6c-.4.2-.9.3-1.4.4-.5 0-1.2.1-2.1.1zm21 0c-3 0-5.6-.9-7.6-2.7s-3-4.3-3-7.6c0-4 1.8-7 5.3-9.2 3.5-2.1 9.2-3.6 17-4.4 0-1.1-.1-2.3-.3-3.4-.2-1.1-.6-2.1-1.2-2.9-.5-.8-1.3-1.5-2.3-2.1-1-.5-2.2-.8-3.7-.8-2.1 0-4.1.4-5.9 1.2-1.8.8-3.5 1.7-4.9 2.7l-2.4-4.3c1.7-1.1 3.8-2.2 6.2-3.2s5.1-1.5 8.1-1.5c4.4 0 7.7 1.4 9.6 4.1 2 2.7 3 6.3 3 10.9v22.3h-5.1l-.5-4.3h-.2c-1.7 1.4-3.6 2.7-5.6 3.7-2.1 1-4.3 1.5-6.5 1.5zm1.8-4.9c1.7 0 3.4-.4 4.9-1.2 1.5-.8 3.2-2 4.9-3.6V57.4c-3 .4-5.6.9-7.7 1.4-2.1.5-3.7 1.2-5 1.9s-2.2 1.6-2.8 2.6-.9 2-.9 3.2c0 2.1.6 3.6 1.9 4.5 1.3.9 2.9 1.4 4.7 1.4zM174.3 92c-.8 0-1.6-.1-2.3-.2s-1.3-.3-1.9-.6l1.2-4.9c.4.1.8.2 1.3.3.5.1 1 .2 1.4.2 2.1 0 3.8-.7 5.1-2.2s2.4-3.3 3.1-5.6l.8-2.7-14.6-36.4h6.4l7.4 20.1c.5 1.6 1.1 3.3 1.8 5 .6 1.8 1.2 3.5 1.8 5.2h.3c.5-1.6 1.1-3.4 1.6-5.2.5-1.8 1-3.5 1.5-5.1l6.5-20.1h6L188 79.1c-.6 1.8-1.4 3.5-2.2 5s-1.7 2.9-2.8 4-2.3 2-3.7 2.7c-1.6.9-3.2 1.2-5 1.2zm34.3-15.6V40.1h5.1l.5 5.2h.2c1.6-1.7 3.3-3.2 5.2-4.4s3.9-1.8 6.1-1.8c2.8 0 5 .6 6.5 1.8 1.6 1.2 2.7 2.9 3.5 5.1 1.9-2.1 3.8-3.8 5.7-5 1.9-1.3 4-1.9 6.2-1.9 3.7 0 6.5 1.2 8.3 3.6 1.8 2.4 2.7 5.9 2.7 10.6v23h-6.1V54.2c0-3.4-.5-5.9-1.6-7.4s-2.8-2.3-5.1-2.3c-2.7 0-5.8 1.9-9.1 5.6v26.3h-6V54.2c0-3.4-.5-5.9-1.6-7.4s-2.8-2.3-5.2-2.3c-2.7 0-5.8 1.9-9.1 5.6v26.3h-6.2zm76.7.9c-2.4 0-4.7-.4-6.8-1.3-2.1-.9-4-2.1-5.5-3.7-1.6-1.6-2.8-3.6-3.7-5.9-.9-2.3-1.3-5-1.3-8s.5-5.7 1.4-8c.9-2.4 2.1-4.4 3.7-6 1.5-1.6 3.3-2.9 5.2-3.8 1.9-.9 4-1.3 6.1-1.3 2.3 0 4.3.4 6.2 1.2 1.8.8 3.3 1.9 4.6 3.4 1.2 1.5 2.2 3.3 2.8 5.4s1 4.4 1 7v1.9c0 .6-.1 1.2-.2 1.6h-24.5c.2 3.9 1.5 7 3.6 9.2 2.2 2.3 5 3.4 8.5 3.4 1.7 0 3.4-.3 4.8-.8s2.9-1.2 4.2-2.1l2.2 4c-1.6 1-3.4 1.9-5.3 2.6-2.3.8-4.5 1.2-7 1.2zm-11.4-22h19.4c0-3.7-.8-6.5-2.4-8.4-1.6-1.9-3.8-2.9-6.6-2.9-1.3 0-2.5.2-3.7.7s-2.2 1.2-3.2 2.2c-.9 1-1.7 2.2-2.4 3.6-.5 1.4-.9 3-1.1 4.8zm33.8 21.1V40.1h5.1l.5 5.2h.2c1.7-1.7 3.6-3.2 5.5-4.4s4.1-1.8 6.7-1.8c3.8 0 6.6 1.2 8.4 3.6 1.8 2.4 2.7 5.9 2.7 10.6v23h-6.1V54.2c0-3.4-.5-5.9-1.6-7.4s-2.8-2.3-5.2-2.3c-1.9 0-3.6.5-5 1.4s-3.1 2.3-4.9 4.2v26.3h-6.3zm52.3.9c-1.9 0-3.6-.3-4.9-.9s-2.4-1.4-3.2-2.5-1.4-2.3-1.8-3.8c-.3-1.5-.5-3.1-.5-4.9V45.1h-5.4v-4.6l5.7-.4.7-10.2h5.2v10.2h9.8v5h-9.8v20.2c0 2.2.4 4 1.2 5.2.8 1.2 2.3 1.8 4.4 1.8.6 0 1.3-.1 2.1-.3.7-.2 1.4-.4 2-.7l1.2 4.7c-1 .3-2.1.7-3.3.9-1.1.3-2.2.4-3.4.4z"/></g></svg>