<svg width="54" height="108" viewBox="0 0 54 108" xmlns="http://www.w3.org/2000/svg"><title>playmentFullyManaged</title><defs><linearGradient x1="0%" y1="0%" y2="100%" id="a"><stop stop-color="#FFF" offset="0%"/><stop stop-color="#FEFEFE" stop-opacity=".279" offset="100%"/></linearGradient></defs><g fill="none" fill-rule="evenodd"><path d="M0 108c29.823 0 54-24.177 54-54S29.823 0 0 0v108z" fill="url(#a)" opacity=".2" transform="rotate(180 27 54)"/><path d="M44.628 59.047c-.23.259-.477.516-.739.77-.165.167-.317.318-.448.447v-.024c-4.088 3.726-11.087 6.957-13.823 8.361v-5.586c3.468-2.17 8.336-4.819 10.94-8.14-3.829-4.101-10.68-8.104-15.59-9.565L24.96 74c-1.304-.323-3.082-.406-4.75-3.731-1.758-3.502-1.182-20.042-.838-24.502.99-15.55 20.775-.125 25.433 4.95v.01c1.405 1.533 2.243 3.085 2.193 4.482-.043 1.101-1.275 2.653-2.37 3.838zm-14.99-6.6c0-.073-.03-.917.627-.49l.131.084 3.183 2.418c.121.093.192.156.192.156s.738.469-.08 1.032l-3.123 2.147a1.437 1.437 0 0 1-.162.104s-.778.48-.768-.23l.01-5.21-.01-.01z" fill-rule="nonzero" fill="#FFF"/></g></svg>