<svg id="Layer_1" xmlns="http://www.w3.org/2000/svg" viewBox="0 0 16.5 20"><style>.st0{fill:#fff}</style><title>Artboard</title><g id="Group-7" transform="translate(3.5)"><path id="Combined-Shape-Copy" class="st0" d="M11.6 11.5l-.4.4-.3.3c-2.4 2.1-6.5 4-8.2 4.8v-3.2c2-1.2 4.9-2.8 6.5-4.7C7 6.7 2.9 4.4 0 3.6V20c-.8-.2-1.8-.2-2.8-2.1-1-2-.7-11.5-.5-14 .6-8.9 12.3-.1 15 2.8.8.9 1.3 1.8 1.3 2.6 0 .6-.7 1.5-1.4 2.2zM2.8 7.7s0-.5.4-.3h.1l1.9 1.4.1.1s.4.3 0 .6l-1.8 1.2c-.1 0-.1.1-.1.1s-.5.3-.5-.1v-3h-.1z"/></g></svg>