<svg width="40" height="33" viewBox="0 0 40 33" xmlns="http://www.w3.org/2000/svg"><title>startQuote</title><path d="M35.79 30.61c1.54-1.54 2.31-3.29 2.31-5.25 0-1.867-.63-3.57-1.89-5.11-1.26-1.54-2.777-2.357-4.55-2.45.28-2.427 1.097-4.527 2.45-6.3 1.353-1.773 3.29-3.547 5.81-5.32L36.98 1c-3.92 2.053-7.28 5.297-10.08 9.73-2.8 4.433-4.2 8.89-4.2 13.37 0 2.613.77 4.737 2.31 6.37s3.337 2.45 5.39 2.45c2.053 0 3.85-.77 5.39-2.31zm-21.91 0c1.493-1.54 2.24-3.29 2.24-5.25 0-1.867-.63-3.57-1.89-5.11-1.26-1.54-2.777-2.357-4.55-2.45.373-2.427 1.237-4.527 2.59-6.3 1.353-1.773 3.29-3.547 5.81-5.32L15.14 1c-3.92 2.053-7.257 5.297-10.01 9.73C2.377 15.163 1 19.62 1 24.1c0 2.613.747 4.737 2.24 6.37 1.493 1.633 3.267 2.45 5.32 2.45 2.053 0 3.827-.77 5.32-2.31z" fill="#FFF" fill-rule="evenodd" opacity=".2"/></svg>